<?xml version="1.0" standalone="no"?>
<!DOCTYPE svg PUBLIC "-//W3C//DTD SVG 1.1//EN" "http://www.w3.org/Graphics/SVG/1.1/DTD/svg11.dtd" >
<svg>
<metadata>
Created by FontForge 20120731 at Sat May 21 14:17:53 2016
 By ,,,
Copyright (c) 2013 by Kimberly Geswein. All rights reserved.
</metadata>
<defs>
<font id="KGBlankSpaceSolid" horiz-adv-x="1133" >
  <font-face 
    font-family="KG Blank Space Solid"
    font-weight="400"
    font-stretch="normal"
    units-per-em="2048"
    panose-1="2 0 0 0 0 0 0 0 0 0"
    ascent="1638"
    descent="-410"
    x-height="1332"
    cap-height="1808"
    bbox="-457 -470 2184 2228"
    underline-thickness="0"
    underline-position="0"
    unicode-range="U+0020-2212"
  />
<missing-glyph horiz-adv-x="729" 
 />
    <glyph glyph-name=".notdef" horiz-adv-x="729" 
 />
    <glyph glyph-name=".null" horiz-adv-x="0" 
 />
    <glyph glyph-name="nonmarkingreturn" horiz-adv-x="729" 
 />
    <glyph glyph-name="space" unicode=" " horiz-adv-x="729" 
 />
    <glyph glyph-name="space" unicode="&#xa0;" horiz-adv-x="729" 
 />
    <glyph glyph-name="five" unicode="5" horiz-adv-x="1327" 
d="M373 1431v-328q167 45 298 41t230 -43.5t168 -107.5t111.5 -151t60.5 -175t15 -178q-3 -92 -30 -168t-72 -136t-104.5 -104t-127 -72.5t-140.5 -42t-144 -11.5q-110 3 -212 41.5t-181.5 111t-127 179.5t-47.5 248l311 -12q3 -50 21 -96.5t52 -83t83.5 -59t114.5 -23.5
q58 -1 106.5 19.5t84.5 56t57 83t24 100.5q4 73 -19.5 127.5t-66 89.5t-99.5 52t-119.5 15t-126.5 -22t-120 -57h-296v1046h1074v-340h-778z" />
    <glyph glyph-name="l" unicode="l" horiz-adv-x="482" 
d="M416 -13h-355l6 1817h338z" />
    <glyph glyph-name="G" unicode="G" horiz-adv-x="1434" 
d="M1349 1009q16 -230 -9 -422t-94 -331t-183 -218t-274 -83q-124 -3 -225.5 30t-181.5 94t-138 146.5t-96 189t-56.5 221.5t-18.5 243q0 205 52.5 372.5t147.5 287t226.5 184.5t290.5 66q87 0 168 -19.5t148.5 -58.5t118.5 -96t78 -132l-298 -146q-34 60 -94 90.5
t-156 22.5q-69 -6 -134 -46t-116 -111.5t-83 -172.5t-36 -228q-5 -155 25 -269t82.5 -189.5t121.5 -113t143 -38.5q60 -1 108.5 21.5t82.5 71.5t54 126t23 184l-329 1l-13 323h665z" />
    <glyph glyph-name="P" unicode="P" horiz-adv-x="1396" 
d="M80 1798q146 11 295.5 13.5t288.5 -13.5t260.5 -55t212 -110t142.5 -179t52 -263q0 -94 -25 -186.5t-72.5 -173.5t-116 -145t-154.5 -100q-125 -51 -261 -71t-270 -6l3 -515h-355v1804zM441 863q139 -14 242.5 6t170.5 63t98 104.5t27 131.5q-4 68 -29.5 120t-66 90
t-93 63t-111.5 37.5t-121 13.5t-122 -7z" />
    <glyph glyph-name="W" unicode="W" horiz-adv-x="2074" 
d="M1686 1781l328 -81q-4 -24 -18.5 -96t-36 -176t-48.5 -233t-55.5 -266.5t-58 -276t-56 -263t-49 -227t-37.5 -166.5h-429q-9 26 -21 73.5t-26.5 109.5t-31 136t-35 153.5t-37 161t-37.5 160.5q-19 -79 -38 -161t-37 -161.5t-35 -153t-31.5 -135.5t-27 -109t-20.5 -74
h-429q-15 64 -37.5 166.5t-49 226.5t-56 262t-58 275.5t-55.5 265.5t-48.5 232t-36 176t-18.5 96l328 81l260 -1232l230 1062h317l230 -1058z" />
    <glyph glyph-name="w" unicode="w" horiz-adv-x="1998" 
d="M1625 1341l308 -74q-6 -24 -21 -82.5t-35.5 -140.5t-46 -181t-53 -203t-55.5 -207.5t-54 -193.5t-48.5 -161.5t-38.5 -111.5h-331q-15 28 -33 75.5t-38.5 107.5t-43 129t-45.5 140.5t-46.5 142.5t-46.5 135q-23 -64 -46.5 -135t-47 -142.5t-46 -140.5t-43 -129
t-38 -107.5t-32.5 -75.5h-331q-16 40 -38.5 111.5t-48.5 161.5t-54 193.5t-55.5 207.5t-53 203t-46 181t-35.5 140.5t-21 82.5l308 74l205 -943l285 896h276l286 -896z" />
    <glyph glyph-name="six" unicode="6" horiz-adv-x="1373" 
d="M1003 520q7 74 -23 131.5t-82 92t-119 43.5t-133.5 -14.5t-126 -82t-96.5 -158.5q2 -50 19.5 -98t50.5 -86t82.5 -62t114.5 -25q58 -1 112.5 20.5t97.5 57.5t70.5 83.5t32.5 97.5zM353 907q70 79 149 124.5t159.5 63t160 9t151 -38.5t133 -79.5t106 -113.5t69 -140.5
t22.5 -161.5q-3 -155 -53 -270t-129.5 -190t-181.5 -112t-210 -36q-145 1 -254.5 53.5t-187.5 141t-126.5 205t-70.5 246t-19.5 264t25.5 258.5q27 147 84 269.5t145.5 209t208.5 129.5t273 31q96 -8 180 -46t148 -99t105 -141t51 -171l-276 -69q-6 41 -24 83t-47 76.5
t-69.5 56.5t-91.5 22q-42 0 -91 -12.5t-97.5 -40.5t-93.5 -72.5t-78.5 -108.5t-53 -148.5t-16.5 -191.5z" />
    <glyph glyph-name="b" unicode="b" horiz-adv-x="1388" 
d="M742 1341q116 -1 209.5 -39.5t163.5 -103.5t117 -151t70.5 -183t23.5 -199.5t-23.5 -199t-70.5 -182.5t-118 -150.5t-165.5 -102.5t-213.5 -38q-94 0 -173 22t-145 60v-92h-336q-1 19 -1.5 76t-1 140.5t-0.5 189t-0.5 223t-1 241.5t-0.5 244t-0.5 232t-1 204.5t-1 161.5
t-0.5 104h355l-3 -532q66 36 144.5 56t172.5 19zM696 331q74 -4 130 23t94 74t58 108.5t22 126t-15 126.5t-52.5 111t-90 78.5t-127.5 29.5q-69 0 -121.5 -25t-89 -66t-57.5 -94.5t-26 -111.5v-72q4 -57 23.5 -111t54 -96.5t83.5 -69.5t114 -31z" />
    <glyph glyph-name="m" unicode="m" horiz-adv-x="2116" 
d="M424 1213q16 8 32 15t33 14q207 83 363 42t260 -217q55 64 117 110.5t126.5 75.5t130.5 39t128 1q92 -14 161 -64.5t117 -128.5t75 -180.5t35 -219.5q5 -72 7.5 -154.5t3.5 -172.5t-1 -184.5t-6 -188.5h-331q4 92 7.5 184t6 176.5t2 157.5t-4.5 129q-5 54 -15.5 110
t-29.5 102t-46 76t-64 32q-71 4 -122 -23t-87 -77.5t-58.5 -119t-35.5 -146.5t-18 -161t-6 -162.5t-0.5 -151t-0.5 -126.5h-331q4 92 7.5 182.5t5.5 173t1.5 154.5t-3.5 128q-6 97 -23.5 168.5t-54.5 111.5t-96.5 45.5t-149.5 -29.5q-76 -29 -132 -72l5 -862h-355
q1 43 1 116t0.5 164t0.5 193.5t0.5 205.5t0.5 201t0.5 179.5t1 140t1.5 82.5h338z" />
    <glyph glyph-name="H" unicode="H" horiz-adv-x="1439" 
d="M1367 -1h-355q0 23 0.5 64.5t0.5 96t0.5 120t0.5 137v146v147.5q-68 0 -141.5 0.5t-150.5 1t-155.5 1t-155.5 1.5l5 -715h-355q0 35 0.5 103t1 160t0.5 202v228.5t0.5 240.5t0.5 237.5t0.5 219.5t0.5 186.5t0.5 138.5t1.5 76h338l4 -732l605 1q0 81 0.5 162.5t0.5 158
t0.5 144.5t1 122.5t0.5 91.5t1 52h338z" />
    <glyph glyph-name="bracketright" unicode="]" horiz-adv-x="783" 
d="M336 1710h-271v343h612l5 -2311h-214t-137.5 0.5t-85.5 0.5h-57h-52t-71 -1v343h268z" />
    <glyph glyph-name="seven" unicode="7" horiz-adv-x="1228" 
d="M1144 1767v-320l-631 -1502l-322 150l572 1322l-692 7v338z" />
    <glyph glyph-name="X" unicode="X" horiz-adv-x="1544" 
d="M561 856l-526 744l275 197l464 -645l460 644l275 -197l-522 -743l518 -730l-281 -217l-450 646l-443 -627l-288 210z" />
    <glyph glyph-name="x" unicode="x" horiz-adv-x="1303" 
d="M444 660q-67 85 -129 167t-112.5 150t-86 116.5t-49.5 66.5l263 204l336 -412l336 412l263 -204q-14 -18 -49.5 -66t-86 -116.5t-112.5 -150.5t-129 -167l368 -475l-283 -215q-20 24 -51.5 66.5t-71.5 97t-86.5 117.5t-97.5 127q-51 -64 -98 -127t-87 -117.5t-71.5 -97
t-50.5 -66.5l-283 215z" />
    <glyph glyph-name="I" unicode="I" horiz-adv-x="1165" 
d="M66 -10v349l334 -1v170v194t0.5 205t0.5 203v189v163l-335 2v341l1025 3v-349l-343 1l5 -1124l338 -2v-341z" />
    <glyph glyph-name="c" unicode="c" horiz-adv-x="1314" 
d="M1253 313q-42 -65 -102 -120t-131 -95.5t-150.5 -63.5t-161.5 -24q-128 -1 -230 36t-178.5 101.5t-127 151t-75 183.5t-24.5 200t26 200.5t76.5 184.5t126 152t175.5 102.5t224 37.5q87 0 165 -19t146.5 -59t127.5 -103t108 -152l-300 -144q-15 28 -44 54.5t-67 46
t-82.5 30.5t-92.5 7q-69 -5 -121.5 -37t-87 -80.5t-51.5 -109t-16.5 -122.5t19.5 -120.5t55.5 -104.5t91.5 -74.5t129 -28.5q40 0 83 10.5t83.5 31.5t76 52t60.5 72z" />
    <glyph glyph-name="ampersand" unicode="&#x26;" horiz-adv-x="1503" 
d="M928 1021q-68 -71 -135 -123l247 -367q50 39 96.5 80.5t90.5 83.5l195 -220q-45 -54 -96.5 -104.5t-108.5 -97.5l121 -170l-315 -169l-97 141q-114 -58 -228.5 -81t-217.5 -5.5t-188 77t-140 166.5q-51 98 -56 200.5t26 200t93.5 184t146.5 152.5v2q-61 78 -95 168
t-41 179t14.5 172t72.5 146t132 101t193 38q99 0 179.5 -34.5t137.5 -92.5t88 -134.5t30.5 -160t-35.5 -169.5t-110 -163zM424 397q22 -49 61.5 -75.5t86 -32.5t93.5 7.5t84 44.5l-218 357q-38 -39 -65.5 -77.5t-42 -76t-15.5 -74.5t16 -73zM664 1483q-42 4 -68.5 -11.5
t-40 -43.5t-14 -65t10 -76t32 -76.5t52.5 -65.5q42 27 69.5 62t41 71.5t14.5 72t-10 64t-33 47t-54 21.5z" />
    <glyph glyph-name="n" unicode="n" horiz-adv-x="1284" 
d="M424 1193q16 8 32 15t33 14q166 67 292 70t214.5 -61t139 -198t64.5 -342q5 -72 7.5 -154t3.5 -170.5t-1 -182.5t-6 -188h-331q4 92 7.5 183t5.5 174.5t1.5 156t-3.5 128.5q-6 97 -23.5 165t-54.5 104.5t-96.5 39t-149.5 -32.5q-76 -29 -132 -72l5 -846h-355
q1 43 1 116.5t0.5 165.5t0.5 196t0.5 208.5t0.5 203.5t0.5 181t1 141.5t1.5 83.5h338z" />
    <glyph glyph-name="sterling" unicode="&#xa3;" horiz-adv-x="1260" 
d="M68 688v338h154q3 121 13.5 205t26.5 143t36 99.5t43 73.5q50 72 110 114.5t118 64.5t106.5 29t75.5 9q51 3 109 -6t111 -26.5t96 -42.5t64 -55l-171 -258q-54 38 -105 49.5t-91 6.5q-89 -12 -138 -111q-26 -53 -39.5 -126.5t-18.5 -168.5h408v-337l-406 -1l4 -389l596 6
v-349h-2h-937l-10 732h-153z" />
    <glyph glyph-name="J" unicode="J" horiz-adv-x="1100" 
d="M1014 1790q3 -81 5.5 -170.5t4.5 -180t3 -179t1.5 -167.5t0 -145.5t-1.5 -113.5q-5 -195 -28.5 -346t-77.5 -260q-59 -118 -162.5 -181.5t-266.5 -69.5q-51 -2 -115.5 8t-126.5 28t-111.5 44t-70.5 56l171 255q66 -33 130 -49t118.5 -5.5t96 52.5t61.5 125
q17 69 23.5 159t9.5 196q2 66 1.5 172.5t-3 234t-7 266.5t-10.5 271h355z" />
    <glyph glyph-name="eight" unicode="8" horiz-adv-x="1322" 
d="M1261 570q-1 -124 -35.5 -223t-93 -172.5t-136 -122t-164 -73t-178 -25t-177.5 23t-162.5 70.5t-133.5 117t-89.5 162.5t-31.5 207.5q1 65 12.5 128.5t39.5 124.5t73.5 117.5t114.5 107.5q-36 28 -62.5 62.5t-44.5 72.5t-28 77t-13 76q-6 81 11.5 149t53 122.5t85.5 95
t109.5 67.5t125.5 39.5t133 10.5q65 -2 127.5 -17.5t118.5 -43.5t103 -69t79.5 -93.5t48.5 -117t10 -139.5q-3 -38 -12.5 -77t-26 -78t-40.5 -76t-55 -69q65 -39 110.5 -97.5t74 -120.5t41 -120t12.5 -97zM671 821q-72 2 -129 -23.5t-95.5 -68t-58 -97t-17.5 -109.5
q2 -50 21.5 -96.5t55.5 -83t87.5 -59t116.5 -23.5q58 -1 106 20.5t83.5 57.5t56.5 83.5t26 97.5q5 54 -9.5 107.5t-46.5 96t-81.5 69t-115.5 28.5zM658 1497q-62 5 -106.5 -20t-69 -65.5t-28.5 -89.5t14.5 -92t59.5 -72t106 -30q62 -1 103.5 24.5t63.5 65t24 86.5t-16 88
t-56 70.5t-95 34.5z" />
    <glyph glyph-name="Y" unicode="Y" horiz-adv-x="1440" 
d="M723 1152l381 650l304 -131l-505 -919l2 -779h-355l10 782l-515 911l304 131z" />
    <glyph glyph-name="asterisk" unicode="*" horiz-adv-x="1406" 
d="M570 1041l-72 371l338 9l-48 -398l308 288l164 -315l-392 -141l338 -225l-238 -264l-175 309l54 -380l-355 19l76 402l-256 -273l-180 286l350 147l-364 185l206 268z" />
    <glyph glyph-name="d" unicode="d" horiz-adv-x="1386" 
d="M651 1338q94 1 172.5 -19t144.5 -56l-3 534h355q0 -35 -0.5 -104t-1 -161.5t-1 -204t-0.5 -232t-0.5 -244.5t-1 -241t-0.5 -222.5t-0.5 -189t-1 -140.5t-1.5 -76h-336v89q-66 -38 -145 -60t-173 -22q-119 0 -213.5 38t-165.5 102.5t-118 150.5t-70.5 182.5t-23.5 199
t23.5 199.5t70.5 183t117 151t163.5 103.5t209.5 39.5zM697 328q64 4 113.5 31t84 69.5t54 96.5t23.5 111v72q-5 58 -26 111.5t-57.5 94.5t-89 66t-121.5 25q-74 0 -128 -29.5t-89.5 -78.5t-52.5 -111t-15 -126.5t22 -126t58 -108.5t94 -74t130 -23z" />
    <glyph glyph-name="o" unicode="o" horiz-adv-x="1376" 
d="M713 5q-128 -1 -230 36t-178.5 101.5t-127 151t-75 183.5t-24.5 200t26 200.5t76.5 184.5t126 152t175.5 102.5t224 37.5q119 0 213.5 -38t165.5 -102.5t118 -150.5t70.5 -182.5t23.5 -199t-23.5 -199.5t-70.5 -183t-117 -151t-163.5 -103.5t-209.5 -39.5zM667 1015
q-70 -4 -122 -35t-86.5 -79.5t-51.5 -108.5t-16.5 -122.5t19.5 -122t55.5 -106t91.5 -75t129 -28.5q73 0 127.5 29.5t90 78.5t52.5 111t15 126.5t-22 126t-58 108.5t-94 74t-130 23z" />
    <glyph glyph-name="K" unicode="K" horiz-adv-x="1429" 
d="M448 1129l691 689l211 -263l-655 -632l702 -711l-268 -234l-678 699l3 -679h-355q0 35 0.5 103.5t1 160.5t0.5 202.5v229.5t0.5 241.5t0.5 238.5t0.5 220.5t0.5 187t0.5 138.5t1.5 76h338z" />
    <glyph glyph-name="Q" unicode="Q" horiz-adv-x="1720" 
d="M893 -61q-165 -2 -296.5 49t-229.5 139.5t-163 207t-97 252.5t-31.5 275t33.5 275t98 253t162.5 208.5t226 141t288.5 51.5q139 0 252 -43t201 -117.5t150.5 -175.5t100.5 -217t50.5 -241.5t0.5 -250t-49 -242.5t-98 -218l163 -259l-305 -167l-111 172q-74 -43 -160 -67
t-186 -26zM1266 646q24 86 29 179t-9.5 182.5t-49.5 169t-90.5 138.5t-131.5 91t-174 27q-110 -7 -192.5 -60t-137.5 -134.5t-82 -184t-26 -208t30.5 -206t87.5 -179.5t145 -127t203 -49q54 -1 100.5 12.5t87.5 38.5l-203 335l296 163z" />
    <glyph glyph-name="nine" unicode="9" horiz-adv-x="1388" 
d="M652 443q-116 1 -209.5 39.5t-163.5 103.5t-117 151t-70.5 183t-23.5 199.5t23.5 199t70.5 182.5t118 150.5t165.5 102.5t213.5 38q94 0 173 -22t145 -60v84h336q1 -20 1.5 -76t1 -139.5t0.5 -188.5t0.5 -221.5t1 -239.5t0.5 -243t0.5 -231t1 -203.5t1 -161t0.5 -103.5
h-355l3 531q-66 -36 -144.5 -56t-172.5 -19zM698 1453q-74 4 -130 -23t-94 -74t-58 -108.5t-22 -126t15 -126.5t52.5 -111t89.5 -78.5t128 -29.5q69 0 121.5 25t89 66t57.5 94.5t26 111.5v72q-4 57 -23.5 111t-54 96.5t-84 69.5t-113.5 31z" />
    <glyph glyph-name="y" unicode="y" horiz-adv-x="1449" 
d="M863 638q34 124 65.5 239.5l57 209t43.5 157.5t24 86l330 -77l-467 -1723l-339 107q8 28 26.5 89t42.5 139.5t50 168.5t50 176q-68 94 -141 193.5t-143.5 196t-135 185t-116 159.5t-87 119.5t-47.5 66.5l266 209z" />
    <glyph glyph-name="Z" unicode="Z" horiz-adv-x="1261" 
d="M823 1460h-741v317l1133 -5v-312l-737 -1137h735v-324l-1131 8v316z" />
    <glyph glyph-name="copyright" unicode="&#xa9;" horiz-adv-x="2100" 
d="M1470 623q-29 -41 -68.5 -78.5t-87.5 -66t-103.5 -46t-115.5 -17.5q-117 -1 -203.5 40.5t-144.5 110.5t-86 157.5t-27.5 180.5t29.5 180.5t86 158t142.5 111.5t198.5 42q63 0 120.5 -15.5t106 -44.5t85.5 -71t58 -94l-218 -105q-24 43 -67.5 66t-112.5 17q-50 -4 -88 -27
t-63.5 -58.5t-38 -79t-12 -89t14.5 -88t40.5 -76t66.5 -54t94 -20.5q29 0 58 10t55 25.5t48 34.5t37 38zM1103 -38q-197 -2 -353.5 50t-273.5 142t-194.5 211t-116 257t-37.5 279.5t40.5 280t117 257.5t193 211.5t269 143.5t344.5 52q182 0 327.5 -53t254.5 -143t181 -210
t108.5 -255t36.5 -278t-36 -278t-108 -256t-180 -211.5t-251 -144.5t-322 -55zM1055 1553q-116 -6 -209 -46t-162.5 -103.5t-116 -146.5t-69 -175t-21 -188.5t26.5 -187.5t74 -172t123 -141.5t171.5 -96t220.5 -36.5q111 -1 201 36t158 100.5t114 148.5t69.5 180t23.5 195
t-23.5 194t-71.5 176.5t-120 143t-169 93t-220 26.5z" />
    <glyph glyph-name="L" unicode="L" horiz-adv-x="1120" 
d="M414 320h611v-343h-963v1816h338z" />
    <glyph glyph-name="p" unicode="p" horiz-adv-x="1391" 
d="M746 5q-94 -1 -172.5 19t-144.5 56l3 -533h-355q0 35 0.5 103.5t1 160.5t1 203t0.5 230t0.5 242t1 239.5t0.5 221t0.5 187.5t1 139t1.5 76h336v-77q66 38 145 60t173 22q119 0 213.5 -38t165.5 -102.5t118 -150.5t70.5 -182.5t23.5 -199t-23.5 -199.5t-70.5 -183
t-117 -151t-163.5 -103.5t-209.5 -39.5zM700 1015q-65 -4 -114 -31t-83.5 -69.5t-54 -96.5t-23.5 -111v-72q5 -58 26 -111.5t57.5 -94.5t89 -66t121.5 -25q73 0 127.5 29.5t90 78.5t52.5 111t15 126.5t-22 126t-58 108.5t-94 74t-130 23z" />
    <glyph glyph-name="e" unicode="e" horiz-adv-x="1422" 
d="M1368 243q-66 -72 -149.5 -124.5t-173.5 -85.5t-181.5 -47t-173.5 -9q-124 6 -237 54t-198 134.5t-134.5 211t-46.5 284.5q1 85 21 170.5t58.5 164.5t95 148t131.5 120t168.5 81t205.5 32q114 1 205 -33t159.5 -94t115.5 -141t73.5 -173t33.5 -191t-5 -195l-936 -3
q16 -66 48 -117.5t74 -87t93 -54.5t107 -20q44 0 96.5 10t106 31.5t103.5 53.5t89 75zM1026 865q-8 47 -30 82.5t-55 60t-73.5 38t-83.5 16.5q-52 4 -105 -7t-99 -35t-81 -61t-51 -86z" />
    <glyph glyph-name="z" unicode="z" 
d="M663 1015h-581v317l973 -5v-312l-577 -692h577v-324l-973 8v316z" />
    <glyph glyph-name="R" unicode="R" horiz-adv-x="1391" 
d="M80 1784q165 24 318.5 32t287 -4.5t244.5 -49t191.5 -101t127.5 -161t54 -229.5q4 -94 -17 -169.5t-61 -134t-94.5 -101.5t-118 -73.5t-131.5 -50t-133 -29.5l593 -520l-242 -262l-672 610l8 -566h-355v1809zM441 1038q17 -3 49 -4.5t72.5 -0.5t86.5 6.5t91 16.5t85.5 29
t70.5 44.5t46 63.5t12 85q-4 49 -30 85.5t-66.5 62t-92.5 40.5t-108 22t-113 5.5t-108 -8.5z" />
    <glyph glyph-name="f" unicode="f" horiz-adv-x="1227" 
d="M222 1026q3 121 13.5 205t26.5 143t36 99.5t43 73.5q62 89 142 138.5t166 69.5t172.5 15t160.5 -25.5t129.5 -50.5t81.5 -60l-171 -258q-51 33 -108 51.5t-111 15t-100.5 -32t-76.5 -89.5q-26 -53 -39.5 -126.5t-18.5 -168.5h417v-337l-415 -1l8 -709h-355l-2 709h-155
v338h156z" />
    <glyph glyph-name="q" unicode="q" horiz-adv-x="1388" 
d="M647 3q-116 1 -209.5 39.5t-163.5 103.5t-117 151t-70.5 183t-23.5 199.5t23.5 199t70.5 182.5t118 150.5t165.5 102.5t213.5 38q94 0 173 -22t145 -60v71h336q1 -20 1.5 -75.5t1 -138t0.5 -186t0.5 -219t1 -237.5t0.5 -240t0.5 -228t1 -201.5t1 -159.5t0.5 -103h-355
l3 525q-66 -36 -144.5 -56t-172.5 -19zM693 1013q-74 4 -130 -23t-94 -74t-58 -108.5t-22 -126t15 -126.5t52.5 -111t89.5 -78.5t128 -29.5q69 0 121.5 25t89 66t57.5 94.5t26 111.5v72q-4 57 -23.5 111t-54 96.5t-84 69.5t-113.5 31z" />
    <glyph glyph-name="quotesingle" unicode="'" horiz-adv-x="666" 
d="M445 1504q45 -78 65 -150.5t17 -144t-29.5 -143.5t-75.5 -149l-284 100q36 55 54 98.5t23.5 78t0.5 61.5t-14 49.5t-20.5 43t-18.5 41.5z" />
    <glyph glyph-name="plus" unicode="+" horiz-adv-x="987" 
d="M301 677h-182v341l184 1l1 180v2h344l2 -178l183 2v-349h-12h-177l-2 -189h-341v190z" />
    <glyph glyph-name="zero" unicode="0" horiz-adv-x="1432" 
d="M738 -39q-137 -2 -246 48.5t-190.5 138t-135.5 204.5t-80.5 249t-26 272t28 272t81.5 250t134.5 206t187 139t239.5 51q127 0 228.5 -51.5t177 -139t126 -204t76 -248t25 -270t-25.5 -270t-75 -248.5t-125 -205t-175 -140.5t-224 -53.5zM694 1437q-80 -6 -139.5 -57.5
t-99.5 -131.5t-59 -180t-18 -204t23 -204t64 -178t105 -127t147 -52q66 -2 119 29t93.5 86t67.5 129t41 157.5t14 171.5t-14 171t-42 156t-71 126.5t-100.5 83t-130.5 24.5z" />
    <glyph glyph-name="period" unicode="." horiz-adv-x="547" 
d="M290 -9q-69 -2 -114.5 25.5t-69 69.5t-24 92t21.5 93t66.5 72t111.5 29q61 0 103 -27.5t64.5 -69.5t24 -90.5t-18 -91t-60.5 -71.5t-105 -31z" />
    <glyph glyph-name="M" unicode="M" horiz-adv-x="2135" 
d="M624 1800l1.5 -6t7 -24.5t17 -54t32.5 -94.5t53 -144.5t78.5 -205.5t109 -278t144.5 -360q111 272 186.5 464.5t125 322t76 205t39 114.5t15 50l2.5 11h334q3 -19 10 -74.5t16.5 -137.5t22 -185t25.5 -217.5t27.5 -235.5t28.5 -238.5t26.5 -226.5t23.5 -200t19.5 -159
t13.5 -102l-350 -63l-115 1119q-37 -94 -74.5 -196.5t-74.5 -205t-71 -198.5t-63 -177.5t-51.5 -142t-35.5 -91.5h-311q-13 31 -35.5 91.5t-51.5 142t-63 177.5t-71 198.5t-75 205t-74 196.5l-115 -1119l-350 63q5 34 13.5 102t19.5 159t23.5 200t26.5 226.5t28.5 238.5
t27.5 235.5t25.5 217.5t22 185t16.5 137.5t10 74.5h334z" />
    <glyph glyph-name="A" unicode="A" horiz-adv-x="1661" 
d="M1130 372l-594 4l-139 -431l-315 124q6 19 23.5 72.5t44 133.5t59.5 180.5t69.5 212t75.5 229t77 232t73 220.5t64.5 194t51.5 153.5t33 98.5l337 3q14 -32 38.5 -97t56 -153t68 -194.5t76 -222t79.5 -234t77.5 -231t71 -214t60 -182t44.5 -134.5t24 -73l-315 -124z
M661 715l344 -1l-172 548z" />
    <glyph glyph-name="S" unicode="S" horiz-adv-x="1194" 
d="M932 819q62 -68 106.5 -147t66 -162.5t16.5 -168.5t-41 -164q-26 -57 -70.5 -97.5t-100 -67t-117.5 -39t-123 -12.5q-84 0 -172.5 24t-171 68t-154 107t-123.5 141l217 209q34 -48 79 -88t94 -70t99 -47.5t95 -20.5q40 -3 68 8.5t44 32t22.5 47.5t5.5 56t-10 57.5
t-22 51.5q-29 49 -80 98t-112.5 98.5t-128 100t-127 103.5t-110 108t-76.5 114q-45 99 -40 200.5t53 189.5q38 70 93 119.5t121 79t139.5 40t148.5 3t147 -32.5t135 -66q28 -18 64.5 -47.5t73 -63t67.5 -66t47 -56.5l-260 -199q-44 62 -93.5 104.5t-99.5 67.5t-97 34
t-85.5 3.5t-65.5 -24.5t-36 -48q-12 -38 5.5 -78.5t56 -84t92.5 -91t115.5 -99t124.5 -107.5t120 -118z" />
    <glyph glyph-name="r" unicode="r" horiz-adv-x="1215" 
d="M418 1226q42 26 100.5 45t125.5 27t139.5 3.5t142.5 -24t133.5 -55t114.5 -90.5l-146 -257q-52 43 -113 66t-123 31t-121.5 2t-109 -22.5t-85 -42t-49.5 -56.5l11 -874h-355q1 40 1 111.5v163v197v213v211t-0.5 190.5t-0.5 151.5v94.5h338z" />
    <glyph glyph-name="at" unicode="@" horiz-adv-x="1911" 
d="M1373 629q2 -39 9 -59.5t18 -27t24 -1.5t26.5 17t25.5 28.5t22 33.5q27 48 45 106t23 121t-3.5 128t-34.5 126t-71 115t-112 95t-158 67t-209 30q-96 4 -178.5 -22t-150 -74t-121 -114.5t-91 -144.5t-59 -164t-26.5 -173q-11 -194 34.5 -332t132 -226.5t207.5 -130.5
t261 -45q58 -1 120 12t122.5 40t116.5 67.5t101 93.5l224 -123q-61 -86 -141.5 -151t-171 -108t-186 -64t-185.5 -20q-137 2 -260 36t-226.5 95.5t-185 148t-137 193.5t-82 232t-19.5 264q6 126 33 245t76.5 224.5t123.5 193.5t175 151.5t229.5 98.5t288.5 36q143 0 264 -36
t217.5 -99t167 -149.5t112 -186t53.5 -208.5t-8 -218.5t-74.5 -214t-144.5 -195.5q-18 -18 -50.5 -33.5t-72 -24t-82.5 -6t-81.5 21.5t-68.5 57.5t-44 102.5q-2 10 -3.5 21t-3.5 23q-19 -48 -48 -82.5t-63.5 -57t-71.5 -34t-71 -13.5q-96 -1 -166.5 34.5t-117 93.5
t-70.5 131.5t-27 149.5q-3 81 20 159.5t71 140.5t122 100t173 38q48 -1 89.5 -11t77.5 -29v34h249zM925 888q-27 -1 -49 -13.5t-37 -34t-23 -51t-7 -63.5q1 -24 8.5 -51t21.5 -50t36 -38.5t52 -15.5q33 0 58.5 15t42.5 39.5t26 54.5t9 60q0 29 -9 56.5t-27 48.5t-43.5 33
t-58.5 10z" />
    <glyph glyph-name="g" unicode="g" horiz-adv-x="1399" 
d="M1310 1372q3 -187 8 -368t5 -354t-8 -337.5t-31 -318.5q-17 -114 -69 -201t-131 -145t-180 -86t-216 -25q-116 3 -204 19.5t-152.5 40.5t-107.5 52t-69 55l178 281q43 -41 104.5 -69t128.5 -40t133 -6t119 33.5t87.5 78t37.5 128.5q-51 -23 -108 -35t-122 -13
q-128 -1 -230 34.5t-178.5 97t-127 144.5t-75 176t-24.5 191.5t26 192t76.5 176.5t126 145.5t175.5 98.5t224 36q72 0 134 -14.5t116 -40.5v6v13t0.5 21t1.5 20.5t3 12.5h349zM667 1015q-70 -4 -122 -32.5t-86.5 -73t-51.5 -99.5t-16.5 -112t19.5 -111.5t55.5 -97
t91.5 -68.5t129 -26q73 0 127.5 27t90 72t52.5 102t15 116t-22 115.5t-58 99.5t-94 67.5t-130 20.5z" />
    <glyph glyph-name="N" unicode="N" horiz-adv-x="1615" 
d="M1545 41l-330 -44q-23 31 -71.5 99.5t-114 161.5t-143.5 204.5t-159.5 229t-163 234.5t-154.5 221l7 -1168h-355l6 1741l328 35l797 -1116q0 113 0.5 236.5t0.5 245v233.5t0.5 202t1 152t1.5 83h338z" />
    <glyph glyph-name="two" unicode="2" horiz-adv-x="1305" 
d="M85 321q39 24 97.5 69t126.5 105t141.5 131.5t142 149t128.5 158t101 157.5t59.5 147.5t4.5 129.5q-11 48 -54 76t-103 32q-46 3 -99.5 -7.5t-101.5 -39.5t-84.5 -81t-47.5 -133l-321 -2q7 96 41 175.5t86 143t118 110.5t138.5 78t147 45t143.5 12q141 -5 239 -44
t157.5 -102.5t80.5 -146.5t8 -176q-16 -107 -68 -226t-136.5 -245t-199.5 -256.5t-256 -259.5h651v-349l-1140 4v345z" />
    <glyph glyph-name="T" unicode="T" horiz-adv-x="1154" 
d="M1092 1762v-336h-344l6 -1438h-355q0 23 0.5 81t0.5 141v185.5t0.5 214t0.5 226v222v202v166.5h-342v333z" />
    <glyph glyph-name="B" unicode="B" horiz-adv-x="1399" 
d="M1307 531q-5 -119 -47 -206t-110.5 -147.5t-156.5 -98.5t-185 -59t-197 -28t-191.5 -6t-169.5 6.5t-131 10.5l-4 1751q144 23 286 35t271 4.5t239.5 -38t190 -91.5t123 -157.5t39.5 -235.5q-4 -125 -55 -213.5t-132 -147.5q47 -31 90 -69t75 -85t50 -103t15 -122z
M430 298q23 -4 71.5 -5.5t108 3.5t122 19.5t112.5 42.5t79.5 71.5t24.5 108.5q-4 52 -31 89.5t-69 62.5t-95 39t-109 19t-111.5 2t-102.5 -10v-442zM430 1064q40 -5 94 -4.5t112 7t114 21.5t99.5 40.5t69 62t22.5 87.5q-3 49 -28 85.5t-65 62t-91 40.5t-107 22t-112.5 5.5
t-107.5 -8.5v-421z" />
    <glyph glyph-name="s" unicode="s" 
d="M1070 319q0 -93 -34 -160.5t-91.5 -111.5t-133.5 -66t-160 -24.5t-170.5 13.5t-166.5 48.5t-147 80t-111 107.5l189 240q34 -35 78.5 -64.5t91 -51t93 -32.5t85 -9t65.5 19t37 52q8 31 -23 63.5t-86 69t-125 78t-138.5 88.5t-128.5 101t-94 117q-33 61 -35.5 125
t20 123.5t66 111t103 88.5t130.5 54.5t148 10.5q72 -7 150.5 -30t149.5 -57.5t129.5 -77t91.5 -88.5l-194 -234q-49 51 -110 88.5t-118.5 54.5t-103.5 12t-64 -39q-10 -19 -3.5 -37.5t23 -36t40 -34t49 -30.5t49 -25.5t39.5 -18.5q84 -33 158.5 -83.5t130.5 -116.5
t88.5 -146t32.5 -172z" />
    <glyph glyph-name="three" unicode="3" horiz-adv-x="1332" 
d="M175 1336q-4 81 12.5 146.5t49 116t79.5 86.5t103.5 59t120 33t130.5 8q98 -3 173.5 -31t128.5 -75t84.5 -109.5t41.5 -133.5q8 -58 2 -120t-30 -120t-68.5 -108t-113.5 -83q88 -22 157 -68.5t117 -113.5t72 -151.5t22 -182.5q-2 -92 -28.5 -168t-71.5 -136t-104.5 -104
t-127.5 -72.5t-141.5 -42t-144.5 -11.5q-73 2 -144 19t-135.5 48.5t-119 78.5t-94.5 109.5t-62.5 140.5t-22.5 172h311q3 -50 22.5 -96.5t55.5 -83t87 -59t116 -23.5q58 -1 109 20.5t88.5 57.5t57.5 83.5t17 97.5q-5 71 -36.5 125.5t-86.5 92t-131.5 58.5t-170.5 25v307
q92 -2 157.5 25t105 68t53 90t0.5 90.5t-52.5 69t-104.5 26.5q-46 0 -81.5 -13.5t-61 -36.5t-41 -54t-19.5 -65z" />
    <glyph glyph-name="U" unicode="U" horiz-adv-x="1369" 
d="M681 -20q-112 0 -197.5 33.5t-149.5 96t-108 152.5t-73 203.5t-45.5 248.5t-23.5 288q-8 170 -9.5 357t-0.5 391h324q1 -218 1.5 -400t4.5 -332q5 -186 19.5 -321.5t46 -223.5t82.5 -130t129 -40q72 2 122.5 43t84 122.5t51.5 203.5t25 285q7 160 6 357t-9 436h328
q2 -209 3.5 -407t-7.5 -380q-7 -142 -23 -270.5t-45.5 -238t-74.5 -197.5t-109.5 -149.5t-151.5 -94.5t-200 -33z" />
    <glyph glyph-name="C" unicode="C" horiz-adv-x="1383" 
d="M1315 235q-39 -56 -98 -106.5t-130.5 -88.5t-152 -61.5t-162.5 -24.5q-124 -2 -225.5 31.5t-180 95t-136 147.5t-94 190t-54 222.5t-15.5 243.5q2 137 27 257t70.5 221t110.5 180t145 134t174.5 84t200.5 29q87 0 167.5 -20.5t148 -60t117.5 -97t76 -132.5l-300 -144
q-33 59 -93 90.5t-155 24.5q-69 -5 -134.5 -45t-117.5 -111t-85 -171.5t-39 -227.5q-7 -155 21.5 -270t80.5 -191t120.5 -114t142.5 -38q40 0 84.5 13.5t85.5 35t75.5 48t55.5 52.5z" />
    <glyph glyph-name="h" unicode="h" horiz-adv-x="1263" 
d="M408 1193q16 8 32 15t33 14q166 67 292 70t214.5 -61t139 -198t64.5 -342q5 -72 7.5 -155t3.5 -173t-1 -185t-6 -189h-331q4 92 7.5 184t5.5 177t1.5 158.5t-3.5 129.5q-6 97 -23.5 165t-54.5 104.5t-96.5 39t-149.5 -32.5q-76 -29 -132 -72l5 -853h-355q0 35 0.5 103.5
t1 161t0.5 203.5v231t0.5 243.5t0.5 240t0.5 221.5t0.5 188.5t0.5 139.5t1.5 76h338z" />
    <glyph glyph-name="t" unicode="t" horiz-adv-x="1003" 
d="M324 1313q0 72 0.5 141t1 125.5t1 96.5t0.5 55h338l2 -418h272v-346h-269l6 -987h-355q0 30 0.5 88.5t0.5 136.5t0.5 171t0.5 192.5v201v197.5h-266v346h267z" />
    <glyph glyph-name="four" unicode="4" horiz-adv-x="1433" 
d="M420 718h406l4 1068h338l6 -1068h181v-354l-178 1l2 -391h-355l1 396l-744 7v1248h338z" />
    <glyph glyph-name="D" unicode="D" horiz-adv-x="1404" 
d="M1325 897q4 -150 -35 -280t-115 -236t-186.5 -185t-248 -128t-300 -65t-343.5 5v1777q170 16 325.5 4.5t290 -53t245 -113t190.5 -176t125.5 -241.5t51.5 -309zM1015 825q2 122 -29.5 234.5t-103 201t-187 145.5t-281.5 69l7 -1193q133 9 242 54.5t186.5 118.5
t120.5 167.5t45 202.5z" />
    <glyph glyph-name="i" unicode="i" horiz-adv-x="520" 
d="M270 1350q-69 -2 -114.5 25.5t-69 69.5t-24 92t21.5 93t66.5 72t111.5 29q61 0 103 -27.5t64.5 -69.5t24 -90.5t-18 -91t-60.5 -71.5t-105 -31zM433 -7h-355l14 1259h338z" />
    <glyph glyph-name="V" unicode="V" horiz-adv-x="1654" 
d="M842 522l436 1257l315 -124q-6 -19 -23.5 -71.5t-43.5 -129t-59 -173.5t-69.5 -204.5t-75.5 -221t-77 -223.5t-73.5 -212.5t-65 -188t-51.5 -149t-33 -96.5h-337q-14 32 -38.5 95t-56 148.5t-68 188.5t-76 213.5t-79.5 225t-77.5 222.5t-71 205.5t-60 175t-44.5 130
t-24 71.5l315 124z" />
    <glyph glyph-name="u" unicode="u" horiz-adv-x="1260" 
d="M851 85q-16 -8 -32 -15t-33 -14q-166 -67 -292 -70t-214.5 61t-139 198t-64.5 342q-5 72 -7.5 166t-3.5 197.5t1 209t6 200.5h331q-2 -62 -4.5 -128.5t-4.5 -134.5t-3.5 -134t-2 -125.5t0.5 -110t3 -87.5q6 -97 23.5 -165t54.5 -104.5t96.5 -39t149.5 32.5q76 29 132 72
l-5 924h355q-1 -44 -1 -120.5t-0.5 -174t-0.5 -208.5t-0.5 -223t-0.5 -218t-0.5 -194t-1 -150.5t-1.5 -86.5h-338z" />
    <glyph glyph-name="O" unicode="O" horiz-adv-x="1717" 
d="M893 -61q-165 -2 -296.5 49t-229.5 139.5t-163 207t-97 252.5t-31.5 275t33.5 275t98 253t162.5 208.5t226 141t288.5 51.5q153 0 275 -52t213.5 -140.5t152 -207t91 -251t30.5 -273t-30.5 -273.5t-91 -251.5t-150.5 -207.5t-210.5 -142t-270.5 -54zM840 1433
q-110 -7 -192.5 -60t-137.5 -134.5t-82 -184t-26 -208t30.5 -206t87.5 -179.5t145 -127t203 -49q84 -1 152.5 32t120 89t86.5 131.5t52.5 160t17.5 173t-17.5 172t-53.5 157t-91 127t-128.5 82.5t-166.5 24z" />
    <glyph glyph-name="j" unicode="j" horiz-adv-x="544" 
d="M451 1234q4 -122 6.5 -236t3.5 -216.5t0 -191t-3 -158.5q-5 -195 -28.5 -347t-77.5 -261q-59 -119 -162.5 -185t-266.5 -75q-51 -3 -109 6t-111 26.5t-96 42.5t-64 55l171 258q40 -28 77 -41q55 -20 101 -17t82.5 25.5t62 64t39.5 98.5q17 69 23.5 159t9.5 196
q4 133 1.5 332.5t-14.5 464.5h355zM276 1352q-69 -2 -114.5 25.5t-69 69.5t-24 92t21.5 93t66.5 72t111.5 29q61 0 103 -27.5t64.5 -69.5t24 -90.5t-18 -91t-60.5 -71.5t-105 -31z" />
    <glyph glyph-name="E" unicode="E" horiz-adv-x="1210" 
d="M412 1040l566 2v-355l-565 6l1 -366h712v-343q-133 2 -401 1t-660 -1l5 1804h1056v-343h-715z" />
    <glyph glyph-name="v" unicode="v" horiz-adv-x="1529" 
d="M767 389l395 943l304 -132q-11 -22 -35 -77.5t-56.5 -134t-72 -173t-81.5 -194t-83.5 -198t-79 -185t-68 -154.5t-50.5 -107h-331q-16 40 -46 109.5t-68 156.5t-81.5 186.5t-88 199t-87 194t-78 172.5t-61 133.5t-36.5 77.5l304 125z" />
    <glyph glyph-name="bracketleft" unicode="[" horiz-adv-x="731" 
d="M414 85h268v-343q-44 1 -71 1h-52h-57t-85.5 -0.5t-137.5 -0.5h-214l5 2311h612v-343h-271z" />
    <glyph glyph-name="F" unicode="F" horiz-adv-x="1220" 
d="M412 1033l566 2v-355l-565 6l1 -709h-349l5 1804h1056v-343h-715z" />
    <glyph glyph-name="dollar" unicode="$" horiz-adv-x="1222" 
d="M899 1674q28 -21 62 -49t65.5 -58t58 -58.5t41.5 -49.5l-260 -199q-8 10 -16.5 19.5t-17.5 18.5l-60 -339q44 -36 86.5 -72.5t80 -72.5t68 -72t50.5 -70q32 -57 51 -117t19 -127q0 -118 -38 -205.5t-101.5 -145.5t-146.5 -87t-172 -29q-19 0 -37 1.5t-37 3.5l-13 -74
l-349 67l26 140q-57 41 -107 91.5t-89 110.5l217 209q22 -32 46 -57l74 396q-47 36 -91.5 73.5t-83 76t-69.5 78.5t-50 82q-45 99 -40 200.5t53 189.5q36 67 86.5 115.5t110 78.5t126 42t135.5 7l13 70l336 -37zM740 537l-16 24t-19 24l-54 -302q54 1 81.5 28.5t35.5 67
t-0.5 82.5t-27.5 76zM418 1397q-17 -38 -1 -80t54 -89l42 227q-34 -2 -58.5 -17t-36.5 -41z" />
    <glyph glyph-name="exclam" unicode="!" horiz-adv-x="552" 
d="M264 359q69 2 114.5 -25.5t69 -69.5t24 -92t-21.5 -93t-66.5 -72t-111.5 -29q-61 0 -103 27.5t-64.5 69.5t-24 90.5t18 91t60.5 71.5t105 31zM98 1787h355l-11 -1320h-338z" />
    <glyph glyph-name="colon" unicode=":" horiz-adv-x="633" 
d="M326 893q-69 -2 -114.5 25.5t-69 69.5t-24 92t21.5 93t66.5 72t111.5 29q61 0 103 -27.5t64.5 -69.5t24 -90.5t-18 -91t-60.5 -71.5t-105 -31zM328 334q-69 -2 -114.5 25.5t-69 69.5t-24 92t21.5 93t66.5 72t111.5 29q61 0 103 -27.5t64.5 -69.5t24 -90.5t-18 -91
t-60.5 -71.5t-105 -31z" />
    <glyph glyph-name="one" unicode="1" horiz-adv-x="483" 
d="M416 -13h-355l6 1817h338z" />
    <glyph glyph-name="less" unicode="&#x3c;" horiz-adv-x="1161" 
d="M585 809l422 -233l-131 -304l-703 364v331l720 370l131 -304z" />
    <glyph glyph-name="greater" unicode="&#x3e;" horiz-adv-x="1139" 
d="M146 1033l131 304l714 -370v-331l-697 -364l-131 304l422 233z" />
    <glyph glyph-name="guilsinglright" unicode="&#x203a;" horiz-adv-x="1139" 
d="M173 867l131 304l714 -370l6 -331l-703 -364l-131 304l422 233z" />
    <glyph glyph-name="guillemotright" unicode="&#xbb;" horiz-adv-x="2035" 
d="M173 867l131 304l714 -370l6 -331l-703 -364l-131 304l422 233zM1028 880l131 304l714 -370l6 -331l-703 -364l-131 304l422 233z" />
    <glyph glyph-name="guillemotleft" unicode="&#xab;" horiz-adv-x="2065" 
d="M1450 813l422 -233l-131 -304l-686 355v345l703 365l131 -304zM585 809l422 -233l-131 -304l-685 354v347l702 364l131 -304z" />
    <glyph glyph-name="guilsinglleft" unicode="&#x2039;" horiz-adv-x="1102" 
d="M549 662l422 -233l-131 -304l-703 364v331l720 370l131 -304z" />
    <glyph glyph-name="parenleft" unicode="(" horiz-adv-x="755" 
d="M423 -260q-37 50 -78 108.5t-80.5 130.5t-75 161t-62.5 199.5t-43 245t-17 298.5q0 108 17.5 242t59 279t110.5 293.5t171 283.5l257 -160q-106 -139 -165.5 -272t-88.5 -252t-37 -221.5t-11 -180.5q-5 -119 8 -229t37 -208t56.5 -182t67 -150t68 -113.5t60.5 -71.5z" />
    <glyph glyph-name="parenright" unicode=")" horiz-adv-x="780" 
d="M90 -59q26 24 60 71.5t68.5 113.5t67 150t56.5 182t37 208t8 229q-3 78 -11 180.5t-37 221.5t-88.5 252t-165.5 272l257 160q102 -135 171 -283.5t110.5 -293.5t59 -279t17.5 -242q-1 -164 -17 -298.5t-43 -245t-62.5 -199.5t-75 -161t-80.5 -130.5t-78 -108.5z" />
    <glyph glyph-name="quotedbl" unicode="&#x22;" horiz-adv-x="1287" 
d="M537 1504q45 -78 65 -150.5t17 -144t-29.5 -143.5t-75.5 -149l-284 100q36 55 54 98.5t23.5 78t0.5 61.5t-14 49.5t-20.5 43t-18.5 41.5zM970 1508q45 -78 64.5 -150t16 -143t-30 -143.5t-73.5 -150.5l-284 100q36 55 54 98.5t23.5 78t0.5 61.5t-14 49.5t-20.5 43
t-18.5 41.5z" />
    <glyph glyph-name="comma" unicode="," horiz-adv-x="577" 
d="M407 381q45 -78 65 -150.5t17 -144t-29.5 -143.5t-75.5 -149l-284 100q36 55 54 98.5t23.5 78t0.5 61.5t-14 49.5t-20.5 43t-18.5 41.5z" />
    <glyph glyph-name="semicolon" unicode=";" horiz-adv-x="661" 
d="M349 510q-69 -2 -114.5 25.5t-69 69.5t-24 92t21.5 93t66.5 72t111.5 29q61 0 103 -27.5t64.5 -69.5t24 -90.5t-18 -91t-60.5 -71.5t-105 -31zM508 385q45 -78 65 -150.5t17 -144t-29.5 -143.5t-75.5 -149l-284 100q36 55 54 98.5t23.5 78t0.5 61.5t-14 49.5t-20.5 43
t-18.5 41.5z" />
    <glyph glyph-name="quotedblright" unicode="&#x201d;" horiz-adv-x="1034" 
d="M424 1504q45 -78 65 -150.5t17 -144t-29.5 -143.5t-75.5 -149l-284 100q36 55 54 98.5t23.5 78t0.5 61.5t-14 49.5t-20.5 43t-18.5 41.5zM857 1508q45 -78 65 -150.5t17 -144t-29.5 -143.5t-75.5 -149l-284 100q36 55 54 98.5t23.5 78t0.5 61.5t-14 49.5t-20.5 43
t-18.5 41.5z" />
    <glyph glyph-name="quotedblleft" unicode="&#x201c;" horiz-adv-x="1012" 
d="M598 861q-45 78 -65 150.5t-17 144t29.5 143.5t75.5 149l284 -100q-36 -56 -54 -99t-23.5 -77.5t-0.5 -61.5t14 -49.5t20 -43t19 -41.5zM165 857q-45 78 -65 150.5t-17 144t29.5 143.5t75.5 149l284 -100q-36 -56 -54 -99t-23.5 -77.5t-0.5 -61.5t14 -49.5t20 -43
t19 -41.5z" />
    <glyph glyph-name="quoteright" unicode="&#x2019;" horiz-adv-x="666" 
d="M445 1504q45 -78 65 -150.5t17 -144t-29.5 -143.5t-75.5 -149l-284 100q36 55 54 98.5t23.5 78t0.5 61.5t-14 49.5t-20.5 43t-18.5 41.5z" />
    <glyph glyph-name="quoteleft" unicode="&#x2018;" horiz-adv-x="666" 
d="M460 1389q-8 -21 -19 -41.5t-20 -43t-14 -49.5t0.5 -61.5t23.5 -78t54 -98.5l-284 -100q-49 77 -75.5 149t-29.5 143.5t17 144t65 150.5z" />
    <glyph glyph-name="quotesinglbase" unicode="&#x201a;" horiz-adv-x="666" 
d="M445 434q45 -78 64 -162t13 -165.5t-36.5 -157t-85.5 -136.5l-262 134q36 55 54 98.5t23.5 78t0.5 61.5t-14 49.5t-20.5 43t-18.5 41.5z" />
    <glyph glyph-name="quotedblbase" unicode="&#x201e;" horiz-adv-x="1074" 
d="M452 471q45 -78 65 -150.5t17 -144t-29.5 -143.5t-75.5 -149l-284 100q36 55 54 98.5t23.5 78t0.5 61.5t-14 49.5t-20.5 43t-18.5 41.5zM885 475q89 -155 79 -313t-108 -312l-284 100q36 55 54.5 101.5t24.5 85t2 70.5t-12.5 59t-19.5 50t-18 44z" />
    <glyph glyph-name="hyphen" unicode="-" horiz-adv-x="968" 
d="M841 1025v-349l-736 1v341z" />
    <glyph glyph-name="underscore" unicode="_" horiz-adv-x="922" 
d="M876 283v-342h-809v342h809z" />
    <glyph glyph-name="equal" unicode="=" horiz-adv-x="1001" 
d="M874 1188v-349l-747 1v341zM874 739v-349l-747 1v341z" />
    <glyph glyph-name="dieresis" unicode="&#xa8;" horiz-adv-x="922" 
d="M315 1500q-42 -1 -70.5 16t-42.5 44t-14 58.5t13.5 59t41 46t68.5 18.5q37 0 63 -17.5t40 -44t15 -57.5t-11 -58t-37.5 -45.5t-65.5 -19.5zM607 1495q-42 -1 -70.5 16.5t-43 44t-15 58.5t13 59t41 45.5t68.5 18.5q38 0 64 -17.5t40 -44t15 -57.5t-11 -58t-37.5 -45.5
t-64.5 -19.5z" />
    <glyph glyph-name="numbersign" unicode="#" horiz-adv-x="1463" 
d="M172 562v304l192 1l1 113h-193v304l195 1l1 179h310q2 -10 2 -16l-2 -161l107 1l1 176h309l1 -174l174 1v-311q-4 -1 -12 -1h-167l-1 -107l180 1v-311q-4 -1 -12 -1h-173l-3 -214h-304l1 214h-112l-3 -214h-304l1 215h-189zM671 869l111 1l1 109h-110z" />
    <glyph glyph-name="endash" unicode="&#x2013;" horiz-adv-x="882" 
d="M749 1021v-349l-641 5v341z" />
    <glyph glyph-name="emdash" unicode="&#x2014;" horiz-adv-x="1355" 
d="M1193 1021v-349l-1085 5v341z" />
    <glyph glyph-name="exclamdown" unicode="&#xa1;" horiz-adv-x="553" 
d="M266.016 1294.02q-68.9951 -2 -114.492 25.499q-45.498 27.498 -68.9961 69.4951q-23.499 41.998 -23.999 91.9951q-0.499023 49.9971 21.499 92.9941q21.999 42.9971 66.4961 71.9951q44.4971 28.999 111.493 28.999q60.9961 0 102.994 -27.499
q41.9971 -27.498 64.4961 -69.4951q22.498 -41.998 23.998 -90.4951t-17.999 -90.9941t-60.4961 -71.4961q-40.998 -28.998 -104.994 -30.998zM432.006 -133.891h-354.979l11 1319.92h337.979z" />
    <glyph glyph-name="cent" unicode="&#xa2;" horiz-adv-x="1522" 
d="M645 192q-114 30 -198.5 95t-141 152.5t-84 191.5t-27 211t28.5 211t84.5 192t140 153.5t194.5 96.5v122h330l1 -116q124 -30 218 -105t140 -187l-300 -144q-21 38 -53 65l7 -561q27 19 50 40.5t40 42.5l269 -196q-29 -42 -67 -81t-83 -73.5t-96.5 -61.5t-107.5 -45
l1 -128h-346v125zM643 1130q-45 -32 -75.5 -79t-45.5 -101.5t-15 -112.5t15 -112t45.5 -100.5t76.5 -76.5z" />
    <glyph glyph-name="questiondown" unicode="&#xbf;" horiz-adv-x="1320" 
d="M870.027 682.056q-92.9941 11.999 -177.989 -10.499q-84.9951 -22.499 -150.991 -66.9961t-106.493 -104.994q-40.4971 -60.4961 -44.4971 -124.492q-3 -49.9961 16.999 -97.4941q19.998 -47.4971 57.4961 -83.4941q37.498 -35.998 88.4951 -57.4971
q50.9961 -21.499 108.993 -20.499q64.9961 1 115.993 23.499q50.9961 22.499 86.9941 58.9961q35.998 36.498 55.4971 83.4951q19.498 46.9971 22.498 95.9941l310.981 11.999q0 -93.9941 -22.499 -172.489t-62.4961 -142.491t-94.4941 -112.493t-118.993 -81.9951
t-135.491 -50.9971q-70.9961 -17.498 -143.991 -19.498q-70.9961 -2 -144.491 11.499t-141.491 41.9971t-127.492 72.4961q-59.4961 43.9971 -104.494 103.993q-44.9971 59.9971 -71.4951 135.992q-26.499 75.9951 -28.499 167.989q-1.99902 97.9941 26.999 190.988
t90.9941 170.49q61.9961 77.4951 157.49 134.491q95.4941 56.9971 227.486 82.9951l-4 210.987h312.981v-451.973zM712.037 1233.02q-68.9961 -2 -114.493 25.498t-68.9961 69.4961q-23.498 41.9971 -23.998 91.9941t21.498 92.9941q21.999 42.9971 66.4961 71.9961
q44.4971 28.998 111.493 28.998q60.9961 0 102.994 -27.498q41.9971 -27.499 64.4961 -69.4961q22.498 -41.9971 23.998 -90.4941t-17.999 -90.9951q-19.499 -42.4971 -60.4961 -71.4951q-40.9971 -28.999 -104.993 -30.998z" />
    <glyph glyph-name="bar" unicode="|" horiz-adv-x="496" 
d="M421 -151h-355l14 2016h338z" />
    <glyph glyph-name="backslash" unicode="\" horiz-adv-x="919" 
d="M22 1715l327 89l551 -1753l-334 -121z" />
    <glyph glyph-name="slash" unicode="/" horiz-adv-x="969" 
d="M393 -70l-334 121l561 1755l327 -89z" />
    <glyph glyph-name="Euro" unicode="&#x20ac;" horiz-adv-x="1576" 
d="M180 940v341l116 1q41 121 106 217t150.5 163t189 102.5t220.5 35.5q87 0 167.5 -20.5t148 -60t117.5 -97t76 -132.5l-300 -144q-33 59 -93 90.5t-155 24.5q-75 -6 -144 -50.5t-122 -125.5l272 2v-348h-380q-1 -8 -1.5 -16.5t-0.5 -16.5q-1 -19 -1.5 -36.5t0.5 -34.5
l383 3v-348h-307q52 -99 129 -148t161 -49q40 0 84.5 13.5t85.5 35t75.5 48t55.5 52.5l269 -196q-39 -56 -98 -106.5t-130.5 -88.5t-152 -61.5t-162.5 -24.5q-134 -2 -240.5 36.5t-187.5 108.5t-137.5 167.5t-89.5 213.5h-104v341h54q0 16 -0.5 31.5t0.5 31.5v22.5t1 22.5
h-55z" />
    <glyph glyph-name="percent" unicode="%" horiz-adv-x="1071" 
d="M436 -32l-334 121l539 1717l327 -89zM826 -14q-69 -2 -114.5 25.5t-69 69.5t-24 92t21.5 93t66.5 72t111.5 29q61 0 103 -27.5t64.5 -69.5t24 -90.5t-18 -91t-60.5 -71.5t-105 -31zM270 1363q-69 -2 -114.5 25.5t-69 69.5t-24 92t21.5 93t66.5 72t111.5 29
q61 0 103 -27.5t64.5 -69.5t24 -90.5t-18 -91t-60.5 -71.5t-105 -31z" />
    <glyph glyph-name="asciitilde" unicode="~" 
d="M85 740q37 68 76.5 109.5t80 63t82.5 24.5t85 -7t87 -30.5t89 -46.5q52 -30 84.5 -34t55.5 9.5t41 41t41 60.5l230 -108q-40 -85 -96.5 -146t-123 -90.5t-139.5 -22.5t-145 57q-43 29 -79 49.5t-67.5 22t-60.5 -22.5t-58 -83z" />
    <glyph glyph-name="tilde" unicode="&#x2dc;" horiz-adv-x="1128" 
d="M270 1631q39 69 80 100t84 34.5t88 -13.5t91 -44q36 -21 58 -25.5t38 2.5t28 23.5l28 38.5l158 -74q-27 -58 -66 -97.5t-84.5 -56.5t-95.5 -10.5t-100 40.5q-29 20 -54 34t-46.5 15t-41.5 -15.5t-39 -56.5z" />
    <glyph glyph-name="fraction" unicode="&#x2044;" horiz-adv-x="969" 
d="M393 -70l-334 121l561 1763l327 -89z" />
    <glyph glyph-name="dotlessi" unicode="&#x131;" horiz-adv-x="512" 
d="M433 -11h-355l14 1266h338z" />
    <glyph glyph-name="cedilla" unicode="&#xb8;" horiz-adv-x="574" 
d="M167 -208q13 -9 33 -18t42.5 -15.5t44.5 -9.5t39.5 0.5t28 14.5t9.5 33q-1 21 -18 34t-41.5 20t-53 10t-53 4t-40.5 2.5t-15 5.5l10 162l142 -3q0 -6 -2 -16.5t-3.5 -22.5t-1 -23.5t6.5 -18.5q107 -6 168 -49t60 -113q-1 -39 -21 -68.5t-52.5 -50t-73.5 -31t-83.5 -12
t-83 7.5t-72.5 28v2z" />
    <glyph glyph-name="bullet" unicode="&#x2022;" horiz-adv-x="621" 
d="M340 610q-69 -2 -114.5 25.5t-69 69.5t-24 92t21.5 93t66.5 72t111.5 29q61 0 103 -27.5t64.5 -69.5t24 -90.5t-18 -91t-60.5 -71.5t-105 -31z" />
    <glyph glyph-name="dotaccent" unicode="&#x2d9;" horiz-adv-x="532" 
d="M265 1492q-44 -2 -73.5 16t-44.5 45.5t-15.5 60t14 60.5t43 46.5t71.5 18.5q39 0 66 -18t41.5 -45t15.5 -58.5t-11.5 -59t-39 -46.5t-67.5 -20z" />
    <glyph glyph-name="grave" unicode="`" horiz-adv-x="426" 
d="M375 1539l-138 -109l-156 207l138 102z" />
    <glyph glyph-name="acute" unicode="&#xb4;" horiz-adv-x="459" 
d="M232 1761l138 -102l-166 -210l-128 112z" />
    <glyph glyph-name="hungarumlaut" unicode="&#x2dd;" horiz-adv-x="750" 
d="M258 1734l138 -102l-155 -185l-139 87zM539 1715l138 -102l-146 -193l-148 95z" />
    <glyph glyph-name="asciicircum" unicode="^" horiz-adv-x="675" 
d="M326 829l-45 -104l-210 83l129 298h225l157 -290l-204 -94z" />
    <glyph glyph-name="circumflex" unicode="&#x2c6;" horiz-adv-x="690" 
d="M335 1547l-45 -104l-210 83l129 298h225l157 -290l-204 -94z" />
    <glyph glyph-name="caron" unicode="&#x2c7;" horiz-adv-x="704" 
d="M371 1736l35 68l163 -55l-101 -195l-174 -2l-122 192l158 62z" />
    <glyph glyph-name="ogonek" unicode="&#x2db;" horiz-adv-x="458" 
d="M302 54q-11 -32 -18 -67.5t0.5 -67t33 -55t79.5 -30.5l-57 -210q-109 17 -168 69t-76 122t4 150t72 154z" />
    <glyph glyph-name="breve" unicode="&#x2d8;" horiz-adv-x="839" 
d="M709 1545q-29 -27 -77.5 -45t-107 -28t-122 -11t-122.5 7t-108 25.5t-78 44.5l97 172q32 -29 71.5 -42.5t80.5 -15.5t81.5 4t75 16t60.5 21t39 18z" />
    <glyph glyph-name="ring" unicode="&#x2da;" horiz-adv-x="534" 
d="M283 1447q-69 -2 -114.5 25.5t-69 69.5t-24 92t21.5 93t66.5 72t111.5 29q61 0 103 -27.5t64.5 -69.5t24 -90.5t-18 -91t-60.5 -71.5t-105 -31zM276 1599q22 0 32.5 13t10 28t-12 27.5t-33.5 12.5q-23 0 -34.5 -13t-11.5 -28.5t12.5 -28t36.5 -11.5z" />
    <glyph glyph-name="macron" unicode="&#xaf;" horiz-adv-x="887" 
d="M187 1697l468 3v-188h-468v185z" />
    <glyph glyph-name="ellipsis" unicode="&#x2026;" horiz-adv-x="1481" 
d="M290 -9q-69 -2 -114.5 25.5t-69 69.5t-24 92t21.5 93t66.5 72t111.5 29q61 0 103 -27.5t64.5 -69.5t24 -90.5t-18 -91t-60.5 -71.5t-105 -31zM757 -9q-69 -2 -114.5 25.5t-69 69.5t-24 92t21.5 93t66.5 72t111.5 29q61 0 103 -27.5t64.5 -69.5t24 -90.5t-18 -91
t-60.5 -71.5t-105 -31zM1224 -9q-69 -2 -114.5 25.5t-69 69.5t-24 92t21.5 93t66.5 72t111.5 29q61 0 103 -27.5t64.5 -69.5t24 -90.5t-18 -91t-60.5 -71.5t-105 -31z" />
    <glyph glyph-name="minus" unicode="&#x2212;" horiz-adv-x="968" 
d="M111 1018l771 6v-348l-771 1v341z" />
    <glyph glyph-name="registered" unicode="&#xae;" horiz-adv-x="2100" 
d="M1103 -38q-197 -2 -353.5 50t-273.5 142t-194.5 211t-116 257t-37.5 279.5t40.5 280t117 257.5t193 211.5t269 143.5t344.5 52q182 0 327.5 -53t254.5 -143t181 -210t108.5 -255t36.5 -278t-36 -278t-108 -256t-180 -211.5t-251 -144.5t-322 -55zM1055 1553
q-116 -6 -209 -46t-162.5 -103.5t-116 -146.5t-69 -175t-21 -188.5t26.5 -187.5t74 -172t123 -141.5t171.5 -96t220.5 -36.5q111 -1 201 36t158 100.5t114 148.5t69.5 180t23.5 195t-23.5 194t-71.5 176.5t-120 143t-169 93t-220 26.5zM779 1423q135 19 254.5 13.5
t209.5 -41.5t144 -106t59 -179q4 -77 -23 -131.5t-71 -90t-99.5 -55.5t-109.5 -28l324 -285l-132 -143l-368 334l5 -310h-194zM975 982q13 -2 39 -3t58.5 2t66 10.5t60.5 23t43 39.5t13 59q-3 40 -32 65.5t-71 38t-90 14.5t-90 -4z" />
    <glyph glyph-name="commaaccent" horiz-adv-x="469" 
d="M291 -51q46 -80 42 -150.5t-54 -149.5l-146 51q28 43 36 72t5 50t-12.5 37t-15.5 32z" />
    <glyph glyph-name="Aacute" unicode="&#xc1;" horiz-adv-x="1661" 
d="M1146 372l-594 4l-139 -431l-315 124q6 19 23.5 72.5t44 133.5t59.5 180.5t69.5 212t75.5 229t77 232t73 220.5t64.5 194t51.5 153.5t33 98.5l337 3q14 -32 38.5 -97t56 -153t68 -194.5t76 -222t79.5 -234t77.5 -231t71 -214t60 -182t44.5 -134.5t24 -73l-315 -124z
M677 715l344 -1l-172 548zM840 2166l138 -102l-166 -210l-128 112z" />
    <glyph glyph-name="Abreve" unicode="&#x102;" horiz-adv-x="1661" 
d="M1146 372l-594 4l-139 -431l-315 124q6 19 23.5 72.5t44 133.5t59.5 180.5t69.5 212t75.5 229t77 232t73 220.5t64.5 194t51.5 153.5t33 98.5l337 3q14 -32 38.5 -97t56 -153t68 -194.5t76 -222t79.5 -234t77.5 -231t71 -214t60 -182t44.5 -134.5t24 -73l-315 -124z
M677 715l344 -1l-172 548zM1130 1966q-29 -27 -77.5 -45t-107 -28t-122 -11t-122.5 7t-108 25.5t-78 44.5l97 172q32 -29 71.5 -42.5t80.5 -15.5t81.5 4t75 16t60.5 21t39 18z" />
    <glyph glyph-name="Acircumflex" unicode="&#xc2;" horiz-adv-x="1661" 
d="M1146 372l-594 4l-139 -431l-315 124q6 19 23.5 72.5t44 133.5t59.5 180.5t69.5 212t75.5 229t77 232t73 220.5t64.5 194t51.5 153.5t33 98.5l337 3q14 -32 38.5 -97t56 -153t68 -194.5t76 -222t79.5 -234t77.5 -231t71 -214t60 -182t44.5 -134.5t24 -73l-315 -124z
M677 715l344 -1l-172 548zM850 1951l-45 -104l-210 83l129 298h225l157 -290l-204 -94z" />
    <glyph glyph-name="Agrave" unicode="&#xc0;" horiz-adv-x="1661" 
d="M1146 372l-594 4l-139 -431l-315 124q6 19 23.5 72.5t44 133.5t59.5 180.5t69.5 212t75.5 229t77 232t73 220.5t64.5 194t51.5 153.5t33 98.5l337 3q14 -32 38.5 -97t56 -153t68 -194.5t76 -222t79.5 -234t77.5 -231t71 -214t60 -182t44.5 -134.5t24 -73l-315 -124z
M677 715l344 -1l-172 548zM970 1922l-138 -109l-156 207l138 102z" />
    <glyph glyph-name="Adieresis" unicode="&#xc4;" horiz-adv-x="1661" 
d="M1146 372l-594 4l-139 -431l-315 124q6 19 23.5 72.5t44 133.5t59.5 180.5t69.5 212t75.5 229t77 232t73 220.5t64.5 194t51.5 153.5t33 98.5l337 3q14 -32 38.5 -97t56 -153t68 -194.5t76 -222t79.5 -234t77.5 -231t71 -214t60 -182t44.5 -134.5t24 -73l-315 -124z
M677 715l344 -1l-172 548zM671 1883q-42 -1 -70.5 16t-42.5 44t-14 58.5t13.5 59t41 46t68.5 18.5q37 0 63 -17.5t40 -44t15 -57.5t-11 -58t-37.5 -45.5t-65.5 -19.5zM963 1878q-42 -1 -70.5 16.5t-43 44t-15 58.5t13 59t41 45.5t68.5 18.5q38 0 64 -17.5t40 -44t15 -57.5
t-11 -58t-37.5 -45.5t-64.5 -19.5z" />
    <glyph glyph-name="Aring" unicode="&#xc5;" horiz-adv-x="1661" 
d="M1146 372l-594 4l-139 -431l-315 124q6 19 23.5 72.5t44 133.5t59.5 180.5t69.5 212t75.5 229t77 232t73 220.5t64.5 194t51.5 153.5t33 98.5l337 3q14 -32 38.5 -97t56 -153t68 -194.5t76 -222t79.5 -234t77.5 -231t71 -214t60 -182t44.5 -134.5t24 -73l-315 -124z
M677 715l344 -1l-172 548zM840 1830q-69 -2 -114.5 25.5t-69 69.5t-24 92t21.5 93t66.5 72t111.5 29q61 0 103 -27.5t64.5 -69.5t24 -90.5t-18 -91t-60.5 -71.5t-105 -31zM833 1982q22 0 32.5 13t10 28t-12 27.5t-33.5 12.5q-23 0 -34.5 -13t-11.5 -28.5t12.5 -28
t36.5 -11.5z" />
    <glyph glyph-name="Amacron" unicode="&#x100;" horiz-adv-x="1661" 
d="M1146 372l-594 4l-139 -431l-315 124q6 19 23.5 72.5t44 133.5t59.5 180.5t69.5 212t75.5 229t77 232t73 220.5t64.5 194t51.5 153.5t33 98.5l337 3q14 -32 38.5 -97t56 -153t68 -194.5t76 -222t79.5 -234t77.5 -231t71 -214t60 -182t44.5 -134.5t24 -73l-315 -124z
M677 715l344 -1l-172 548zM615 2091l468 3v-188h-468v185z" />
    <glyph glyph-name="Aogonek" unicode="&#x104;" horiz-adv-x="1661" 
d="M1393 -35q0 -21 6 -39.5t19.5 -34t35.5 -26.5t55 -15l-57 -210q-97 15 -154 58t-80.5 101.5t-15.5 128t41 137.5l-113 307l-594 4l-139 -377l-315 124q6 19 23.5 70t44 126t59.5 169.5t69.5 199t75.5 215t77 218.5t73 208t64.5 183.5t51.5 146t33 95.5l337 3
q14 -32 38.5 -94t56 -146t68 -184.5t76 -208.5t79.5 -220t77.5 -217.5t71 -200.5t60 -171t44.5 -127.5t24 -70.5zM661 715l344 -1l-172 507z" />
    <glyph glyph-name="Atilde" unicode="&#xc3;" horiz-adv-x="1661" 
d="M1146 372l-594 4l-139 -431l-315 124q6 19 23.5 72.5t44 133.5t59.5 180.5t69.5 212t75.5 229t77 232t73 220.5t64.5 194t51.5 153.5t33 98.5l337 3q14 -32 38.5 -97t56 -153t68 -194.5t76 -222t79.5 -234t77.5 -231t71 -214t60 -182t44.5 -134.5t24 -73l-315 -124z
M677 715l344 -1l-172 548zM558 2014q39 69 80 100t84 34.5t88 -13.5t91 -44q36 -21 58 -25.5t38 2.5t28 23.5l28 38.5l158 -74q-27 -58 -66 -97.5t-84.5 -56.5t-95.5 -10.5t-100 40.5q-29 20 -54 34t-46.5 15t-41.5 -15.5t-39 -56.5z" />
    <glyph glyph-name="AE" unicode="&#xc6;" horiz-adv-x="2246" 
d="M1448 1033l585 2h1v-353q-5 -1 -10 -1.5t-10 -0.5l-565 6l1 -366h712v-342h-1066l2 415l-511 20l-244 -440l-284 142q11 18 41.5 71t76 130.5t103.5 175.5t122 207t132.5 223.5t135 226t129.5 214t116 187.5t94 147t64 92h1089v-351h-715zM798 745l299 -6l-1 416l-8 49z
" />
    <glyph glyph-name="AEacute" unicode="&#x1fc;" horiz-adv-x="2246" 
d="M1448 1033l585 2h1v-353q-5 -1 -10 -1.5t-10 -0.5l-565 6l1 -366h712v-342h-1066l2 415l-511 20l-244 -440l-284 142q11 18 41.5 71t76 130.5t103.5 175.5t122 207t132.5 223.5t135 226t129.5 214t116 187.5t94 147t64 92h1089v-351h-715zM798 745l299 -6l-1 416l-8 49z
M1685 2171l138 -102l-166 -210l-128 112z" />
    <glyph glyph-name="Cacute" unicode="&#x106;" horiz-adv-x="1383" 
d="M1315 235q-39 -56 -98 -106.5t-130.5 -88.5t-152 -61.5t-162.5 -24.5q-124 -2 -225.5 31.5t-180 95t-136 147.5t-94 190t-54 222.5t-15.5 243.5q2 137 27 257t70.5 221t110.5 180t145 134t174.5 84t200.5 29q87 0 167.5 -20.5t148 -60t117.5 -97t76 -132.5l-300 -144
q-33 59 -93 90.5t-155 24.5q-69 -5 -134.5 -45t-117.5 -111t-85 -171.5t-39 -227.5q-7 -155 21.5 -270t80.5 -191t120.5 -114t142.5 -38q40 0 84.5 13.5t85.5 35t75.5 48t55.5 52.5zM703 2144l138 -102l-166 -210l-128 112z" />
    <glyph glyph-name="Ccaron" unicode="&#x10c;" horiz-adv-x="1383" 
d="M1315 235q-39 -56 -98 -106.5t-130.5 -88.5t-152 -61.5t-162.5 -24.5q-124 -2 -225.5 31.5t-180 95t-136 147.5t-94 190t-54 222.5t-15.5 243.5q2 137 27 257t70.5 221t110.5 180t145 134t174.5 84t200.5 29q87 0 167.5 -20.5t148 -60t117.5 -97t76 -132.5l-300 -144
q-33 59 -93 90.5t-155 24.5q-69 -5 -134.5 -45t-117.5 -111t-85 -171.5t-39 -227.5q-7 -155 21.5 -270t80.5 -191t120.5 -114t142.5 -38q40 0 84.5 13.5t85.5 35t75.5 48t55.5 52.5zM690 2119l35 68l163 -55l-101 -195l-174 -2l-122 192l158 62z" />
    <glyph glyph-name="Ccedilla" unicode="&#xc7;" horiz-adv-x="1383" 
d="M668 -256q13 -9 33 -18t42.5 -15.5t44.5 -9.5t39.5 0.5t28 14.5t9.5 33q-1 21 -18 34t-41.5 20t-53 10t-53 4t-40.5 2.5t-15 5.5l8 137q-155 22 -266.5 104t-183 206.5t-104.5 282t-31 329.5q2 137 27 257t70.5 221t110.5 180t145 134t174.5 84t200.5 29
q87 0 167.5 -20.5t148 -60t117.5 -97t76 -132.5l-300 -144q-33 59 -93 90.5t-155 24.5q-69 -5 -134.5 -45t-117.5 -111t-85 -171.5t-39 -227.5q-7 -155 21.5 -270t80.5 -191t120.5 -114t142.5 -38q40 0 84.5 13.5t85.5 35t75.5 48t55.5 52.5l269 -196q-38 -54 -95 -103
t-125.5 -87t-146 -62t-157.5 -28q-2 -14 -2 -29t7 -23q107 -6 168 -49t60 -113q-1 -39 -21 -68.5t-52.5 -50t-73.5 -31t-83.5 -12t-83 7.5t-72.5 28v2z" />
    <glyph glyph-name="Ccircumflex" unicode="&#x108;" horiz-adv-x="1383" 
d="M1315 235q-39 -56 -98 -106.5t-130.5 -88.5t-152 -61.5t-162.5 -24.5q-124 -2 -225.5 31.5t-180 95t-136 147.5t-94 190t-54 222.5t-15.5 243.5q2 137 27 257t70.5 221t110.5 180t145 134t174.5 84t200.5 29q87 0 167.5 -20.5t148 -60t117.5 -97t76 -132.5l-300 -144
q-33 59 -93 90.5t-155 24.5q-69 -5 -134.5 -45t-117.5 -111t-85 -171.5t-39 -227.5q-7 -155 21.5 -270t80.5 -191t120.5 -114t142.5 -38q40 0 84.5 13.5t85.5 35t75.5 48t55.5 52.5zM673 1930l-45 -104l-210 83l129 298h225l157 -290l-204 -94z" />
    <glyph glyph-name="Cdotaccent" unicode="&#x10a;" horiz-adv-x="1383" 
d="M1315 235q-39 -56 -98 -106.5t-130.5 -88.5t-152 -61.5t-162.5 -24.5q-124 -2 -225.5 31.5t-180 95t-136 147.5t-94 190t-54 222.5t-15.5 243.5q2 137 27 257t70.5 221t110.5 180t145 134t174.5 84t200.5 29q87 0 167.5 -20.5t148 -60t117.5 -97t76 -132.5l-300 -144
q-33 59 -93 90.5t-155 24.5q-69 -5 -134.5 -45t-117.5 -111t-85 -171.5t-39 -227.5q-7 -155 21.5 -270t80.5 -191t120.5 -114t142.5 -38q40 0 84.5 13.5t85.5 35t75.5 48t55.5 52.5zM784 1940q-44 -2 -73.5 16t-44.5 45.5t-15.5 60t14 60.5t43 46.5t71.5 18.5q39 0 66 -18
t41.5 -45t15.5 -58.5t-11.5 -59t-39 -46.5t-67.5 -20z" />
    <glyph glyph-name="Dcaron" unicode="&#x10e;" horiz-adv-x="1404" 
d="M1325 897q4 -150 -35 -280t-115 -236t-186.5 -185t-248 -128t-300 -65t-343.5 5v1777q170 16 325.5 4.5t290 -53t245 -113t190.5 -176t125.5 -241.5t51.5 -309zM1015 825q2 122 -29.5 234.5t-103 201t-187 145.5t-281.5 69l7 -1193q133 9 242 54.5t186.5 118.5
t120.5 167.5t45 202.5zM701 2119l35 68l163 -55l-101 -195l-174 -2l-122 192l158 62z" />
    <glyph glyph-name="Dcroat" unicode="&#x110;" horiz-adv-x="1404" 
d="M11 1000h86v785q170 16 325.5 4.5t290 -53t245 -113t190.5 -176t125.5 -241.5t51.5 -309q4 -150 -35 -280t-115 -236t-186.5 -185t-248 -128t-300 -65t-343.5 5v807h-86v185zM1015 825q2 122 -29.5 234.5t-103 201t-187 145.5t-281.5 69l3 -473l187 1v-188h-186l3 -533
q133 9 242 54.5t186.5 118.5t120.5 167.5t45 202.5z" />
    <glyph glyph-name="Eacute" unicode="&#xc9;" horiz-adv-x="1210" 
d="M412 1040l566 2v-355l-565 6l1 -366h712v-343q-133 2 -401 1t-660 -1l5 1804h1056v-343h-715zM616 2144l138 -102l-166 -210l-128 112z" />
    <glyph glyph-name="Ebreve" unicode="&#x114;" horiz-adv-x="1210" 
d="M412 1040l566 2v-355l-565 6l1 -366h712v-343q-133 2 -401 1t-660 -1l5 1804h1056v-343h-715zM904 1971q-29 -26 -77.5 -44.5t-107 -28.5t-122 -11t-122.5 7t-108 25.5t-78 44.5l97 172q32 -29 71.5 -42.5t80.5 -15.5t81.5 4t75 16t60.5 21t39 18z" />
    <glyph glyph-name="Ecaron" unicode="&#x11a;" horiz-adv-x="1210" 
d="M412 1040l566 2v-355l-565 6l1 -366h712v-343q-133 2 -401 1t-660 -1l5 1804h1056v-343h-715zM604 2119l35 68l163 -55l-101 -195l-174 -2l-122 192l158 62z" />
    <glyph glyph-name="Ecircumflex" unicode="&#xca;" horiz-adv-x="1210" 
d="M412 1040l566 2v-355l-565 6l1 -366h712v-343q-133 2 -401 1t-660 -1l5 1804h1056v-343h-715zM586 1930l-45 -104l-210 83l129 298h225l157 -290l-204 -94z" />
    <glyph glyph-name="Edieresis" unicode="&#xcb;" horiz-adv-x="1210" 
d="M412 1040l566 2v-355l-565 6l1 -366h712v-343q-133 2 -401 1t-660 -1l5 1804h1056v-343h-715zM464 1883q-42 -1 -70.5 16t-42.5 44t-14 58.5t13.5 59t41 46t68.5 18.5q37 0 63 -17.5t40 -44t15 -57.5t-11 -58t-37.5 -45.5t-65.5 -19.5zM756 1878q-42 -1 -70.5 16.5
t-43 44t-15 58.5t13 59t41 45.5t68.5 18.5q38 0 64 -17.5t40 -44t15 -57.5t-11 -58t-37.5 -45.5t-64.5 -19.5z" />
    <glyph glyph-name="Edotaccent" unicode="&#x116;" horiz-adv-x="1210" 
d="M412 1040l566 2v-355l-565 6l1 -366h712v-343q-133 2 -401 1t-660 -1l5 1804h1056v-343h-715zM600 1875q-44 -2 -73.5 16t-44.5 45.5t-15.5 60t14 60.5t43 46.5t71.5 18.5q39 0 66 -18t41.5 -45t15.5 -58.5t-11.5 -59t-39 -46.5t-67.5 -20z" />
    <glyph glyph-name="Egrave" unicode="&#xc8;" horiz-adv-x="1210" 
d="M412 1040l566 2v-355l-565 6l1 -366h712v-343q-133 2 -401 1t-660 -1l5 1804h1056v-343h-715zM749 1922l-138 -109l-156 207l138 102z" />
    <glyph glyph-name="Emacron" unicode="&#x112;" horiz-adv-x="1210" 
d="M412 1040l566 2v-355l-565 6l1 -366h712v-343q-133 2 -401 1t-660 -1l5 1804h1056v-343h-715zM328 2080l468 3v-188h-468v185z" />
    <glyph glyph-name="Eogonek" unicode="&#x118;" horiz-adv-x="1210" 
d="M412 1040l566 2v-355l-565 6l1 -366h712v-343q-41 1 -95 1.5t-120 0.5q-6 -30 -5.5 -63t12 -62t36 -49.5t68.5 -26.5l-57 -210q-89 14 -144 55.5t-81 99t-26 124.5t22 132q-137 -1 -303.5 -1.5t-367.5 -0.5l5 1804h1056v-343h-715z" />
    <glyph glyph-name="Gbreve" unicode="&#x11e;" horiz-adv-x="1434" 
d="M1349 1009q16 -230 -9 -422t-94 -331t-183 -218t-274 -83q-124 -3 -225.5 30t-181.5 94t-138 146.5t-96 189t-56.5 221.5t-18.5 243q0 205 52.5 372.5t147.5 287t226.5 184.5t290.5 66q87 0 168 -19.5t148.5 -58.5t118.5 -96t78 -132l-298 -146q-34 60 -94 90.5
t-156 22.5q-69 -6 -134 -46t-116 -111.5t-83 -172.5t-36 -228q-5 -155 25 -269t82.5 -189.5t121.5 -113t143 -38.5q60 -1 108.5 21.5t82.5 71.5t54 126t23 184l-329 1l-13 323h665zM1020 1928q-29 -27 -77.5 -45t-107 -28t-122 -11t-122.5 7t-108 25.5t-78 44.5l97 172
q32 -29 71.5 -42.5t80.5 -15.5t81.5 4t75 16t60.5 21t39 18z" />
    <glyph glyph-name="Gcircumflex" unicode="&#x11c;" horiz-adv-x="1434" 
d="M1349 1009q16 -230 -9 -422t-94 -331t-183 -218t-274 -83q-124 -3 -225.5 30t-181.5 94t-138 146.5t-96 189t-56.5 221.5t-18.5 243q0 205 52.5 372.5t147.5 287t226.5 184.5t290.5 66q87 0 168 -19.5t148.5 -58.5t118.5 -96t78 -132l-298 -146q-34 60 -94 90.5
t-156 22.5q-69 -6 -134 -46t-116 -111.5t-83 -172.5t-36 -228q-5 -155 25 -269t82.5 -189.5t121.5 -113t143 -38.5q60 -1 108.5 21.5t82.5 71.5t54 126t23 184l-329 1l-13 323h665zM698 1930l-45 -104l-210 83l129 298h225l157 -290l-204 -94z" />
    <glyph glyph-name="Gcommaaccent" unicode="&#x122;" horiz-adv-x="1434" 
d="M1349 1009q16 -230 -9 -422t-94 -331t-183 -218t-274 -83q-124 -3 -225.5 30t-181.5 94t-138 146.5t-96 189t-56.5 221.5t-18.5 243q0 205 52.5 372.5t147.5 287t226.5 184.5t290.5 66q87 0 168 -19.5t148.5 -58.5t118.5 -96t78 -132l-298 -146q-34 60 -94 90.5
t-156 22.5q-69 -6 -134 -46t-116 -111.5t-83 -172.5t-36 -228q-5 -155 25 -269t82.5 -189.5t121.5 -113t143 -38.5q60 -1 108.5 21.5t82.5 71.5t54 126t23 184l-329 1l-13 323h665zM818 -126q46 -80 42 -150.5t-54 -149.5l-146 51q28 43 36 72t5 50t-12.5 37t-15.5 32z" />
    <glyph glyph-name="Gdotaccent" unicode="&#x120;" horiz-adv-x="1434" 
d="M1349 1009q16 -230 -9 -422t-94 -331t-183 -218t-274 -83q-124 -3 -225.5 30t-181.5 94t-138 146.5t-96 189t-56.5 221.5t-18.5 243q0 205 52.5 372.5t147.5 287t226.5 184.5t290.5 66q87 0 168 -19.5t148.5 -58.5t118.5 -96t78 -132l-298 -146q-34 60 -94 90.5
t-156 22.5q-69 -6 -134 -46t-116 -111.5t-83 -172.5t-36 -228q-5 -155 25 -269t82.5 -189.5t121.5 -113t143 -38.5q60 -1 108.5 21.5t82.5 71.5t54 126t23 184l-329 1l-13 323h665zM723 1875q-44 -2 -73.5 16t-44.5 45.5t-15.5 60t14 60.5t43 46.5t71.5 18.5q39 0 66 -18
t41.5 -45t15.5 -58.5t-11.5 -59t-39 -46.5t-67.5 -20z" />
    <glyph glyph-name="Hbar" unicode="&#x126;" horiz-adv-x="1439" 
d="M1015 1424v92.5t0.5 96t1 84.5t0.5 59h339l2 -330h50v-188h-49l8 -1257h-355v6q0 23 0.5 65.5t0.5 98.5t0.5 123t0.5 139.5v148v148.5q-68 0 -141.5 0.5t-150.5 1t-155.5 1t-155.5 1.5l5 -733h-355q0 38 0.5 116t1 181t0.5 224.5v248.5t0.5 251.5t0.5 233.5h-39v185h39
q0 44 0.5 94.5t0.5 97.5t0.5 85t0.5 58h339l2 -334zM1014 1237l-606 -1l1 -177l605 1v177z" />
    <glyph glyph-name="Hcircumflex" unicode="&#x124;" horiz-adv-x="1439" 
d="M1367 -1h-355q0 23 0.5 64.5t0.5 96t0.5 120t0.5 137v146v147.5q-68 0 -141.5 0.5t-150.5 1t-155.5 1t-155.5 1.5l5 -715h-355q0 35 0.5 103t1 160t0.5 202v228.5t0.5 240.5t0.5 237.5t0.5 219.5t0.5 186.5t0.5 138.5t1.5 76h338l4 -732l605 1q0 81 0.5 162.5t0.5 158
t0.5 144.5t1 122.5t0.5 91.5t1 52h338zM701 1930l-45 -104l-210 83l129 298h225l157 -290l-204 -94z" />
    <glyph glyph-name="Iacute" unicode="&#xcd;" horiz-adv-x="1165" 
d="M66 -10v349l334 -1v170v194t0.5 205t0.5 203v189v163l-335 2v341l1025 3v-349l-343 1l5 -1124l338 -2v-341zM594 2144l138 -102l-166 -210l-128 112z" />
    <glyph glyph-name="Ibreve" unicode="&#x12c;" horiz-adv-x="1165" 
d="M66 -10v349l334 -1v170v194t0.5 205t0.5 203v189v163l-335 2v341l1025 3v-349l-343 1l5 -1124l338 -2v-341zM885 1928q-29 -27 -77.5 -45t-107 -28t-122 -11t-122.5 7t-108 25.5t-78 44.5l97 172q32 -29 71.5 -42.5t80.5 -15.5t81.5 4t75 16t60.5 21t39 18z" />
    <glyph glyph-name="Icircumflex" unicode="&#xce;" horiz-adv-x="1165" 
d="M66 -10v349l334 -1v170v194t0.5 205t0.5 203v189v163l-335 2v341l1025 3v-349l-343 1l5 -1124l338 -2v-341zM564 1930l-45 -104l-210 83l129 298h225l157 -290l-204 -94z" />
    <glyph glyph-name="Idieresis" unicode="&#xcf;" horiz-adv-x="1165" 
d="M66 -10v349l334 -1v170v194t0.5 205t0.5 203v189v163l-335 2v341l1025 3v-349l-343 1l5 -1124l338 -2v-341zM442 1883q-42 -1 -70.5 16t-42.5 44t-14 58.5t13.5 59t41 46t68.5 18.5q37 0 63 -17.5t40 -44t15 -57.5t-11 -58t-37.5 -45.5t-65.5 -19.5zM734 1878
q-42 -1 -70.5 16.5t-43 44t-15 58.5t13 59t41 45.5t68.5 18.5q38 0 64 -17.5t40 -44t15 -57.5t-11 -58t-37.5 -45.5t-64.5 -19.5z" />
    <glyph glyph-name="Idotaccent" unicode="&#x130;" horiz-adv-x="1165" 
d="M66 -10v349l334 -1v170v194t0.5 205t0.5 203v189v163l-335 2v341l1025 3v-349l-343 1l5 -1124l338 -2v-341zM588 1875q-44 -2 -73.5 16t-44.5 45.5t-15.5 60t14 60.5t43 46.5t71.5 18.5q39 0 66 -18t41.5 -45t15.5 -58.5t-11.5 -59t-39 -46.5t-67.5 -20z" />
    <glyph glyph-name="Igrave" unicode="&#xcc;" horiz-adv-x="1165" 
d="M66 -10v349l334 -1v170v194t0.5 205t0.5 203v189v163l-335 2v341l1025 3v-349l-343 1l5 -1124l338 -2v-341zM727 1922l-138 -109l-156 207l138 102z" />
    <glyph glyph-name="Imacron" unicode="&#x12a;" horiz-adv-x="1165" 
d="M66 -10v349l334 -1v170v194t0.5 205t0.5 203v189v163l-335 2v341l1025 3v-349l-343 1l5 -1124l338 -2v-341zM322 2080l468 3v-188h-468v185z" />
    <glyph glyph-name="Iogonek" unicode="&#x12e;" horiz-adv-x="1165" 
d="M1100 334v-341h-119q-5 -27 -3.5 -53t13.5 -47.5t36.5 -37t65.5 -21.5l-57 -210q-87 14 -141.5 50t-81.5 86t-28.5 110t19.5 122l-714 -2q-2 0 0 0t0 1v348l310 -1v166.5v185.5t0.5 194t0.5 192v180.5v159.5l-311 2v341l1010 3v-349l-352 1l5 -1078z" />
    <glyph glyph-name="Itilde" unicode="&#x128;" horiz-adv-x="1165" 
d="M66 -10v349l334 -1v170v194t0.5 205t0.5 203v189v163l-335 2v341l1025 3v-349l-343 1l5 -1124l338 -2v-341zM310 2014q39 69 80 100t84 34.5t88 -13.5t91 -44q36 -21 58 -25.5t38 2.5t28 23.5l28 38.5l158 -74q-27 -58 -66 -97.5t-84.5 -56.5t-95.5 -10.5t-100 40.5
q-29 20 -54 34t-46.5 15t-41.5 -15.5t-39 -56.5z" />
    <glyph glyph-name="Jcircumflex" unicode="&#x134;" horiz-adv-x="1100" 
d="M1014 1790q3 -81 5.5 -170.5t4.5 -180t3 -179t1.5 -167.5t0 -145.5t-1.5 -113.5q-5 -195 -28.5 -346t-77.5 -260q-59 -118 -162.5 -181.5t-266.5 -69.5q-51 -2 -115.5 8t-126.5 28t-111.5 44t-70.5 56l171 255q66 -33 130 -49t118.5 -5.5t96 52.5t61.5 125
q17 69 23.5 159t9.5 196q2 66 1.5 172.5t-3 234t-7 266.5t-10.5 271h355zM791 1941l-45 -104l-210 83l129 298h225l157 -290l-204 -94z" />
    <glyph glyph-name="Kcommaaccent" unicode="&#x136;" horiz-adv-x="1429" 
d="M448 1129l691 689l211 -263l-655 -632l702 -711l-268 -234l-678 699l3 -679h-355q0 35 0.5 103.5t1 160.5t0.5 202.5v229.5t0.5 241.5t0.5 238.5t0.5 220.5t0.5 187t0.5 138.5t1.5 76h338zM783 -51q46 -80 42 -150.5t-54 -149.5l-146 51q28 43 36 72t5 50t-12.5 37
t-15.5 32z" />
    <glyph glyph-name="Lacute" unicode="&#x139;" horiz-adv-x="1120" 
d="M414 320h611v-343h-963v1816h338zM571 2144l138 -102l-166 -210l-128 112z" />
    <glyph glyph-name="Lcaron" unicode="&#x13d;" horiz-adv-x="1120" 
d="M766 1512q51 -85 47.5 -161t-60.5 -161l-163 55q31 46 39.5 77t5.5 53.5t-13.5 39.5t-16.5 34zM414 320h611v-343h-963v1816h338z" />
    <glyph glyph-name="Lcommaaccent" unicode="&#x13b;" horiz-adv-x="1120" 
d="M414 320h611v-343h-963v1816h338zM628 -51q46 -80 42 -150.5t-54 -149.5l-146 51q28 43 36 72t5 50t-12.5 37t-15.5 32z" />
    <glyph glyph-name="Ldot" unicode="&#x13f;" horiz-adv-x="1120" 
d="M414 320h611v-343h-963v1816h338zM717 920q-44 -2 -73.5 16t-44.5 45.5t-15.5 60t14 60.5t43 46.5t71.5 18.5q39 0 66 -18t41.5 -45t15.5 -58.5t-11.5 -59t-39 -46.5t-67.5 -20z" />
    <glyph glyph-name="Lslash" unicode="&#x141;" horiz-adv-x="1120" 
d="M410 962l77 41l88 -215l-164 -84l3 -384l646 12v-355h-992l-6 549l-27 -14l-107 199l134 70q0 102 0.5 210t1 211t1 197.5t1 169.5t0.5 127t1 70h338z" />
    <glyph glyph-name="lslash" unicode="&#x142;" horiz-adv-x="482" 
d="M410 963l77 40l88 -215l-164 -84l5 -710h-355l1 532l-27 -14l-107 199l135 71l4 987h338z" />
    <glyph glyph-name="Nacute" unicode="&#x143;" horiz-adv-x="1615" 
d="M1545 41l-330 -44q-23 31 -71.5 99.5t-114 161.5t-143.5 204.5t-159.5 229t-163 234.5t-154.5 221l7 -1168h-355l6 1741l328 35l797 -1116q0 113 0.5 236.5t0.5 245v233.5t0.5 202t1 152t1.5 83h338zM819 2144l138 -102l-166 -210l-128 112z" />
    <glyph glyph-name="Ncaron" unicode="&#x147;" horiz-adv-x="1615" 
d="M1545 41l-330 -44q-23 31 -71.5 99.5t-114 161.5t-143.5 204.5t-159.5 229t-163 234.5t-154.5 221l7 -1168h-355l6 1741l328 35l797 -1116q0 113 0.5 236.5t0.5 245v233.5t0.5 202t1 152t1.5 83h338zM809 2119l35 68l163 -55l-101 -195l-174 -2l-122 192l158 62z" />
    <glyph glyph-name="Ncommaaccent" unicode="&#x145;" horiz-adv-x="1615" 
d="M1545 41l-330 -44q-23 31 -71.5 99.5t-114 161.5t-143.5 204.5t-159.5 229t-163 234.5t-154.5 221l7 -1168h-355l6 1741l328 35l797 -1116q0 113 0.5 236.5t0.5 245v233.5t0.5 202t1 152t1.5 83h338zM876 -51q46 -80 42 -150.5t-54 -149.5l-146 51q28 43 36 72t5 50
t-12.5 37t-15.5 32z" />
    <glyph glyph-name="Ntilde" unicode="&#xd1;" horiz-adv-x="1615" 
d="M1545 41l-330 -44q-23 31 -71.5 99.5t-114 161.5t-143.5 204.5t-159.5 229t-163 234.5t-154.5 221l7 -1168h-355l6 1741l328 35l797 -1116q0 113 0.5 236.5t0.5 245v233.5t0.5 202t1 152t1.5 83h338zM535 2014q39 69 80 100t84 34.5t88 -13.5t91 -44q36 -21 58 -25.5
t38 2.5t28 23.5l28 38.5l158 -74q-27 -58 -66 -97.5t-84.5 -56.5t-95.5 -10.5t-100 40.5q-29 20 -54 34t-46.5 15t-41.5 -15.5t-39 -56.5z" />
    <glyph glyph-name="Oacute" unicode="&#xd3;" horiz-adv-x="1717" 
d="M893 -61q-165 -2 -296.5 49t-229.5 139.5t-163 207t-97 252.5t-31.5 275t33.5 275t98 253t162.5 208.5t226 141t288.5 51.5q153 0 275 -52t213.5 -140.5t152 -207t91 -251t30.5 -273t-30.5 -273.5t-91 -251.5t-150.5 -207.5t-210.5 -142t-270.5 -54zM840 1433
q-110 -7 -192.5 -60t-137.5 -134.5t-82 -184t-26 -208t30.5 -206t87.5 -179.5t145 -127t203 -49q84 -1 152.5 32t120 89t86.5 131.5t52.5 160t17.5 173t-17.5 172t-53.5 157t-91 127t-128.5 82.5t-166.5 24zM870 2144l138 -102l-166 -210l-128 112z" />
    <glyph glyph-name="Obreve" unicode="&#x14e;" horiz-adv-x="1717" 
d="M893 -61q-165 -2 -296.5 49t-229.5 139.5t-163 207t-97 252.5t-31.5 275t33.5 275t98 253t162.5 208.5t226 141t288.5 51.5q153 0 275 -52t213.5 -140.5t152 -207t91 -251t30.5 -273t-30.5 -273.5t-91 -251.5t-150.5 -207.5t-210.5 -142t-270.5 -54zM840 1433
q-110 -7 -192.5 -60t-137.5 -134.5t-82 -184t-26 -208t30.5 -206t87.5 -179.5t145 -127t203 -49q84 -1 152.5 32t120 89t86.5 131.5t52.5 160t17.5 173t-17.5 172t-53.5 157t-91 127t-128.5 82.5t-166.5 24zM1161 1928q-29 -27 -77.5 -45t-107 -28t-122 -11t-122.5 7
t-108 25.5t-78 44.5l97 172q32 -29 71.5 -42.5t80.5 -15.5t81.5 4t75 16t60.5 21t39 18z" />
    <glyph glyph-name="Ocircumflex" unicode="&#xd4;" horiz-adv-x="1717" 
d="M893 -61q-165 -2 -296.5 49t-229.5 139.5t-163 207t-97 252.5t-31.5 275t33.5 275t98 253t162.5 208.5t226 141t288.5 51.5q153 0 275 -52t213.5 -140.5t152 -207t91 -251t30.5 -273t-30.5 -273.5t-91 -251.5t-150.5 -207.5t-210.5 -142t-270.5 -54zM840 1433
q-110 -7 -192.5 -60t-137.5 -134.5t-82 -184t-26 -208t30.5 -206t87.5 -179.5t145 -127t203 -49q84 -1 152.5 32t120 89t86.5 131.5t52.5 160t17.5 173t-17.5 172t-53.5 157t-91 127t-128.5 82.5t-166.5 24zM840 1930l-45 -104l-210 83l129 298h225l157 -290l-204 -94z" />
    <glyph glyph-name="Odieresis" unicode="&#xd6;" horiz-adv-x="1717" 
d="M893 -61q-165 -2 -296.5 49t-229.5 139.5t-163 207t-97 252.5t-31.5 275t33.5 275t98 253t162.5 208.5t226 141t288.5 51.5q153 0 275 -52t213.5 -140.5t152 -207t91 -251t30.5 -273t-30.5 -273.5t-91 -251.5t-150.5 -207.5t-210.5 -142t-270.5 -54zM840 1433
q-110 -7 -192.5 -60t-137.5 -134.5t-82 -184t-26 -208t30.5 -206t87.5 -179.5t145 -127t203 -49q84 -1 152.5 32t120 89t86.5 131.5t52.5 160t17.5 173t-17.5 172t-53.5 157t-91 127t-128.5 82.5t-166.5 24zM718 1883q-42 -1 -70.5 16t-42.5 44t-14 58.5t13.5 59t41 46
t68.5 18.5q37 0 63 -17.5t40 -44t15 -57.5t-11 -58t-37.5 -45.5t-65.5 -19.5zM1010 1878q-42 -1 -70.5 16.5t-43 44t-15 58.5t13 59t41 45.5t68.5 18.5q38 0 64 -17.5t40 -44t15 -57.5t-11 -58t-37.5 -45.5t-64.5 -19.5z" />
    <glyph glyph-name="Ograve" unicode="&#xd2;" horiz-adv-x="1717" 
d="M893 -61q-165 -2 -296.5 49t-229.5 139.5t-163 207t-97 252.5t-31.5 275t33.5 275t98 253t162.5 208.5t226 141t288.5 51.5q153 0 275 -52t213.5 -140.5t152 -207t91 -251t30.5 -273t-30.5 -273.5t-91 -251.5t-150.5 -207.5t-210.5 -142t-270.5 -54zM840 1433
q-110 -7 -192.5 -60t-137.5 -134.5t-82 -184t-26 -208t30.5 -206t87.5 -179.5t145 -127t203 -49q84 -1 152.5 32t120 89t86.5 131.5t52.5 160t17.5 173t-17.5 172t-53.5 157t-91 127t-128.5 82.5t-166.5 24zM1003 1922l-138 -109l-156 207l138 102z" />
    <glyph glyph-name="Ohungarumlaut" unicode="&#x150;" horiz-adv-x="1717" 
d="M893 -61q-165 -2 -296.5 49t-229.5 139.5t-163 207t-97 252.5t-31.5 275t33.5 275t98 253t162.5 208.5t226 141t288.5 51.5q153 0 275 -52t213.5 -140.5t152 -207t91 -251t30.5 -273t-30.5 -273.5t-91 -251.5t-150.5 -207.5t-210.5 -142t-270.5 -54zM840 1433
q-110 -7 -192.5 -60t-137.5 -134.5t-82 -184t-26 -208t30.5 -206t87.5 -179.5t145 -127t203 -49q84 -1 152.5 32t120 89t86.5 131.5t52.5 160t17.5 173t-17.5 172t-53.5 157t-91 127t-128.5 82.5t-166.5 24zM788 2160l138 -102l-155 -185l-139 87zM1069 2141l138 -102
l-146 -193l-148 95z" />
    <glyph glyph-name="Omacron" unicode="&#x14c;" horiz-adv-x="1717" 
d="M893 -61q-165 -2 -296.5 49t-229.5 139.5t-163 207t-97 252.5t-31.5 275t33.5 275t98 253t162.5 208.5t226 141t288.5 51.5q153 0 275 -52t213.5 -140.5t152 -207t91 -251t30.5 -273t-30.5 -273.5t-91 -251.5t-150.5 -207.5t-210.5 -142t-270.5 -54zM840 1433
q-110 -7 -192.5 -60t-137.5 -134.5t-82 -184t-26 -208t30.5 -206t87.5 -179.5t145 -127t203 -49q84 -1 152.5 32t120 89t86.5 131.5t52.5 160t17.5 173t-17.5 172t-53.5 157t-91 127t-128.5 82.5t-166.5 24zM598 2080l468 3v-188h-468v185z" />
    <glyph glyph-name="Oslash" unicode="&#xd8;" horiz-adv-x="1717" 
d="M1335 1630q100 -84 167.5 -201t103 -251t39 -277.5t-24.5 -281t-87.5 -260t-150.5 -215.5t-213 -148.5t-276 -56.5q-40 0 -76 3l-2 -7l-4 2l-44 -143l-334 121l42 132q-98 59 -171.5 145t-123 188.5t-75.5 218t-28.5 234t18.5 235.5t65.5 224t112 198t158 158t204 105
t249.5 38q35 0 69 -3.5t66 -9.5q3 5 9 8l24 75l327 -89zM840 1433q-89 -6 -160.5 -42t-124.5 -94.5t-88 -133.5t-51.5 -158.5t-14 -170.5t23.5 -168t60.5 -152.5t98.5 -123.5l31 98l294 943q-17 2 -34 2.5t-35 -0.5zM922 289q90 12 159 64.5t116.5 130.5t72.5 174t26.5 196
t-20 197t-66.5 176l-215 -694z" />
    <glyph glyph-name="Oslashacute" unicode="&#x1fe;" horiz-adv-x="1717" 
d="M870 2131l138 -102l-146 -193l-148 95zM1335 1630q100 -84 167.5 -201t103 -251t39 -277.5t-24.5 -281t-87.5 -260t-150.5 -215.5t-213 -148.5t-276 -56.5q-40 0 -76 3l-2 -7l-4 2l-44 -143l-334 121l42 132q-98 59 -171.5 145t-123 188.5t-75.5 218t-28.5 234
t18.5 235.5t65.5 224t112 198t158 158t204 105t249.5 38q35 0 69 -3.5t66 -9.5q3 5 9 8l24 75l327 -89zM840 1433q-89 -6 -160.5 -42t-124.5 -94.5t-88 -133.5t-51.5 -158.5t-14 -170.5t23.5 -168t60.5 -152.5t98.5 -123.5l31 98l294 943q-17 2 -34 2.5t-35 -0.5zM922 289
q90 12 159 64.5t116.5 130.5t72.5 174t26.5 196t-20 197t-66.5 176l-215 -694z" />
    <glyph glyph-name="Otilde" unicode="&#xd5;" horiz-adv-x="1717" 
d="M893 -61q-165 -2 -296.5 49t-229.5 139.5t-163 207t-97 252.5t-31.5 275t33.5 275t98 253t162.5 208.5t226 141t288.5 51.5q153 0 275 -52t213.5 -140.5t152 -207t91 -251t30.5 -273t-30.5 -273.5t-91 -251.5t-150.5 -207.5t-210.5 -142t-270.5 -54zM840 1433
q-110 -7 -192.5 -60t-137.5 -134.5t-82 -184t-26 -208t30.5 -206t87.5 -179.5t145 -127t203 -49q84 -1 152.5 32t120 89t86.5 131.5t52.5 160t17.5 173t-17.5 172t-53.5 157t-91 127t-128.5 82.5t-166.5 24zM534 2014q39 69 80 100t84 34.5t88 -13.5t91 -44q36 -21 58 -25.5
t38 2.5t28 23.5l28 38.5l158 -74q-27 -58 -66 -97.5t-84.5 -56.5t-95.5 -10.5t-100 40.5q-29 20 -54 34t-46.5 15t-41.5 -15.5t-39 -56.5z" />
    <glyph glyph-name="OE" unicode="&#x152;" horiz-adv-x="1972" 
d="M1174 1033l650 2v-355l-649 6l1 -366h706v-342q-45 0 -107 0.5t-133.5 0.5t-149 -0.5t-153 -1t-146 -1t-127.5 -1.5q-235 -3 -417 52.5t-305.5 171t-186.5 293.5t-60 421q3 200 70 361.5t194.5 275.5t314.5 175.5t429 61.5h125.5t139 -0.5t144 -1t139.5 -0.5h126t103 1
v-348h-709zM821 1437q-98 -15 -172.5 -69t-124 -132t-75 -173.5t-25.5 -195t24.5 -195t74.5 -173.5t125 -131t176 -68z" />
    <glyph glyph-name="Racute" unicode="&#x154;" horiz-adv-x="1391" 
d="M80 1784q165 24 318.5 32t287 -4.5t244.5 -49t191.5 -101t127.5 -161t54 -229.5q4 -94 -17 -169.5t-61 -134t-94.5 -101.5t-118 -73.5t-131.5 -50t-133 -29.5l593 -520l-242 -262l-672 610l8 -566h-355v1809zM441 1038q17 -3 49 -4.5t72.5 -0.5t86.5 6.5t91 16.5t85.5 29
t70.5 44.5t46 63.5t12 85q-4 49 -30 85.5t-66.5 62t-92.5 40.5t-108 22t-113 5.5t-108 -8.5zM707 2144l138 -102l-166 -210l-128 112z" />
    <glyph glyph-name="Rcaron" unicode="&#x158;" horiz-adv-x="1391" 
d="M80 1784q165 24 318.5 32t287 -4.5t244.5 -49t191.5 -101t127.5 -161t54 -229.5q4 -94 -17 -169.5t-61 -134t-94.5 -101.5t-118 -73.5t-131.5 -50t-133 -29.5l593 -520l-242 -262l-672 610l8 -566h-355v1809zM441 1038q17 -3 49 -4.5t72.5 -0.5t86.5 6.5t91 16.5t85.5 29
t70.5 44.5t46 63.5t12 85q-4 49 -30 85.5t-66.5 62t-92.5 40.5t-108 22t-113 5.5t-108 -8.5zM697 2119l35 68l163 -55l-101 -195l-174 -2l-122 192l158 62z" />
    <glyph glyph-name="Rcommaaccent" unicode="&#x156;" horiz-adv-x="1391" 
d="M80 1784q165 24 318.5 32t287 -4.5t244.5 -49t191.5 -101t127.5 -161t54 -229.5q4 -94 -17 -169.5t-61 -134t-94.5 -101.5t-118 -73.5t-131.5 -50t-133 -29.5l593 -520l-242 -262l-672 610l8 -566h-355v1809zM441 1038q17 -3 49 -4.5t72.5 -0.5t86.5 6.5t91 16.5t85.5 29
t70.5 44.5t46 63.5t12 85q-4 49 -30 85.5t-66.5 62t-92.5 40.5t-108 22t-113 5.5t-108 -8.5zM764 -51q46 -80 42 -150.5t-54 -149.5l-146 51q28 43 36 72t5 50t-12.5 37t-15.5 32z" />
    <glyph glyph-name="Sacute" unicode="&#x15a;" horiz-adv-x="1194" 
d="M932 819q62 -68 106.5 -147t66 -162.5t16.5 -168.5t-41 -164q-26 -57 -70.5 -97.5t-100 -67t-117.5 -39t-123 -12.5q-84 0 -172.5 24t-171 68t-154 107t-123.5 141l217 209q34 -48 79 -88t94 -70t99 -47.5t95 -20.5q40 -3 68 8.5t44 32t22.5 47.5t5.5 56t-10 57.5
t-22 51.5q-29 49 -80 98t-112.5 98.5t-128 100t-127 103.5t-110 108t-76.5 114q-45 99 -40 200.5t53 189.5q38 70 93 119.5t121 79t139.5 40t148.5 3t147 -32.5t135 -66q28 -18 64.5 -47.5t73 -63t67.5 -66t47 -56.5l-260 -199q-44 62 -93.5 104.5t-99.5 67.5t-97 34
t-85.5 3.5t-65.5 -24.5t-36 -48q-12 -38 5.5 -78.5t56 -84t92.5 -91t115.5 -99t124.5 -107.5t120 -118zM608 2144l138 -102l-166 -210l-128 112z" />
    <glyph glyph-name="Scaron" unicode="&#x160;" horiz-adv-x="1194" 
d="M932 819q62 -68 106.5 -147t66 -162.5t16.5 -168.5t-41 -164q-26 -57 -70.5 -97.5t-100 -67t-117.5 -39t-123 -12.5q-84 0 -172.5 24t-171 68t-154 107t-123.5 141l217 209q34 -48 79 -88t94 -70t99 -47.5t95 -20.5q40 -3 68 8.5t44 32t22.5 47.5t5.5 56t-10 57.5
t-22 51.5q-29 49 -80 98t-112.5 98.5t-128 100t-127 103.5t-110 108t-76.5 114q-45 99 -40 200.5t53 189.5q38 70 93 119.5t121 79t139.5 40t148.5 3t147 -32.5t135 -66q28 -18 64.5 -47.5t73 -63t67.5 -66t47 -56.5l-260 -199q-44 62 -93.5 104.5t-99.5 67.5t-97 34
t-85.5 3.5t-65.5 -24.5t-36 -48q-12 -38 5.5 -78.5t56 -84t92.5 -91t115.5 -99t124.5 -107.5t120 -118zM599 2119l35 68l163 -55l-101 -195l-174 -2l-122 192l158 62z" />
    <glyph glyph-name="Scircumflex" unicode="&#x15c;" horiz-adv-x="1194" 
d="M932 819q62 -68 106.5 -147t66 -162.5t16.5 -168.5t-41 -164q-26 -57 -70.5 -97.5t-100 -67t-117.5 -39t-123 -12.5q-84 0 -172.5 24t-171 68t-154 107t-123.5 141l217 209q34 -48 79 -88t94 -70t99 -47.5t95 -20.5q40 -3 68 8.5t44 32t22.5 47.5t5.5 56t-10 57.5
t-22 51.5q-29 49 -80 98t-112.5 98.5t-128 100t-127 103.5t-110 108t-76.5 114q-45 99 -40 200.5t53 189.5q38 70 93 119.5t121 79t139.5 40t148.5 3t147 -32.5t135 -66q28 -18 64.5 -47.5t73 -63t67.5 -66t47 -56.5l-260 -199q-44 62 -93.5 104.5t-99.5 67.5t-97 34
t-85.5 3.5t-65.5 -24.5t-36 -48q-12 -38 5.5 -78.5t56 -84t92.5 -91t115.5 -99t124.5 -107.5t120 -118zM578 1930l-45 -104l-210 83l129 298h225l157 -290l-204 -94z" />
    <glyph glyph-name="Scommaaccent" unicode="&#x218;" horiz-adv-x="1194" 
d="M932 819q62 -68 106.5 -147t66 -162.5t16.5 -168.5t-41 -164q-26 -57 -70.5 -97.5t-100 -67t-117.5 -39t-123 -12.5q-84 0 -172.5 24t-171 68t-154 107t-123.5 141l217 209q34 -48 79 -88t94 -70t99 -47.5t95 -20.5q40 -3 68 8.5t44 32t22.5 47.5t5.5 56t-10 57.5
t-22 51.5q-29 49 -80 98t-112.5 98.5t-128 100t-127 103.5t-110 108t-76.5 114q-45 99 -40 200.5t53 189.5q38 70 93 119.5t121 79t139.5 40t148.5 3t147 -32.5t135 -66q28 -18 64.5 -47.5t73 -63t67.5 -66t47 -56.5l-260 -199q-44 62 -93.5 104.5t-99.5 67.5t-97 34
t-85.5 3.5t-65.5 -24.5t-36 -48q-12 -38 5.5 -78.5t56 -84t92.5 -91t115.5 -99t124.5 -107.5t120 -118zM730 -99q46 -80 42 -150.5t-54 -149.5l-146 51q28 43 36 72t5 50t-12.5 37t-15.5 32z" />
    <glyph glyph-name="Tcaron" unicode="&#x164;" horiz-adv-x="1154" 
d="M1092 1762v-336h-344l6 -1438h-355q0 23 0.5 81t0.5 141v185.5t0.5 214t0.5 226v222v202v166.5h-342v333zM579 2119l35 68l163 -55l-101 -195l-174 -2l-122 192l158 62z" />
    <glyph glyph-name="Tcommaaccent" unicode="&#x162;" horiz-adv-x="1154" 
d="M1092 1762v-336h-344l6 -1438h-355q0 23 0.5 81t0.5 141v185.5t0.5 214t0.5 226v222v202v166.5h-342v333zM650 -114q46 -80 42 -150.5t-54 -149.5l-146 51q28 43 36 72t5 50t-12.5 37t-15.5 32z" />
    <glyph glyph-name="Uacute" unicode="&#xda;" horiz-adv-x="1369" 
d="M681 -20q-112 0 -197.5 33.5t-149.5 96t-108 152.5t-73 203.5t-45.5 248.5t-23.5 288q-8 170 -9.5 357t-0.5 391h324q1 -218 1.5 -400t4.5 -332q5 -186 19.5 -321.5t46 -223.5t82.5 -130t129 -40q72 2 122.5 43t84 122.5t51.5 203.5t25 285q7 160 6 357t-9 436h328
q2 -209 3.5 -407t-7.5 -380q-7 -142 -23 -270.5t-45.5 -238t-74.5 -197.5t-109.5 -149.5t-151.5 -94.5t-200 -33zM696 2144l138 -102l-166 -210l-128 112z" />
    <glyph glyph-name="Ubreve" unicode="&#x16c;" horiz-adv-x="1369" 
d="M681 -20q-112 0 -197.5 33.5t-149.5 96t-108 152.5t-73 203.5t-45.5 248.5t-23.5 288q-8 170 -9.5 357t-0.5 391h324q1 -218 1.5 -400t4.5 -332q5 -186 19.5 -321.5t46 -223.5t82.5 -130t129 -40q72 2 122.5 43t84 122.5t51.5 203.5t25 285q7 160 6 357t-9 436h328
q2 -209 3.5 -407t-7.5 -380q-7 -142 -23 -270.5t-45.5 -238t-74.5 -197.5t-109.5 -149.5t-151.5 -94.5t-200 -33zM987 1928q-29 -27 -77.5 -45t-107 -28t-122 -11t-122.5 7t-108 25.5t-78 44.5l97 172q32 -29 71.5 -42.5t80.5 -15.5t81.5 4t75 16t60.5 21t39 18z" />
    <glyph glyph-name="Ucircumflex" unicode="&#xdb;" horiz-adv-x="1369" 
d="M681 -20q-112 0 -197.5 33.5t-149.5 96t-108 152.5t-73 203.5t-45.5 248.5t-23.5 288q-8 170 -9.5 357t-0.5 391h324q1 -218 1.5 -400t4.5 -332q5 -186 19.5 -321.5t46 -223.5t82.5 -130t129 -40q72 2 122.5 43t84 122.5t51.5 203.5t25 285q7 160 6 357t-9 436h328
q2 -209 3.5 -407t-7.5 -380q-7 -142 -23 -270.5t-45.5 -238t-74.5 -197.5t-109.5 -149.5t-151.5 -94.5t-200 -33zM666 1930l-45 -104l-210 83l129 298h225l157 -290l-204 -94z" />
    <glyph glyph-name="Udieresis" unicode="&#xdc;" horiz-adv-x="1369" 
d="M681 -20q-112 0 -197.5 33.5t-149.5 96t-108 152.5t-73 203.5t-45.5 248.5t-23.5 288q-8 170 -9.5 357t-0.5 391h324q1 -218 1.5 -400t4.5 -332q5 -186 19.5 -321.5t46 -223.5t82.5 -130t129 -40q72 2 122.5 43t84 122.5t51.5 203.5t25 285q7 160 6 357t-9 436h328
q2 -209 3.5 -407t-7.5 -380q-7 -142 -23 -270.5t-45.5 -238t-74.5 -197.5t-109.5 -149.5t-151.5 -94.5t-200 -33zM544 1883q-42 -1 -70.5 16t-42.5 44t-14 58.5t13.5 59t41 46t68.5 18.5q37 0 63 -17.5t40 -44t15 -57.5t-11 -58t-37.5 -45.5t-65.5 -19.5zM836 1878
q-42 -1 -70.5 16.5t-43 44t-15 58.5t13 59t41 45.5t68.5 18.5q38 0 64 -17.5t40 -44t15 -57.5t-11 -58t-37.5 -45.5t-64.5 -19.5z" />
    <glyph glyph-name="Ugrave" unicode="&#xd9;" horiz-adv-x="1369" 
d="M681 -20q-112 0 -197.5 33.5t-149.5 96t-108 152.5t-73 203.5t-45.5 248.5t-23.5 288q-8 170 -9.5 357t-0.5 391h324q1 -218 1.5 -400t4.5 -332q5 -186 19.5 -321.5t46 -223.5t82.5 -130t129 -40q72 2 122.5 43t84 122.5t51.5 203.5t25 285q7 160 6 357t-9 436h328
q2 -209 3.5 -407t-7.5 -380q-7 -142 -23 -270.5t-45.5 -238t-74.5 -197.5t-109.5 -149.5t-151.5 -94.5t-200 -33zM829 1922l-138 -109l-156 207l138 102z" />
    <glyph glyph-name="Uhungarumlaut" unicode="&#x170;" horiz-adv-x="1369" 
d="M681 -20q-112 0 -197.5 33.5t-149.5 96t-108 152.5t-73 203.5t-45.5 248.5t-23.5 288q-8 170 -9.5 357t-0.5 391h324q1 -218 1.5 -400t4.5 -332q5 -186 19.5 -321.5t46 -223.5t82.5 -130t129 -40q72 2 122.5 43t84 122.5t51.5 203.5t25 285q7 160 6 357t-9 436h328
q2 -209 3.5 -407t-7.5 -380q-7 -142 -23 -270.5t-45.5 -238t-74.5 -197.5t-109.5 -149.5t-151.5 -94.5t-200 -33zM555 2117l138 -102l-155 -185l-139 87zM836 2098l138 -102l-146 -193l-148 95z" />
    <glyph glyph-name="Umacron" unicode="&#x16a;" horiz-adv-x="1369" 
d="M681 -20q-112 0 -197.5 33.5t-149.5 96t-108 152.5t-73 203.5t-45.5 248.5t-23.5 288q-8 170 -9.5 357t-0.5 391h324q1 -218 1.5 -400t4.5 -332q5 -186 19.5 -321.5t46 -223.5t82.5 -130t129 -40q72 2 122.5 43t84 122.5t51.5 203.5t25 285q7 160 6 357t-9 436h328
q2 -209 3.5 -407t-7.5 -380q-7 -142 -23 -270.5t-45.5 -238t-74.5 -197.5t-109.5 -149.5t-151.5 -94.5t-200 -33zM424 2080l468 3v-188h-468v185z" />
    <glyph glyph-name="Uring" unicode="&#x16e;" horiz-adv-x="1369" 
d="M681 -20q-112 0 -197.5 33.5t-149.5 96t-108 152.5t-73 203.5t-45.5 248.5t-23.5 288q-8 170 -9.5 357t-0.5 391h324q1 -218 1.5 -400t4.5 -332q5 -186 19.5 -321.5t46 -223.5t82.5 -130t129 -40q72 2 122.5 43t84 122.5t51.5 203.5t25 285q7 160 6 357t-9 436h328
q2 -209 3.5 -407t-7.5 -380q-7 -142 -23 -270.5t-45.5 -238t-74.5 -197.5t-109.5 -149.5t-151.5 -94.5t-200 -33zM694 1830q-69 -2 -114.5 25.5t-69 69.5t-24 92t21.5 93t66.5 72t111.5 29q61 0 103 -27.5t64.5 -69.5t24 -90.5t-18 -91t-60.5 -71.5t-105 -31zM687 1982
q22 0 32.5 13t10 28t-12 27.5t-33.5 12.5q-23 0 -34.5 -13t-11.5 -28.5t12.5 -28t36.5 -11.5z" />
    <glyph glyph-name="Utilde" unicode="&#x168;" horiz-adv-x="1369" 
d="M681 -20q-112 0 -197.5 33.5t-149.5 96t-108 152.5t-73 203.5t-45.5 248.5t-23.5 288q-8 170 -9.5 357t-0.5 391h324q1 -218 1.5 -400t4.5 -332q5 -186 19.5 -321.5t46 -223.5t82.5 -130t129 -40q72 2 122.5 43t84 122.5t51.5 203.5t25 285q7 160 6 357t-9 436h328
q2 -209 3.5 -407t-7.5 -380q-7 -142 -23 -270.5t-45.5 -238t-74.5 -197.5t-109.5 -149.5t-151.5 -94.5t-200 -33zM360 2014q39 69 80 100t84 34.5t88 -13.5t91 -44q36 -21 58 -25.5t38 2.5t28 23.5l28 38.5l158 -74q-27 -58 -66 -97.5t-84.5 -56.5t-95.5 -10.5t-100 40.5
q-29 20 -54 34t-46.5 15t-41.5 -15.5t-39 -56.5z" />
    <glyph glyph-name="Wacute" unicode="&#x1e82;" horiz-adv-x="2074" 
d="M1686 1781l328 -81q-4 -24 -18.5 -96t-36 -176t-48.5 -233t-55.5 -266.5t-58 -276t-56 -263t-49 -227t-37.5 -166.5h-429q-9 26 -21 73.5t-26.5 109.5t-31 136t-35 153.5t-37 161t-37.5 160.5q-19 -79 -38 -161t-37 -161.5t-35 -153t-31.5 -135.5t-27 -109t-20.5 -74
h-429q-15 64 -37.5 166.5t-49 226.5t-56 262t-58 275.5t-55.5 265.5t-48.5 232t-36 176t-18.5 96l328 81l260 -1232l230 1062h317l230 -1058zM1048 2144l138 -102l-166 -210l-128 112z" />
    <glyph glyph-name="Wcircumflex" unicode="&#x174;" horiz-adv-x="2074" 
d="M1686 1781l328 -81q-4 -24 -18.5 -96t-36 -176t-48.5 -233t-55.5 -266.5t-58 -276t-56 -263t-49 -227t-37.5 -166.5h-429q-9 26 -21 73.5t-26.5 109.5t-31 136t-35 153.5t-37 161t-37.5 160.5q-19 -79 -38 -161t-37 -161.5t-35 -153t-31.5 -135.5t-27 -109t-20.5 -74
h-429q-15 64 -37.5 166.5t-49 226.5t-56 262t-58 275.5t-55.5 265.5t-48.5 232t-36 176t-18.5 96l328 81l260 -1232l230 1062h317l230 -1058zM1018 1930l-45 -104l-210 83l129 298h225l157 -290l-204 -94z" />
    <glyph glyph-name="Wdieresis" unicode="&#x1e84;" horiz-adv-x="2074" 
d="M1686 1781l328 -81q-4 -24 -18.5 -96t-36 -176t-48.5 -233t-55.5 -266.5t-58 -276t-56 -263t-49 -227t-37.5 -166.5h-429q-9 26 -21 73.5t-26.5 109.5t-31 136t-35 153.5t-37 161t-37.5 160.5q-19 -79 -38 -161t-37 -161.5t-35 -153t-31.5 -135.5t-27 -109t-20.5 -74
h-429q-15 64 -37.5 166.5t-49 226.5t-56 262t-58 275.5t-55.5 265.5t-48.5 232t-36 176t-18.5 96l328 81l260 -1232l230 1062h317l230 -1058zM896 1883q-42 -1 -70.5 16t-42.5 44t-14 58.5t13.5 59t41 46t68.5 18.5q37 0 63 -17.5t40 -44t15 -57.5t-11 -58t-37.5 -45.5
t-65.5 -19.5zM1188 1878q-42 -1 -70.5 16.5t-43 44t-15 58.5t13 59t41 45.5t68.5 18.5q38 0 64 -17.5t40 -44t15 -57.5t-11 -58t-37.5 -45.5t-64.5 -19.5z" />
    <glyph glyph-name="Wgrave" unicode="&#x1e80;" horiz-adv-x="2074" 
d="M1686 1781l328 -81q-4 -24 -18.5 -96t-36 -176t-48.5 -233t-55.5 -266.5t-58 -276t-56 -263t-49 -227t-37.5 -166.5h-429q-9 26 -21 73.5t-26.5 109.5t-31 136t-35 153.5t-37 161t-37.5 160.5q-19 -79 -38 -161t-37 -161.5t-35 -153t-31.5 -135.5t-27 -109t-20.5 -74
h-429q-15 64 -37.5 166.5t-49 226.5t-56 262t-58 275.5t-55.5 265.5t-48.5 232t-36 176t-18.5 96l328 81l260 -1232l230 1062h317l230 -1058zM1181 1922l-138 -109l-156 207l138 102z" />
    <glyph glyph-name="Yacute" unicode="&#xdd;" horiz-adv-x="1444" 
d="M723 1152l381 650l304 -131l-505 -919l2 -779h-355l10 782l-515 911l304 131zM733 2144l138 -102l-166 -210l-128 112z" />
    <glyph glyph-name="Ycircumflex" unicode="&#x176;" horiz-adv-x="1444" 
d="M723 1152l381 650l304 -131l-505 -919l2 -779h-355l10 782l-515 911l304 131zM703 1930l-45 -104l-210 83l129 298h225l157 -290l-204 -94z" />
    <glyph glyph-name="Ydieresis" unicode="&#x178;" horiz-adv-x="1444" 
d="M723 1152l381 650l304 -131l-505 -919l2 -779h-355l10 782l-515 911l304 131zM581 1883q-42 -1 -70.5 16t-42.5 44t-14 58.5t13.5 59t41 46t68.5 18.5q37 0 63 -17.5t40 -44t15 -57.5t-11 -58t-37.5 -45.5t-65.5 -19.5zM873 1878q-42 -1 -70.5 16.5t-43 44t-15 58.5
t13 59t41 45.5t68.5 18.5q38 0 64 -17.5t40 -44t15 -57.5t-11 -58t-37.5 -45.5t-64.5 -19.5z" />
    <glyph glyph-name="Ygrave" unicode="&#x1ef2;" horiz-adv-x="1444" 
d="M723 1152l381 650l304 -131l-505 -919l2 -779h-355l10 782l-515 911l304 131zM866 1922l-138 -109l-156 207l138 102z" />
    <glyph glyph-name="Zacute" unicode="&#x179;" horiz-adv-x="1261" 
d="M823 1460h-741v317l1133 -5v-312l-737 -1137h735v-324l-1131 8v316zM642 2144l138 -102l-166 -210l-128 112z" />
    <glyph glyph-name="Zcaron" unicode="&#x17d;" horiz-adv-x="1261" 
d="M823 1460h-741v317l1133 -5v-312l-737 -1137h735v-324l-1131 8v316zM632 2119l35 68l163 -55l-101 -195l-174 -2l-122 192l158 62z" />
    <glyph glyph-name="Zdotaccent" unicode="&#x17b;" horiz-adv-x="1261" 
d="M823 1460h-741v317l1133 -5v-312l-737 -1137h735v-324l-1131 8v316zM636 1875q-44 -2 -73.5 16t-44.5 45.5t-15.5 60t14 60.5t43 46.5t71.5 18.5q39 0 66 -18t41.5 -45t15.5 -58.5t-11.5 -59t-39 -46.5t-67.5 -20z" />
    <glyph glyph-name="aacute" unicode="&#xe1;" horiz-adv-x="1400" 
d="M1321 -15h-355v79q-124 -82 -269 -84q-103 -1 -188 25t-153 72.5t-118.5 110t-84.5 137.5t-52.5 155t-21.5 163q-3 87 12.5 174t49 166t86 147t123.5 118t160 78t196 28q78 -1 145 -17.5t125 -47.5v16t0.5 25t0.5 24v14h338zM667 1015q-60 -2 -108.5 -29.5t-82.5 -75.5
t-51.5 -113t-14.5 -141q1 -35 8.5 -74t22 -77t35.5 -72.5t49.5 -61t64.5 -42.5t80 -16q73 0 129 33t94 86.5t58 120.5t20 134q0 64 -20 124.5t-59 107t-95.5 73.5t-129.5 23zM711 1761l138 -102l-166 -210l-128 112z" />
    <glyph glyph-name="abreve" unicode="&#x103;" horiz-adv-x="1400" 
d="M1321 -15h-355v79q-124 -82 -269 -84q-103 -1 -188 25t-153 72.5t-118.5 110t-84.5 137.5t-52.5 155t-21.5 163q-3 87 12.5 174t49 166t86 147t123.5 118t160 78t196 28q78 -1 145 -17.5t125 -47.5v16t0.5 25t0.5 24v14h338zM667 1015q-60 -2 -108.5 -29.5t-82.5 -75.5
t-51.5 -113t-14.5 -141q1 -35 8.5 -74t22 -77t35.5 -72.5t49.5 -61t64.5 -42.5t80 -16q73 0 129 33t94 86.5t58 120.5t20 134q0 64 -20 124.5t-59 107t-95.5 73.5t-129.5 23zM1003 1545q-29 -27 -77.5 -45t-107 -28t-122 -11t-122.5 7t-108 25.5t-78 44.5l97 172
q32 -29 71.5 -42.5t80.5 -15.5t81.5 4t75 16t60.5 21t39 18z" />
    <glyph glyph-name="acircumflex" unicode="&#xe2;" horiz-adv-x="1400" 
d="M1321 -15h-355v79q-124 -82 -269 -84q-103 -1 -188 25t-153 72.5t-118.5 110t-84.5 137.5t-52.5 155t-21.5 163q-3 87 12.5 174t49 166t86 147t123.5 118t160 78t196 28q78 -1 145 -17.5t125 -47.5v16t0.5 25t0.5 24v14h338zM667 1015q-60 -2 -108.5 -29.5t-82.5 -75.5
t-51.5 -113t-14.5 -141q1 -35 8.5 -74t22 -77t35.5 -72.5t49.5 -61t64.5 -42.5t80 -16q73 0 129 33t94 86.5t58 120.5t20 134q0 64 -20 124.5t-59 107t-95.5 73.5t-129.5 23zM681 1547l-45 -104l-210 83l129 298h225l157 -290l-204 -94z" />
    <glyph glyph-name="adieresis" unicode="&#xe4;" horiz-adv-x="1400" 
d="M1321 -15h-355v79q-124 -82 -269 -84q-103 -1 -188 25t-153 72.5t-118.5 110t-84.5 137.5t-52.5 155t-21.5 163q-3 87 12.5 174t49 166t86 147t123.5 118t160 78t196 28q78 -1 145 -17.5t125 -47.5v16t0.5 25t0.5 24v14h338zM667 1015q-60 -2 -108.5 -29.5t-82.5 -75.5
t-51.5 -113t-14.5 -141q1 -35 8.5 -74t22 -77t35.5 -72.5t49.5 -61t64.5 -42.5t80 -16q73 0 129 33t94 86.5t58 120.5t20 134q0 64 -20 124.5t-59 107t-95.5 73.5t-129.5 23zM559 1500q-42 -1 -70.5 16t-42.5 44t-14 58.5t13.5 59t41 46t68.5 18.5q37 0 63 -17.5t40 -44
t15 -57.5t-11 -58t-37.5 -45.5t-65.5 -19.5zM851 1495q-42 -1 -70.5 16.5t-43 44t-15 58.5t13 59t41 45.5t68.5 18.5q38 0 64 -17.5t40 -44t15 -57.5t-11 -58t-37.5 -45.5t-64.5 -19.5z" />
    <glyph glyph-name="agrave" unicode="&#xe0;" horiz-adv-x="1400" 
d="M1321 -15h-355v79q-124 -82 -269 -84q-103 -1 -188 25t-153 72.5t-118.5 110t-84.5 137.5t-52.5 155t-21.5 163q-3 87 12.5 174t49 166t86 147t123.5 118t160 78t196 28q78 -1 145 -17.5t125 -47.5v16t0.5 25t0.5 24v14h338zM667 1015q-60 -2 -108.5 -29.5t-82.5 -75.5
t-51.5 -113t-14.5 -141q1 -35 8.5 -74t22 -77t35.5 -72.5t49.5 -61t64.5 -42.5t80 -16q73 0 129 33t94 86.5t58 120.5t20 134q0 64 -20 124.5t-59 107t-95.5 73.5t-129.5 23zM844 1539l-138 -109l-156 207l138 102z" />
    <glyph glyph-name="amacron" unicode="&#x101;" horiz-adv-x="1400" 
d="M1321 -15h-355v79q-124 -82 -269 -84q-103 -1 -188 25t-153 72.5t-118.5 110t-84.5 137.5t-52.5 155t-21.5 163q-3 87 12.5 174t49 166t86 147t123.5 118t160 78t196 28q78 -1 145 -17.5t125 -47.5v16t0.5 25t0.5 24v14h338zM667 1015q-60 -2 -108.5 -29.5t-82.5 -75.5
t-51.5 -113t-14.5 -141q1 -35 8.5 -74t22 -77t35.5 -72.5t49.5 -61t64.5 -42.5t80 -16q73 0 129 33t94 86.5t58 120.5t20 134q0 64 -20 124.5t-59 107t-95.5 73.5t-129.5 23zM440 1697l468 3v-188h-468v185z" />
    <glyph glyph-name="aring" unicode="&#xe5;" horiz-adv-x="1400" 
d="M1321 -15h-355v79q-124 -82 -269 -84q-103 -1 -188 25t-153 72.5t-118.5 110t-84.5 137.5t-52.5 155t-21.5 163q-3 87 12.5 174t49 166t86 147t123.5 118t160 78t196 28q78 -1 145 -17.5t125 -47.5v16t0.5 25t0.5 24v14h338zM667 1015q-60 -2 -108.5 -29.5t-82.5 -75.5
t-51.5 -113t-14.5 -141q1 -35 8.5 -74t22 -77t35.5 -72.5t49.5 -61t64.5 -42.5t80 -16q73 0 129 33t94 86.5t58 120.5t20 134q0 64 -20 124.5t-59 107t-95.5 73.5t-129.5 23zM709 1447q-69 -2 -114.5 25.5t-69 69.5t-24 92t21.5 93t66.5 72t111.5 29q61 0 103 -27.5
t64.5 -69.5t24 -90.5t-18 -91t-60.5 -71.5t-105 -31zM702 1599q22 0 32.5 13t10 28t-12 27.5t-33.5 12.5q-23 0 -34.5 -13t-11.5 -28.5t12.5 -28t36.5 -11.5z" />
    <glyph glyph-name="atilde" unicode="&#xe3;" horiz-adv-x="1400" 
d="M1321 -15h-355v79q-124 -82 -269 -84q-103 -1 -188 25t-153 72.5t-118.5 110t-84.5 137.5t-52.5 155t-21.5 163q-3 87 12.5 174t49 166t86 147t123.5 118t160 78t196 28q78 -1 145 -17.5t125 -47.5v16t0.5 25t0.5 24v14h338zM667 1015q-60 -2 -108.5 -29.5t-82.5 -75.5
t-51.5 -113t-14.5 -141q1 -35 8.5 -74t22 -77t35.5 -72.5t49.5 -61t64.5 -42.5t80 -16q73 0 129 33t94 86.5t58 120.5t20 134q0 64 -20 124.5t-59 107t-95.5 73.5t-129.5 23zM376 1631q39 69 80 100t84 34.5t88 -13.5t91 -44q36 -21 58 -25.5t38 2.5t28 23.5l28 38.5
l158 -74q-27 -58 -66 -97.5t-84.5 -56.5t-95.5 -10.5t-100 40.5q-29 20 -54 34t-46.5 15t-41.5 -15.5t-39 -56.5z" />
    <glyph glyph-name="ae" unicode="&#xe6;" horiz-adv-x="2121" 
d="M2072 243q-66 -72 -149.5 -124.5t-173.5 -85.5t-181.5 -47t-173.5 -9q-81 5 -157.5 26.5t-144.5 59.5v-3q-52 -38 -103 -62.5t-98 -38.5t-88 -19.5t-74 -5.5q-103 -1 -188 25t-153 72.5t-118.5 110t-84.5 137.5t-52.5 155t-21.5 163q-3 87 12.5 174t49 166.5t86 147.5
t123.5 118t160 78t196 27q30 0 67 -5.5t76.5 -15.5t79 -25.5t74.5 -35.5q81 68 186 108.5t237 42.5q114 1 205 -33t159.5 -94t115.5 -141t73.5 -173t33.5 -191t-5 -195l-936 -3q16 -66 48 -117.5t74 -87t93 -54.5t107 -20q44 0 96.5 10t106 31.5t103.5 53.5t89 75zM702 267
q42 -1 78.5 10.5t67.5 32.5q-38 73 -57.5 160.5t-17.5 190.5q2 143 56 278q-29 14 -60.5 23t-69.5 7q-60 -2 -108.5 -30t-82.5 -75.5t-51.5 -112.5t-14.5 -141q1 -35 8.5 -74t22 -77t35.5 -72.5t49.5 -61t64.5 -42.5t80 -16zM1730 865q-8 47 -30 82.5t-55 60t-73.5 38
t-83.5 16.5q-52 4 -105 -7t-99 -35t-81 -61t-51 -86z" />
    <glyph glyph-name="aeacute" unicode="&#x1fd;" horiz-adv-x="2121" 
d="M2072 243q-66 -72 -149.5 -124.5t-173.5 -85.5t-181.5 -47t-173.5 -9q-81 5 -157.5 26.5t-144.5 59.5v-3q-52 -38 -103 -62.5t-98 -38.5t-88 -19.5t-74 -5.5q-103 -1 -188 25t-153 72.5t-118.5 110t-84.5 137.5t-52.5 155t-21.5 163q-3 87 12.5 174t49 166.5t86 147.5
t123.5 118t160 78t196 27q30 0 67 -5.5t76.5 -15.5t79 -25.5t74.5 -35.5q81 68 186 108.5t237 42.5q114 1 205 -33t159.5 -94t115.5 -141t73.5 -173t33.5 -191t-5 -195l-936 -3q16 -66 48 -117.5t74 -87t93 -54.5t107 -20q44 0 96.5 10t106 31.5t103.5 53.5t89 75zM702 267
q42 -1 78.5 10.5t67.5 32.5q-38 73 -57.5 160.5t-17.5 190.5q2 143 56 278q-29 14 -60.5 23t-69.5 7q-60 -2 -108.5 -30t-82.5 -75.5t-51.5 -112.5t-14.5 -141q1 -35 8.5 -74t22 -77t35.5 -72.5t49.5 -61t64.5 -42.5t80 -16zM1730 865q-8 47 -30 82.5t-55 60t-73.5 38
t-83.5 16.5q-52 4 -105 -7t-99 -35t-81 -61t-51 -86zM1072 1761l138 -102l-166 -210l-128 112z" />
    <glyph glyph-name="cacute" unicode="&#x107;" horiz-adv-x="1314" 
d="M1253 313q-42 -65 -102 -120t-131 -95.5t-150.5 -63.5t-161.5 -24q-128 -1 -230 36t-178.5 101.5t-127 151t-75 183.5t-24.5 200t26 200.5t76.5 184.5t126 152t175.5 102.5t224 37.5q87 0 165 -19t146.5 -59t127.5 -103t108 -152l-300 -144q-15 28 -44 54.5t-67 46
t-82.5 30.5t-92.5 7q-69 -5 -121.5 -37t-87 -80.5t-51.5 -109t-16.5 -122.5t19.5 -120.5t55.5 -104.5t91.5 -74.5t129 -28.5q40 0 83 10.5t83.5 31.5t76 52t60.5 72zM668 1761l138 -102l-166 -210l-128 112z" />
    <glyph glyph-name="ccaron" unicode="&#x10d;" horiz-adv-x="1314" 
d="M1253 313q-42 -65 -102 -120t-131 -95.5t-150.5 -63.5t-161.5 -24q-128 -1 -230 36t-178.5 101.5t-127 151t-75 183.5t-24.5 200t26 200.5t76.5 184.5t126 152t175.5 102.5t224 37.5q87 0 165 -19t146.5 -59t127.5 -103t108 -152l-300 -144q-15 28 -44 54.5t-67 46
t-82.5 30.5t-92.5 7q-69 -5 -121.5 -37t-87 -80.5t-51.5 -109t-16.5 -122.5t19.5 -120.5t55.5 -104.5t91.5 -74.5t129 -28.5q40 0 83 10.5t83.5 31.5t76 52t60.5 72zM659 1736l35 68l163 -55l-101 -195l-174 -2l-122 192l158 62z" />
    <glyph glyph-name="ccedilla" unicode="&#xe7;" horiz-adv-x="1314" 
d="M614 -192q13 -9 33 -18t42.5 -15.5t44.5 -9.5t39.5 0.5t28 14.5t9.5 33q-1 21 -18 34t-41.5 20t-53 10t-53 4t-40.5 2.5t-15 5.5l8 128h-2q-111 16 -198 63.5t-150.5 117t-104 156.5t-57.5 182t-11 193t34.5 189.5t80 172t125.5 140t170.5 94t215.5 34.5q87 0 166 -21.5
t145.5 -61.5t117 -97.5t80.5 -129.5l-300 -144q-33 59 -93 90.5t-155 24.5q-69 -5 -121.5 -37t-87 -80.5t-51.5 -109t-16.5 -122.5t19.5 -120.5t55.5 -104.5t91.5 -74.5t129 -28.5q40 0 80 13.5t76 35t66 48t51 52.5l269 -196q-38 -54 -89.5 -103t-114 -88t-134 -64
t-149.5 -30q-2 -12 -1 -24t7 -20q107 -6 168 -49t60 -113q-1 -39 -21 -68.5t-52.5 -50t-73.5 -31t-83.5 -12t-83 7.5t-72.5 28v2z" />
    <glyph glyph-name="ccircumflex" unicode="&#x109;" horiz-adv-x="1314" 
d="M1253 313q-42 -65 -102 -120t-131 -95.5t-150.5 -63.5t-161.5 -24q-128 -1 -230 36t-178.5 101.5t-127 151t-75 183.5t-24.5 200t26 200.5t76.5 184.5t126 152t175.5 102.5t224 37.5q87 0 165 -19t146.5 -59t127.5 -103t108 -152l-300 -144q-15 28 -44 54.5t-67 46
t-82.5 30.5t-92.5 7q-69 -5 -121.5 -37t-87 -80.5t-51.5 -109t-16.5 -122.5t19.5 -120.5t55.5 -104.5t91.5 -74.5t129 -28.5q40 0 83 10.5t83.5 31.5t76 52t60.5 72zM638 1547l-45 -104l-210 83l129 298h225l157 -290l-204 -94z" />
    <glyph glyph-name="cdotaccent" unicode="&#x10b;" horiz-adv-x="1314" 
d="M1253 313q-42 -65 -102 -120t-131 -95.5t-150.5 -63.5t-161.5 -24q-128 -1 -230 36t-178.5 101.5t-127 151t-75 183.5t-24.5 200t26 200.5t76.5 184.5t126 152t175.5 102.5t224 37.5q87 0 165 -19t146.5 -59t127.5 -103t108 -152l-300 -144q-15 28 -44 54.5t-67 46
t-82.5 30.5t-92.5 7q-69 -5 -121.5 -37t-87 -80.5t-51.5 -109t-16.5 -122.5t19.5 -120.5t55.5 -104.5t91.5 -74.5t129 -28.5q40 0 83 10.5t83.5 31.5t76 52t60.5 72zM663 1492q-44 -2 -73.5 16t-44.5 45.5t-15.5 60t14 60.5t43 46.5t71.5 18.5q39 0 66 -18t41.5 -45
t15.5 -58.5t-11.5 -59t-39 -46.5t-67.5 -20z" />
    <glyph glyph-name="eacute" unicode="&#xe9;" horiz-adv-x="1422" 
d="M1368 243q-66 -72 -149.5 -124.5t-173.5 -85.5t-181.5 -47t-173.5 -9q-124 6 -237 54t-198 134.5t-134.5 211t-46.5 284.5q1 85 21 170.5t58.5 164.5t95 148t131.5 120t168.5 81t205.5 32q114 1 205 -33t159.5 -94t115.5 -141t73.5 -173t33.5 -191t-5 -195l-936 -3
q16 -66 48 -117.5t74 -87t93 -54.5t107 -20q44 0 96.5 10t106 31.5t103.5 53.5t89 75zM1026 865q-8 47 -30 82.5t-55 60t-73.5 38t-83.5 16.5q-52 4 -105 -7t-99 -35t-81 -61t-51 -86zM722 1761l138 -102l-166 -210l-128 112z" />
    <glyph glyph-name="ebreve" unicode="&#x115;" horiz-adv-x="1422" 
d="M1368 243q-66 -72 -149.5 -124.5t-173.5 -85.5t-181.5 -47t-173.5 -9q-124 6 -237 54t-198 134.5t-134.5 211t-46.5 284.5q1 85 21 170.5t58.5 164.5t95 148t131.5 120t168.5 81t205.5 32q114 1 205 -33t159.5 -94t115.5 -141t73.5 -173t33.5 -191t-5 -195l-936 -3
q16 -66 48 -117.5t74 -87t93 -54.5t107 -20q44 0 96.5 10t106 31.5t103.5 53.5t89 75zM1026 865q-8 47 -30 82.5t-55 60t-73.5 38t-83.5 16.5q-52 4 -105 -7t-99 -35t-81 -61t-51 -86zM1014 1545q-29 -27 -77.5 -45t-107 -28t-122 -11t-122.5 7t-108 25.5t-78 44.5l97 172
q32 -29 71.5 -42.5t80.5 -15.5t81.5 4t75 16t60.5 21t39 18z" />
    <glyph glyph-name="ecaron" unicode="&#x11b;" horiz-adv-x="1422" 
d="M1368 243q-66 -72 -149.5 -124.5t-173.5 -85.5t-181.5 -47t-173.5 -9q-124 6 -237 54t-198 134.5t-134.5 211t-46.5 284.5q1 85 21 170.5t58.5 164.5t95 148t131.5 120t168.5 81t205.5 32q114 1 205 -33t159.5 -94t115.5 -141t73.5 -173t33.5 -191t-5 -195l-936 -3
q16 -66 48 -117.5t74 -87t93 -54.5t107 -20q44 0 96.5 10t106 31.5t103.5 53.5t89 75zM1026 865q-8 47 -30 82.5t-55 60t-73.5 38t-83.5 16.5q-52 4 -105 -7t-99 -35t-81 -61t-51 -86zM713 1736l35 68l163 -55l-101 -195l-174 -2l-122 192l158 62z" />
    <glyph glyph-name="ecircumflex" unicode="&#xea;" horiz-adv-x="1422" 
d="M1368 243q-66 -72 -149.5 -124.5t-173.5 -85.5t-181.5 -47t-173.5 -9q-124 6 -237 54t-198 134.5t-134.5 211t-46.5 284.5q1 85 21 170.5t58.5 164.5t95 148t131.5 120t168.5 81t205.5 32q114 1 205 -33t159.5 -94t115.5 -141t73.5 -173t33.5 -191t-5 -195l-936 -3
q16 -66 48 -117.5t74 -87t93 -54.5t107 -20q44 0 96.5 10t106 31.5t103.5 53.5t89 75zM1026 865q-8 47 -30 82.5t-55 60t-73.5 38t-83.5 16.5q-52 4 -105 -7t-99 -35t-81 -61t-51 -86zM692 1547l-45 -104l-210 83l129 298h225l157 -290l-204 -94z" />
    <glyph glyph-name="edieresis" unicode="&#xeb;" horiz-adv-x="1422" 
d="M1368 243q-66 -72 -149.5 -124.5t-173.5 -85.5t-181.5 -47t-173.5 -9q-124 6 -237 54t-198 134.5t-134.5 211t-46.5 284.5q1 85 21 170.5t58.5 164.5t95 148t131.5 120t168.5 81t205.5 32q114 1 205 -33t159.5 -94t115.5 -141t73.5 -173t33.5 -191t-5 -195l-936 -3
q16 -66 48 -117.5t74 -87t93 -54.5t107 -20q44 0 96.5 10t106 31.5t103.5 53.5t89 75zM1026 865q-8 47 -30 82.5t-55 60t-73.5 38t-83.5 16.5q-52 4 -105 -7t-99 -35t-81 -61t-51 -86zM570 1500q-42 -1 -70.5 16t-42.5 44t-14 58.5t13.5 59t41 46t68.5 18.5q37 0 63 -17.5
t40 -44t15 -57.5t-11 -58t-37.5 -45.5t-65.5 -19.5zM862 1495q-42 -1 -70.5 16.5t-43 44t-15 58.5t13 59t41 45.5t68.5 18.5q38 0 64 -17.5t40 -44t15 -57.5t-11 -58t-37.5 -45.5t-64.5 -19.5z" />
    <glyph glyph-name="edotaccent" unicode="&#x117;" horiz-adv-x="1422" 
d="M1368 243q-66 -72 -149.5 -124.5t-173.5 -85.5t-181.5 -47t-173.5 -9q-124 6 -237 54t-198 134.5t-134.5 211t-46.5 284.5q1 85 21 170.5t58.5 164.5t95 148t131.5 120t168.5 81t205.5 32q114 1 205 -33t159.5 -94t115.5 -141t73.5 -173t33.5 -191t-5 -195l-936 -3
q16 -66 48 -117.5t74 -87t93 -54.5t107 -20q44 0 96.5 10t106 31.5t103.5 53.5t89 75zM1026 865q-8 47 -30 82.5t-55 60t-73.5 38t-83.5 16.5q-52 4 -105 -7t-99 -35t-81 -61t-51 -86zM717 1492q-44 -2 -73.5 16t-44.5 45.5t-15.5 60t14 60.5t43 46.5t71.5 18.5q39 0 66 -18
t41.5 -45t15.5 -58.5t-11.5 -59t-39 -46.5t-67.5 -20z" />
    <glyph glyph-name="egrave" unicode="&#xe8;" horiz-adv-x="1422" 
d="M1368 243q-66 -72 -149.5 -124.5t-173.5 -85.5t-181.5 -47t-173.5 -9q-124 6 -237 54t-198 134.5t-134.5 211t-46.5 284.5q1 85 21 170.5t58.5 164.5t95 148t131.5 120t168.5 81t205.5 32q114 1 205 -33t159.5 -94t115.5 -141t73.5 -173t33.5 -191t-5 -195l-936 -3
q16 -66 48 -117.5t74 -87t93 -54.5t107 -20q44 0 96.5 10t106 31.5t103.5 53.5t89 75zM1026 865q-8 47 -30 82.5t-55 60t-73.5 38t-83.5 16.5q-52 4 -105 -7t-99 -35t-81 -61t-51 -86zM855 1539l-138 -109l-156 207l138 102z" />
    <glyph glyph-name="emacron" unicode="&#x113;" horiz-adv-x="1422" 
d="M1368 243q-66 -72 -149.5 -124.5t-173.5 -85.5t-181.5 -47t-173.5 -9q-124 6 -237 54t-198 134.5t-134.5 211t-46.5 284.5q1 85 21 170.5t58.5 164.5t95 148t131.5 120t168.5 81t205.5 32q114 1 205 -33t159.5 -94t115.5 -141t73.5 -173t33.5 -191t-5 -195l-936 -3
q16 -66 48 -117.5t74 -87t93 -54.5t107 -20q44 0 96.5 10t106 31.5t103.5 53.5t89 75zM1026 865q-8 47 -30 82.5t-55 60t-73.5 38t-83.5 16.5q-52 4 -105 -7t-99 -35t-81 -61t-51 -86zM451 1697l468 3v-188h-468v185z" />
    <glyph glyph-name="gbreve" unicode="&#x11f;" horiz-adv-x="1399" 
d="M1310 1372q3 -187 8 -368t5 -354t-8 -337.5t-31 -318.5q-17 -114 -69 -201t-131 -145t-180 -86t-216 -25q-116 3 -204 19.5t-152.5 40.5t-107.5 52t-69 55l178 281q43 -41 104.5 -69t128.5 -40t133 -6t119 33.5t87.5 78t37.5 128.5q-51 -23 -108 -35t-122 -13
q-128 -1 -230 34.5t-178.5 97t-127 144.5t-75 176t-24.5 191.5t26 192t76.5 176.5t126 145.5t175.5 98.5t224 36q72 0 134 -14.5t116 -40.5v6v13t0.5 21t1.5 20.5t3 12.5h349zM667 1015q-70 -4 -122 -32.5t-86.5 -73t-51.5 -99.5t-16.5 -112t19.5 -111.5t55.5 -97
t91.5 -68.5t129 -26q73 0 127.5 27t90 72t52.5 102t15 116t-22 115.5t-58 99.5t-94 67.5t-130 20.5zM1002 1545q-29 -27 -77.5 -45t-107 -28t-122 -11t-122.5 7t-108 25.5t-78 44.5l97 172q32 -29 71.5 -42.5t80.5 -15.5t81.5 4t75 16t60.5 21t39 18z" />
    <glyph glyph-name="gcircumflex" unicode="&#x11d;" horiz-adv-x="1399" 
d="M1310 1372q3 -187 8 -368t5 -354t-8 -337.5t-31 -318.5q-17 -114 -69 -201t-131 -145t-180 -86t-216 -25q-116 3 -204 19.5t-152.5 40.5t-107.5 52t-69 55l178 281q43 -41 104.5 -69t128.5 -40t133 -6t119 33.5t87.5 78t37.5 128.5q-51 -23 -108 -35t-122 -13
q-128 -1 -230 34.5t-178.5 97t-127 144.5t-75 176t-24.5 191.5t26 192t76.5 176.5t126 145.5t175.5 98.5t224 36q72 0 134 -14.5t116 -40.5v6v13t0.5 21t1.5 20.5t3 12.5h349zM667 1015q-70 -4 -122 -32.5t-86.5 -73t-51.5 -99.5t-16.5 -112t19.5 -111.5t55.5 -97
t91.5 -68.5t129 -26q73 0 127.5 27t90 72t52.5 102t15 116t-22 115.5t-58 99.5t-94 67.5t-130 20.5zM681 1547l-45 -104l-210 83l129 298h225l157 -290l-204 -94z" />
    <glyph glyph-name="gdotaccent" unicode="&#x121;" horiz-adv-x="1399" 
d="M1310 1372q3 -187 8 -368t5 -354t-8 -337.5t-31 -318.5q-17 -114 -69 -201t-131 -145t-180 -86t-216 -25q-116 3 -204 19.5t-152.5 40.5t-107.5 52t-69 55l178 281q43 -41 104.5 -69t128.5 -40t133 -6t119 33.5t87.5 78t37.5 128.5q-51 -23 -108 -35t-122 -13
q-128 -1 -230 34.5t-178.5 97t-127 144.5t-75 176t-24.5 191.5t26 192t76.5 176.5t126 145.5t175.5 98.5t224 36q72 0 134 -14.5t116 -40.5v6v13t0.5 21t1.5 20.5t3 12.5h349zM667 1015q-70 -4 -122 -32.5t-86.5 -73t-51.5 -99.5t-16.5 -112t19.5 -111.5t55.5 -97
t91.5 -68.5t129 -26q73 0 127.5 27t90 72t52.5 102t15 116t-22 115.5t-58 99.5t-94 67.5t-130 20.5zM705 1492q-44 -2 -73.5 16t-44.5 45.5t-15.5 60t14 60.5t43 46.5t71.5 18.5q39 0 66 -18t41.5 -45t15.5 -58.5t-11.5 -59t-39 -46.5t-67.5 -20z" />
    <glyph glyph-name="hcircumflex" unicode="&#x125;" horiz-adv-x="1263" 
d="M408 1193q16 8 32 15t33 14q166 67 292 70t214.5 -61t139 -198t64.5 -342q5 -72 7.5 -155t3.5 -173t-1 -185t-6 -189h-331q4 92 7.5 184t5.5 177t1.5 158.5t-3.5 129.5q-6 97 -23.5 165t-54.5 104.5t-96.5 39t-149.5 -32.5q-76 -29 -132 -72l5 -853h-355q0 35 0.5 103.5
t1 161t0.5 203.5v231t0.5 243.5t0.5 240t0.5 221.5t0.5 188.5t0.5 139.5t1.5 76h338zM721 1758l-45 -104l-210 83l129 298h225l157 -290l-204 -94z" />
    <glyph glyph-name="iacute" unicode="&#xed;" horiz-adv-x="512" 
d="M433 -11h-355l14 1266h338zM267 1761l138 -102l-166 -210l-128 112z" />
    <glyph glyph-name="ibreve" unicode="&#x12d;" horiz-adv-x="512" 
d="M433 -11h-355l14 1266h338zM560 1545q-29 -27 -77.5 -45t-107 -28t-122 -11t-122.5 7t-108 25.5t-78 44.5l97 172q32 -29 71.5 -42.5t80.5 -15.5t81.5 4t75 16t60.5 21t39 18z" />
    <glyph glyph-name="icircumflex" unicode="&#xee;" horiz-adv-x="512" 
d="M433 -11h-355l14 1266h338zM239 1547l-45 -104l-210 83l129 298h225l157 -290l-204 -94z" />
    <glyph glyph-name="idieresis" unicode="&#xef;" horiz-adv-x="512" 
d="M433 -11h-355l14 1266h338zM117 1500q-42 -1 -70.5 16t-42.5 44t-14 58.5t13.5 59t41 46t68.5 18.5q37 0 63 -17.5t40 -44t15 -57.5t-11 -58t-37.5 -45.5t-65.5 -19.5zM409 1495q-42 -1 -70.5 16.5t-43 44t-15 58.5t13 59t41 45.5t68.5 18.5q38 0 64 -17.5t40 -44
t15 -57.5t-11 -58t-37.5 -45.5t-64.5 -19.5z" />
    <glyph glyph-name="igrave" unicode="&#xec;" horiz-adv-x="512" 
d="M433 -11h-355l14 1266h338zM400 1539l-138 -109l-156 207l138 102z" />
    <glyph glyph-name="imacron" unicode="&#x12b;" horiz-adv-x="512" 
d="M433 -11h-355l14 1266h338zM-3 1697l468 3v-188h-468v185z" />
    <glyph glyph-name="itilde" unicode="&#x129;" horiz-adv-x="512" 
d="M433 -11h-355l14 1266h338zM-67 1631q39 69 80 100t84 34.5t88 -13.5t91 -44q36 -21 58 -25.5t38 2.5t28 23.5l28 38.5l158 -74q-27 -58 -66 -97.5t-84.5 -56.5t-95.5 -10.5t-100 40.5q-29 20 -54 34t-46.5 15t-41.5 -15.5t-39 -56.5z" />
    <glyph glyph-name="dotlessj" unicode="&#x237;" horiz-adv-x="544" 
d="M451 1234q4 -122 6.5 -236t3.5 -216.5t0 -191t-3 -158.5q-5 -195 -28.5 -347t-77.5 -261q-59 -119 -162.5 -185t-266.5 -75q-51 -3 -109 6t-111 26.5t-96 42.5t-64 55l171 258q40 -28 77 -41q55 -20 101 -17t82.5 25.5t62 64t39.5 98.5q17 69 23.5 159t9.5 196
q4 133 1.5 332.5t-14.5 464.5h355z" />
    <glyph glyph-name="jcircumflex" unicode="&#x135;" horiz-adv-x="544" 
d="M451 1234q4 -122 6.5 -236t3.5 -216.5t0 -191t-3 -158.5q-5 -195 -28.5 -347t-77.5 -261q-59 -119 -162.5 -185t-266.5 -75q-51 -3 -109 6t-111 26.5t-96 42.5t-64 55l171 258q40 -28 77 -41q55 -20 101 -17t82.5 25.5t62 64t39.5 98.5q17 69 23.5 159t9.5 196
q4 133 1.5 332.5t-14.5 464.5h355zM255 1547l-45 -104l-210 83l129 298h225l157 -290l-204 -94z" />
    <glyph glyph-name="kcommaaccent" unicode="&#x137;" horiz-adv-x="1373" 
d="M410 958l518 395l198 -296q-25 -18 -68.5 -50.5t-100.5 -75t-125.5 -93.5t-143.5 -106l651 -500l-232 -270q-22 17 -62.5 49t-94 74t-117.5 92.5t-134 105t-142.5 111.5t-143.5 112l3 -530h-355q0 35 0.5 104t1 162t0.5 205v232.5t0.5 244.5t0.5 242t0.5 223.5t0.5 189.5
t0.5 140.5t1.5 76.5h338zM755 -51q46 -80 42 -150.5t-54 -149.5l-146 51q28 43 36 72t5 50t-12.5 37t-15.5 32z" />
    <glyph glyph-name="lacute" unicode="&#x13a;" horiz-adv-x="482" 
d="M416 -13h-355l6 1817h338zM241 2182l138 -102l-166 -210l-128 112z" />
    <glyph glyph-name="lcommaaccent" unicode="&#x13c;" horiz-adv-x="482" 
d="M416 -13h-355l6 1817h338zM298 -137q46 -80 42 -150.5t-54 -149.5l-146 51q28 43 36 72t5 50t-12.5 37t-15.5 32z" />
    <glyph glyph-name="ldot" unicode="&#x140;" horiz-adv-x="809" 
d="M416 -13h-355l6 1817h338zM587 828q-44 -2 -73.5 16t-44.5 45.5t-15.5 60t14 60.5t43 46.5t71.5 18.5q39 0 66 -18t41.5 -45t15.5 -58.5t-11.5 -59t-39 -46.5t-67.5 -20z" />
    <glyph glyph-name="nacute" unicode="&#x144;" horiz-adv-x="1284" 
d="M424 1193q16 8 32 15t33 14q166 67 292 70t214.5 -61t139 -198t64.5 -342q5 -72 7.5 -154t3.5 -170.5t-1 -182.5t-6 -188h-331q4 92 7.5 183t5.5 174.5t1.5 156t-3.5 128.5q-6 97 -23.5 165t-54.5 104.5t-96.5 39t-149.5 -32.5q-76 -29 -132 -72l5 -846h-355
q1 43 1 116.5t0.5 165.5t0.5 196t0.5 208.5t0.5 203.5t0.5 181t1 141.5t1.5 83.5h338zM653 1761l138 -102l-166 -210l-128 112z" />
    <glyph glyph-name="napostrophe" unicode="&#x149;" horiz-adv-x="1284" 
d="M424 1193q16 8 32 15t33 14q166 67 292 70t214.5 -61t139 -198t64.5 -342q5 -72 7.5 -154t3.5 -170.5t-1 -182.5t-6 -188h-331q4 92 7.5 183t5.5 174.5t1.5 156t-3.5 128.5q-6 97 -23.5 165t-54.5 104.5t-96.5 39t-149.5 -32.5q-76 -29 -132 -72l5 -846h-355
q1 43 1 116.5t0.5 165.5t0.5 196t0.5 208.5t0.5 203.5t0.5 181t1 141.5t1.5 83.5h338zM316 1758q46 -80 42 -150.5t-54 -149.5l-146 51q28 43 36 72t5 50t-12.5 37t-15.5 32z" />
    <glyph glyph-name="ncaron" unicode="&#x148;" horiz-adv-x="1284" 
d="M424 1193q16 8 32 15t33 14q166 67 292 70t214.5 -61t139 -198t64.5 -342q5 -72 7.5 -154t3.5 -170.5t-1 -182.5t-6 -188h-331q4 92 7.5 183t5.5 174.5t1.5 156t-3.5 128.5q-6 97 -23.5 165t-54.5 104.5t-96.5 39t-149.5 -32.5q-76 -29 -132 -72l5 -846h-355
q1 43 1 116.5t0.5 165.5t0.5 196t0.5 208.5t0.5 203.5t0.5 181t1 141.5t1.5 83.5h338zM779 1640l35 68l163 -55l-101 -195l-174 -2l-122 192l158 62z" />
    <glyph glyph-name="ncommaaccent" unicode="&#x146;" horiz-adv-x="1284" 
d="M424 1193q16 8 32 15t33 14q166 67 292 70t214.5 -61t139 -198t64.5 -342q5 -72 7.5 -154t3.5 -170.5t-1 -182.5t-6 -188h-331q4 92 7.5 183t5.5 174.5t1.5 156t-3.5 128.5q-6 97 -23.5 165t-54.5 104.5t-96.5 39t-149.5 -32.5q-76 -29 -132 -72l5 -846h-355
q1 43 1 116.5t0.5 165.5t0.5 196t0.5 208.5t0.5 203.5t0.5 181t1 141.5t1.5 83.5h338zM710 -51q46 -80 42 -150.5t-54 -149.5l-146 51q28 43 36 72t5 50t-12.5 37t-15.5 32z" />
    <glyph glyph-name="ntilde" unicode="&#xf1;" horiz-adv-x="1284" 
d="M424 1193q16 8 32 15t33 14q166 67 292 70t214.5 -61t139 -198t64.5 -342q5 -72 7.5 -154t3.5 -170.5t-1 -182.5t-6 -188h-331q4 92 7.5 183t5.5 174.5t1.5 156t-3.5 128.5q-6 97 -23.5 165t-54.5 104.5t-96.5 39t-149.5 -32.5q-76 -29 -132 -72l5 -846h-355
q1 43 1 116.5t0.5 165.5t0.5 196t0.5 208.5t0.5 203.5t0.5 181t1 141.5t1.5 83.5h338zM318 1631q39 69 80 100t84 34.5t88 -13.5t91 -44q36 -21 58 -25.5t38 2.5t28 23.5l28 38.5l158 -74q-27 -58 -66 -97.5t-84.5 -56.5t-95.5 -10.5t-100 40.5q-29 20 -54 34t-46.5 15
t-41.5 -15.5t-39 -56.5z" />
    <glyph glyph-name="oacute" unicode="&#xf3;" horiz-adv-x="1376" 
d="M713 5q-128 -1 -230 36t-178.5 101.5t-127 151t-75 183.5t-24.5 200t26 200.5t76.5 184.5t126 152t175.5 102.5t224 37.5q119 0 213.5 -38t165.5 -102.5t118 -150.5t70.5 -182.5t23.5 -199t-23.5 -199.5t-70.5 -183t-117 -151t-163.5 -103.5t-209.5 -39.5zM667 1015
q-70 -4 -122 -35t-86.5 -79.5t-51.5 -108.5t-16.5 -122.5t19.5 -122t55.5 -106t91.5 -75t129 -28.5q73 0 127.5 29.5t90 78.5t52.5 111t15 126.5t-22 126t-58 108.5t-94 74t-130 23zM699 1761l138 -102l-166 -210l-128 112z" />
    <glyph glyph-name="obreve" unicode="&#x14f;" horiz-adv-x="1376" 
d="M713 5q-128 -1 -230 36t-178.5 101.5t-127 151t-75 183.5t-24.5 200t26 200.5t76.5 184.5t126 152t175.5 102.5t224 37.5q119 0 213.5 -38t165.5 -102.5t118 -150.5t70.5 -182.5t23.5 -199t-23.5 -199.5t-70.5 -183t-117 -151t-163.5 -103.5t-209.5 -39.5zM667 1015
q-70 -4 -122 -35t-86.5 -79.5t-51.5 -108.5t-16.5 -122.5t19.5 -122t55.5 -106t91.5 -75t129 -28.5q73 0 127.5 29.5t90 78.5t52.5 111t15 126.5t-22 126t-58 108.5t-94 74t-130 23zM991 1545q-29 -27 -77.5 -45t-107 -28t-122 -11t-122.5 7t-108 25.5t-78 44.5l97 172
q32 -29 71.5 -42.5t80.5 -15.5t81.5 4t75 16t60.5 21t39 18z" />
    <glyph glyph-name="ocircumflex" unicode="&#xf4;" horiz-adv-x="1376" 
d="M713 5q-128 -1 -230 36t-178.5 101.5t-127 151t-75 183.5t-24.5 200t26 200.5t76.5 184.5t126 152t175.5 102.5t224 37.5q119 0 213.5 -38t165.5 -102.5t118 -150.5t70.5 -182.5t23.5 -199t-23.5 -199.5t-70.5 -183t-117 -151t-163.5 -103.5t-209.5 -39.5zM667 1015
q-70 -4 -122 -35t-86.5 -79.5t-51.5 -108.5t-16.5 -122.5t19.5 -122t55.5 -106t91.5 -75t129 -28.5q73 0 127.5 29.5t90 78.5t52.5 111t15 126.5t-22 126t-58 108.5t-94 74t-130 23zM669 1547l-45 -104l-210 83l129 298h225l157 -290l-204 -94z" />
    <glyph glyph-name="odieresis" unicode="&#xf6;" horiz-adv-x="1376" 
d="M713 5q-128 -1 -230 36t-178.5 101.5t-127 151t-75 183.5t-24.5 200t26 200.5t76.5 184.5t126 152t175.5 102.5t224 37.5q119 0 213.5 -38t165.5 -102.5t118 -150.5t70.5 -182.5t23.5 -199t-23.5 -199.5t-70.5 -183t-117 -151t-163.5 -103.5t-209.5 -39.5zM667 1015
q-70 -4 -122 -35t-86.5 -79.5t-51.5 -108.5t-16.5 -122.5t19.5 -122t55.5 -106t91.5 -75t129 -28.5q73 0 127.5 29.5t90 78.5t52.5 111t15 126.5t-22 126t-58 108.5t-94 74t-130 23zM547 1500q-42 -1 -70.5 16t-42.5 44t-14 58.5t13.5 59t41 46t68.5 18.5q37 0 63 -17.5
t40 -44t15 -57.5t-11 -58t-37.5 -45.5t-65.5 -19.5zM839 1495q-42 -1 -70.5 16.5t-43 44t-15 58.5t13 59t41 45.5t68.5 18.5q38 0 64 -17.5t40 -44t15 -57.5t-11 -58t-37.5 -45.5t-64.5 -19.5z" />
    <glyph glyph-name="ograve" unicode="&#xf2;" horiz-adv-x="1376" 
d="M713 5q-128 -1 -230 36t-178.5 101.5t-127 151t-75 183.5t-24.5 200t26 200.5t76.5 184.5t126 152t175.5 102.5t224 37.5q119 0 213.5 -38t165.5 -102.5t118 -150.5t70.5 -182.5t23.5 -199t-23.5 -199.5t-70.5 -183t-117 -151t-163.5 -103.5t-209.5 -39.5zM667 1015
q-70 -4 -122 -35t-86.5 -79.5t-51.5 -108.5t-16.5 -122.5t19.5 -122t55.5 -106t91.5 -75t129 -28.5q73 0 127.5 29.5t90 78.5t52.5 111t15 126.5t-22 126t-58 108.5t-94 74t-130 23zM832 1539l-138 -109l-156 207l138 102z" />
    <glyph glyph-name="ohungarumlaut" unicode="&#x151;" horiz-adv-x="1376" 
d="M713 5q-128 -1 -230 36t-178.5 101.5t-127 151t-75 183.5t-24.5 200t26 200.5t76.5 184.5t126 152t175.5 102.5t224 37.5q119 0 213.5 -38t165.5 -102.5t118 -150.5t70.5 -182.5t23.5 -199t-23.5 -199.5t-70.5 -183t-117 -151t-163.5 -103.5t-209.5 -39.5zM667 1015
q-70 -4 -122 -35t-86.5 -79.5t-51.5 -108.5t-16.5 -122.5t19.5 -122t55.5 -106t91.5 -75t129 -28.5q73 0 127.5 29.5t90 78.5t52.5 111t15 126.5t-22 126t-58 108.5t-94 74t-130 23zM559 1734l138 -102l-155 -185l-139 87zM840 1715l138 -102l-146 -193l-148 95z" />
    <glyph glyph-name="omacron" unicode="&#x14d;" horiz-adv-x="1376" 
d="M713 5q-128 -1 -230 36t-178.5 101.5t-127 151t-75 183.5t-24.5 200t26 200.5t76.5 184.5t126 152t175.5 102.5t224 37.5q119 0 213.5 -38t165.5 -102.5t118 -150.5t70.5 -182.5t23.5 -199t-23.5 -199.5t-70.5 -183t-117 -151t-163.5 -103.5t-209.5 -39.5zM667 1015
q-70 -4 -122 -35t-86.5 -79.5t-51.5 -108.5t-16.5 -122.5t19.5 -122t55.5 -106t91.5 -75t129 -28.5q73 0 127.5 29.5t90 78.5t52.5 111t15 126.5t-22 126t-58 108.5t-94 74t-130 23zM428 1697l468 3v-188h-468v185z" />
    <glyph glyph-name="oslash" unicode="&#xf8;" horiz-adv-x="1376" 
d="M1082 1215q71 -64 119 -150t71.5 -183t24 -199.5t-23 -199.5t-70 -183.5t-116.5 -151.5t-163.5 -103.5t-210.5 -39.5q-14 0 -30.5 -0.5t-36.5 1.5l-41 -114l-329 134l40 107q-6 4 -8 6q-77 64 -128 150.5t-76.5 184t-25 200.5t25.5 201t75.5 185t126 152.5t175.5 103.5
t225 38q31 0 61 -3l1 -1l49 131l324 -102zM638 1012q-59 -9 -104 -38.5t-76 -73t-48 -96.5t-19.5 -109t9.5 -110.5t38 -101.5zM770 350q70 21 115 73.5t66.5 120t19 143t-28.5 141.5z" />
    <glyph glyph-name="oslashacute" unicode="&#x1ff;" horiz-adv-x="1376" 
d="M1082 1215q71 -64 119 -150t71.5 -183t24 -199.5t-23 -199.5t-70 -183.5t-116.5 -151.5t-163.5 -103.5t-210.5 -39.5q-14 0 -30.5 -0.5t-36.5 1.5l-41 -114l-329 134l40 107q-6 4 -8 6q-77 64 -128 150.5t-76.5 184t-25 200.5t25.5 201t75.5 185t126 152.5t175.5 103.5
t225 38q31 0 61 -3l1 -1l49 131l324 -102zM638 1012q-59 -9 -104 -38.5t-76 -73t-48 -96.5t-19.5 -109t9.5 -110.5t38 -101.5zM770 350q70 21 115 73.5t66.5 120t19 143t-28.5 141.5zM699 1761l138 -102l-166 -210l-128 112z" />
    <glyph glyph-name="otilde" unicode="&#xf5;" horiz-adv-x="1376" 
d="M713 5q-128 -1 -230 36t-178.5 101.5t-127 151t-75 183.5t-24.5 200t26 200.5t76.5 184.5t126 152t175.5 102.5t224 37.5q119 0 213.5 -38t165.5 -102.5t118 -150.5t70.5 -182.5t23.5 -199t-23.5 -199.5t-70.5 -183t-117 -151t-163.5 -103.5t-209.5 -39.5zM667 1015
q-70 -4 -122 -35t-86.5 -79.5t-51.5 -108.5t-16.5 -122.5t19.5 -122t55.5 -106t91.5 -75t129 -28.5q73 0 127.5 29.5t90 78.5t52.5 111t15 126.5t-22 126t-58 108.5t-94 74t-130 23zM364 1631q39 69 80 100t84 34.5t88 -13.5t91 -44q36 -21 58 -25.5t38 2.5t28 23.5l28 38.5
l158 -74q-27 -58 -66 -97.5t-84.5 -56.5t-95.5 -10.5t-100 40.5q-29 20 -54 34t-46.5 15t-41.5 -15.5t-39 -56.5z" />
    <glyph glyph-name="oe" unicode="&#x153;" horiz-adv-x="2232" 
d="M2184 245q-66 -72 -149.5 -124.5t-173.5 -85.5t-181.5 -47t-173.5 -9q-121 6 -230.5 51t-194.5 127l-2 -6q-70 -65 -162.5 -102.5t-208.5 -38.5q-128 -1 -230 36t-178.5 101.5t-127 151t-75 183.5t-24.5 200t26 200.5t76.5 184.5t126 152t175.5 102.5t224 37.5
q133 -1 234.5 -47t174.5 -124v-4q84 79 198.5 126.5t261.5 49.5q114 1 204.5 -30.5t158.5 -89t115 -135t73.5 -168t34 -189t-3.5 -196.5l-936 -3q16 -66 48 -117.5t74 -87t93 -54.5t107 -20q44 0 96.5 10t106 31.5t103.5 53.5t89 75zM681 343q77 -1 132.5 31t91.5 85
q-11 46 -17 96.5t-4 105.5q1 54 9 108t24 106q-37 67 -100.5 108t-154.5 37q-70 -4 -122 -35t-86.5 -79.5t-51.5 -108.5t-16.5 -122.5t19.5 -122t55.5 -106t91.5 -75t129 -28.5zM1526 1030q-85 -4 -152 -46.5t-110 -108.5l536 2q-15 34 -37.5 63.5t-55.5 50t-77.5 31
t-103.5 8.5z" />
    <glyph glyph-name="racute" unicode="&#x155;" horiz-adv-x="1215" 
d="M418 1226q42 26 100.5 45t125.5 27t139.5 3.5t142.5 -24t133.5 -55t114.5 -90.5l-146 -257q-52 43 -113 66t-123 31t-121.5 2t-109 -22.5t-85 -42t-49.5 -56.5l11 -874h-355q1 40 1 111.5v163v197v213v211t-0.5 190.5t-0.5 151.5v94.5h338zM619 1761l138 -102l-166 -210
l-128 112z" />
    <glyph glyph-name="rcaron" unicode="&#x159;" horiz-adv-x="1215" 
d="M418 1226q42 26 100.5 45t125.5 27t139.5 3.5t142.5 -24t133.5 -55t114.5 -90.5l-146 -257q-52 43 -113 66t-123 31t-121.5 2t-109 -22.5t-85 -42t-49.5 -56.5l11 -874h-355q1 40 1 111.5v163v197v213v211t-0.5 190.5t-0.5 151.5v94.5h338zM609 1736l35 68l163 -55
l-101 -195l-174 -2l-122 192l158 62z" />
    <glyph glyph-name="rcommaaccent" unicode="&#x157;" horiz-adv-x="1215" 
d="M418 1226q42 26 100.5 45t125.5 27t139.5 3.5t142.5 -24t133.5 -55t114.5 -90.5l-146 -257q-52 43 -113 66t-123 31t-121.5 2t-109 -22.5t-85 -42t-49.5 -56.5l11 -874h-355q1 40 1 111.5v163v197v213v211t-0.5 190.5t-0.5 151.5v94.5h338zM676 -51q46 -80 42 -150.5
t-54 -149.5l-146 51q28 43 36 72t5 50t-12.5 37t-15.5 32z" />
    <glyph glyph-name="sacute" unicode="&#x15b;" 
d="M1070 319q0 -93 -34 -160.5t-91.5 -111.5t-133.5 -66t-160 -24.5t-170.5 13.5t-166.5 48.5t-147 80t-111 107.5l189 240q34 -35 78.5 -64.5t91 -51t93 -32.5t85 -9t65.5 19t37 52q8 31 -23 63.5t-86 69t-125 78t-138.5 88.5t-128.5 101t-94 117q-33 61 -35.5 125
t20 123.5t66 111t103 88.5t130.5 54.5t148 10.5q72 -7 150.5 -30t149.5 -57.5t129.5 -77t91.5 -88.5l-194 -234q-49 51 -110 88.5t-118.5 54.5t-103.5 12t-64 -39q-10 -19 -3.5 -37.5t23 -36t40 -34t49 -30.5t49 -25.5t39.5 -18.5q84 -33 158.5 -83.5t130.5 -116.5
t88.5 -146t32.5 -172zM578 1761l138 -102l-166 -210l-128 112z" />
    <glyph glyph-name="scaron" unicode="&#x161;" 
d="M1070 319q0 -93 -34 -160.5t-91.5 -111.5t-133.5 -66t-160 -24.5t-170.5 13.5t-166.5 48.5t-147 80t-111 107.5l189 240q34 -35 78.5 -64.5t91 -51t93 -32.5t85 -9t65.5 19t37 52q8 31 -23 63.5t-86 69t-125 78t-138.5 88.5t-128.5 101t-94 117q-33 61 -35.5 125
t20 123.5t66 111t103 88.5t130.5 54.5t148 10.5q72 -7 150.5 -30t149.5 -57.5t129.5 -77t91.5 -88.5l-194 -234q-49 51 -110 88.5t-118.5 54.5t-103.5 12t-64 -39q-10 -19 -3.5 -37.5t23 -36t40 -34t49 -30.5t49 -25.5t39.5 -18.5q84 -33 158.5 -83.5t130.5 -116.5
t88.5 -146t32.5 -172zM568 1736l35 68l163 -55l-101 -195l-174 -2l-122 192l158 62z" />
    <glyph glyph-name="scircumflex" unicode="&#x15d;" 
d="M1070 319q0 -93 -34 -160.5t-91.5 -111.5t-133.5 -66t-160 -24.5t-170.5 13.5t-166.5 48.5t-147 80t-111 107.5l189 240q34 -35 78.5 -64.5t91 -51t93 -32.5t85 -9t65.5 19t37 52q8 31 -23 63.5t-86 69t-125 78t-138.5 88.5t-128.5 101t-94 117q-33 61 -35.5 125
t20 123.5t66 111t103 88.5t130.5 54.5t148 10.5q72 -7 150.5 -30t149.5 -57.5t129.5 -77t91.5 -88.5l-194 -234q-49 51 -110 88.5t-118.5 54.5t-103.5 12t-64 -39q-10 -19 -3.5 -37.5t23 -36t40 -34t49 -30.5t49 -25.5t39.5 -18.5q84 -33 158.5 -83.5t130.5 -116.5
t88.5 -146t32.5 -172zM548 1547l-45 -104l-210 83l129 298h225l157 -290l-204 -94z" />
    <glyph glyph-name="scommaaccent" unicode="&#x219;" 
d="M1070 319q0 -93 -34 -160.5t-91.5 -111.5t-133.5 -66t-160 -24.5t-170.5 13.5t-166.5 48.5t-147 80t-111 107.5l189 240q34 -35 78.5 -64.5t91 -51t93 -32.5t85 -9t65.5 19t37 52q8 31 -23 63.5t-86 69t-125 78t-138.5 88.5t-128.5 101t-94 117q-33 61 -35.5 125
t20 123.5t66 111t103 88.5t130.5 54.5t148 10.5q72 -7 150.5 -30t149.5 -57.5t129.5 -77t91.5 -88.5l-194 -234q-49 51 -110 88.5t-118.5 54.5t-103.5 12t-64 -39q-10 -19 -3.5 -37.5t23 -36t40 -34t49 -30.5t49 -25.5t39.5 -18.5q84 -33 158.5 -83.5t130.5 -116.5
t88.5 -146t32.5 -172zM646 -120q46 -80 42 -150.5t-54 -149.5l-146 51q28 43 36 72t5 50t-12.5 37t-15.5 32z" />
    <glyph glyph-name="tcommaaccent" unicode="&#x163;" horiz-adv-x="1003" 
d="M324 1313q0 72 0.5 141t1 125.5t1 96.5t0.5 55h338l2 -418h272v-346h-269l6 -987h-355q0 30 0.5 88.5t0.5 136.5t0.5 171t0.5 192.5v201v197.5h-266v346h267zM532 -104q46 -80 42 -150.5t-54 -149.5l-146 51q28 43 36 72t5 50t-12.5 37t-15.5 32z" />
    <glyph glyph-name="uacute" unicode="&#xfa;" horiz-adv-x="1260" 
d="M851 85q-16 -8 -32 -15t-33 -14q-166 -67 -292 -70t-214.5 61t-139 198t-64.5 342q-5 72 -7.5 166t-3.5 197.5t1 209t6 200.5h331q-2 -62 -4.5 -128.5t-4.5 -134.5t-3.5 -134t-2 -125.5t0.5 -110t3 -87.5q6 -97 23.5 -165t54.5 -104.5t96.5 -39t149.5 32.5q76 29 132 72
l-5 924h355q-1 -44 -1 -120.5t-0.5 -174t-0.5 -208.5t-0.5 -223t-0.5 -218t-0.5 -194t-1 -150.5t-1.5 -86.5h-338zM641 1761l138 -102l-166 -210l-128 112z" />
    <glyph glyph-name="ubreve" unicode="&#x16d;" horiz-adv-x="1260" 
d="M851 85q-16 -8 -32 -15t-33 -14q-166 -67 -292 -70t-214.5 61t-139 198t-64.5 342q-5 72 -7.5 166t-3.5 197.5t1 209t6 200.5h331q-2 -62 -4.5 -128.5t-4.5 -134.5t-3.5 -134t-2 -125.5t0.5 -110t3 -87.5q6 -97 23.5 -165t54.5 -104.5t96.5 -39t149.5 32.5q76 29 132 72
l-5 924h355q-1 -44 -1 -120.5t-0.5 -174t-0.5 -208.5t-0.5 -223t-0.5 -218t-0.5 -194t-1 -150.5t-1.5 -86.5h-338zM933 1545q-29 -27 -77.5 -45t-107 -28t-122 -11t-122.5 7t-108 25.5t-78 44.5l97 172q32 -29 71.5 -42.5t80.5 -15.5t81.5 4t75 16t60.5 21t39 18z" />
    <glyph glyph-name="ucircumflex" unicode="&#xfb;" horiz-adv-x="1260" 
d="M851 85q-16 -8 -32 -15t-33 -14q-166 -67 -292 -70t-214.5 61t-139 198t-64.5 342q-5 72 -7.5 166t-3.5 197.5t1 209t6 200.5h331q-2 -62 -4.5 -128.5t-4.5 -134.5t-3.5 -134t-2 -125.5t0.5 -110t3 -87.5q6 -97 23.5 -165t54.5 -104.5t96.5 -39t149.5 32.5q76 29 132 72
l-5 924h355q-1 -44 -1 -120.5t-0.5 -174t-0.5 -208.5t-0.5 -223t-0.5 -218t-0.5 -194t-1 -150.5t-1.5 -86.5h-338zM611 1547l-45 -104l-210 83l129 298h225l157 -290l-204 -94z" />
    <glyph glyph-name="udieresis" unicode="&#xfc;" horiz-adv-x="1260" 
d="M851 85q-16 -8 -32 -15t-33 -14q-166 -67 -292 -70t-214.5 61t-139 198t-64.5 342q-5 72 -7.5 166t-3.5 197.5t1 209t6 200.5h331q-2 -62 -4.5 -128.5t-4.5 -134.5t-3.5 -134t-2 -125.5t0.5 -110t3 -87.5q6 -97 23.5 -165t54.5 -104.5t96.5 -39t149.5 32.5q76 29 132 72
l-5 924h355q-1 -44 -1 -120.5t-0.5 -174t-0.5 -208.5t-0.5 -223t-0.5 -218t-0.5 -194t-1 -150.5t-1.5 -86.5h-338zM489 1500q-42 -1 -70.5 16t-42.5 44t-14 58.5t13.5 59t41 46t68.5 18.5q37 0 63 -17.5t40 -44t15 -57.5t-11 -58t-37.5 -45.5t-65.5 -19.5zM781 1495
q-42 -1 -70.5 16.5t-43 44t-15 58.5t13 59t41 45.5t68.5 18.5q38 0 64 -17.5t40 -44t15 -57.5t-11 -58t-37.5 -45.5t-64.5 -19.5z" />
    <glyph glyph-name="uhungarumlaut" unicode="&#x171;" horiz-adv-x="1260" 
d="M851 85q-16 -8 -32 -15t-33 -14q-166 -67 -292 -70t-214.5 61t-139 198t-64.5 342q-5 72 -7.5 166t-3.5 197.5t1 209t6 200.5h331q-2 -62 -4.5 -128.5t-4.5 -134.5t-3.5 -134t-2 -125.5t0.5 -110t3 -87.5q6 -97 23.5 -165t54.5 -104.5t96.5 -39t149.5 32.5q76 29 132 72
l-5 924h355q-1 -44 -1 -120.5t-0.5 -174t-0.5 -208.5t-0.5 -223t-0.5 -218t-0.5 -194t-1 -150.5t-1.5 -86.5h-338zM501 1734l138 -102l-155 -185l-139 87zM782 1715l138 -102l-146 -193l-148 95z" />
    <glyph glyph-name="ugrave" unicode="&#xf9;" horiz-adv-x="1260" 
d="M851 85q-16 -8 -32 -15t-33 -14q-166 -67 -292 -70t-214.5 61t-139 198t-64.5 342q-5 72 -7.5 166t-3.5 197.5t1 209t6 200.5h331q-2 -62 -4.5 -128.5t-4.5 -134.5t-3.5 -134t-2 -125.5t0.5 -110t3 -87.5q6 -97 23.5 -165t54.5 -104.5t96.5 -39t149.5 32.5q76 29 132 72
l-5 924h355q-1 -44 -1 -120.5t-0.5 -174t-0.5 -208.5t-0.5 -223t-0.5 -218t-0.5 -194t-1 -150.5t-1.5 -86.5h-338zM774 1539l-138 -109l-156 207l138 102z" />
    <glyph glyph-name="umacron" unicode="&#x16b;" horiz-adv-x="1260" 
d="M851 85q-16 -8 -32 -15t-33 -14q-166 -67 -292 -70t-214.5 61t-139 198t-64.5 342q-5 72 -7.5 166t-3.5 197.5t1 209t6 200.5h331q-2 -62 -4.5 -128.5t-4.5 -134.5t-3.5 -134t-2 -125.5t0.5 -110t3 -87.5q6 -97 23.5 -165t54.5 -104.5t96.5 -39t149.5 32.5q76 29 132 72
l-5 924h355q-1 -44 -1 -120.5t-0.5 -174t-0.5 -208.5t-0.5 -223t-0.5 -218t-0.5 -194t-1 -150.5t-1.5 -86.5h-338zM370 1697l468 3v-188h-468v185z" />
    <glyph glyph-name="uring" unicode="&#x16f;" horiz-adv-x="1260" 
d="M851 85q-16 -8 -32 -15t-33 -14q-166 -67 -292 -70t-214.5 61t-139 198t-64.5 342q-5 72 -7.5 166t-3.5 197.5t1 209t6 200.5h331q-2 -62 -4.5 -128.5t-4.5 -134.5t-3.5 -134t-2 -125.5t0.5 -110t3 -87.5q6 -97 23.5 -165t54.5 -104.5t96.5 -39t149.5 32.5q76 29 132 72
l-5 924h355q-1 -44 -1 -120.5t-0.5 -174t-0.5 -208.5t-0.5 -223t-0.5 -218t-0.5 -194t-1 -150.5t-1.5 -86.5h-338zM639 1447q-69 -2 -114.5 25.5t-69 69.5t-24 92t21.5 93t66.5 72t111.5 29q61 0 103 -27.5t64.5 -69.5t24 -90.5t-18 -91t-60.5 -71.5t-105 -31zM632 1599
q22 0 32.5 13t10 28t-12 27.5t-33.5 12.5q-23 0 -34.5 -13t-11.5 -28.5t12.5 -28t36.5 -11.5z" />
    <glyph glyph-name="utilde" unicode="&#x169;" horiz-adv-x="1260" 
d="M851 85q-16 -8 -32 -15t-33 -14q-166 -67 -292 -70t-214.5 61t-139 198t-64.5 342q-5 72 -7.5 166t-3.5 197.5t1 209t6 200.5h331q-2 -62 -4.5 -128.5t-4.5 -134.5t-3.5 -134t-2 -125.5t0.5 -110t3 -87.5q6 -97 23.5 -165t54.5 -104.5t96.5 -39t149.5 32.5q76 29 132 72
l-5 924h355q-1 -44 -1 -120.5t-0.5 -174t-0.5 -208.5t-0.5 -223t-0.5 -218t-0.5 -194t-1 -150.5t-1.5 -86.5h-338zM306 1631q39 69 80 100t84 34.5t88 -13.5t91 -44q36 -21 58 -25.5t38 2.5t28 23.5l28 38.5l158 -74q-27 -58 -66 -97.5t-84.5 -56.5t-95.5 -10.5t-100 40.5
q-29 20 -54 34t-46.5 15t-41.5 -15.5t-39 -56.5z" />
    <glyph glyph-name="wacute" unicode="&#x1e83;" horiz-adv-x="1998" 
d="M1625 1341l308 -74q-6 -24 -21 -82.5t-35.5 -140.5t-46 -181t-53 -203t-55.5 -207.5t-54 -193.5t-48.5 -161.5t-38.5 -111.5h-331q-15 28 -33 75.5t-38.5 107.5t-43 129t-45.5 140.5t-46.5 142.5t-46.5 135q-23 -64 -46.5 -135t-47 -142.5t-46 -140.5t-43 -129
t-38 -107.5t-32.5 -75.5h-331q-16 40 -38.5 111.5t-48.5 161.5t-54 193.5t-55.5 207.5t-53 203t-46 181t-35.5 140.5t-21 82.5l308 74l205 -943l285 896h276l286 -896zM1010 1761l138 -102l-166 -210l-128 112z" />
    <glyph glyph-name="wcircumflex" unicode="&#x175;" horiz-adv-x="1998" 
d="M1625 1341l308 -74q-6 -24 -21 -82.5t-35.5 -140.5t-46 -181t-53 -203t-55.5 -207.5t-54 -193.5t-48.5 -161.5t-38.5 -111.5h-331q-15 28 -33 75.5t-38.5 107.5t-43 129t-45.5 140.5t-46.5 142.5t-46.5 135q-23 -64 -46.5 -135t-47 -142.5t-46 -140.5t-43 -129
t-38 -107.5t-32.5 -75.5h-331q-16 40 -38.5 111.5t-48.5 161.5t-54 193.5t-55.5 207.5t-53 203t-46 181t-35.5 140.5t-21 82.5l308 74l205 -943l285 896h276l286 -896zM980 1547l-45 -104l-210 83l129 298h225l157 -290l-204 -94z" />
    <glyph glyph-name="wdieresis" unicode="&#x1e85;" horiz-adv-x="1998" 
d="M1625 1341l308 -74q-6 -24 -21 -82.5t-35.5 -140.5t-46 -181t-53 -203t-55.5 -207.5t-54 -193.5t-48.5 -161.5t-38.5 -111.5h-331q-15 28 -33 75.5t-38.5 107.5t-43 129t-45.5 140.5t-46.5 142.5t-46.5 135q-23 -64 -46.5 -135t-47 -142.5t-46 -140.5t-43 -129
t-38 -107.5t-32.5 -75.5h-331q-16 40 -38.5 111.5t-48.5 161.5t-54 193.5t-55.5 207.5t-53 203t-46 181t-35.5 140.5t-21 82.5l308 74l205 -943l285 896h276l286 -896zM858 1500q-42 -1 -70.5 16t-42.5 44t-14 58.5t13.5 59t41 46t68.5 18.5q37 0 63 -17.5t40 -44t15 -57.5
t-11 -58t-37.5 -45.5t-65.5 -19.5zM1150 1495q-42 -1 -70.5 16.5t-43 44t-15 58.5t13 59t41 45.5t68.5 18.5q38 0 64 -17.5t40 -44t15 -57.5t-11 -58t-37.5 -45.5t-64.5 -19.5z" />
    <glyph glyph-name="wgrave" unicode="&#x1e81;" horiz-adv-x="1998" 
d="M1625 1341l308 -74q-6 -24 -21 -82.5t-35.5 -140.5t-46 -181t-53 -203t-55.5 -207.5t-54 -193.5t-48.5 -161.5t-38.5 -111.5h-331q-15 28 -33 75.5t-38.5 107.5t-43 129t-45.5 140.5t-46.5 142.5t-46.5 135q-23 -64 -46.5 -135t-47 -142.5t-46 -140.5t-43 -129
t-38 -107.5t-32.5 -75.5h-331q-16 40 -38.5 111.5t-48.5 161.5t-54 193.5t-55.5 207.5t-53 203t-46 181t-35.5 140.5t-21 82.5l308 74l205 -943l285 896h276l286 -896zM1143 1539l-138 -109l-156 207l138 102z" />
    <glyph glyph-name="yacute" unicode="&#xfd;" horiz-adv-x="1449" 
d="M863 638q34 124 65.5 239.5l57 209t43.5 157.5t24 86l330 -77l-467 -1723l-339 107q8 28 26.5 89t42.5 139.5t50 168.5t50 176q-68 94 -141 193.5t-143.5 196t-135 185t-116 159.5t-87 119.5t-47.5 66.5l266 209zM736 1761l138 -102l-166 -210l-128 112z" />
    <glyph glyph-name="ycircumflex" unicode="&#x177;" horiz-adv-x="1449" 
d="M863 638q34 124 65.5 239.5l57 209t43.5 157.5t24 86l330 -77l-467 -1723l-339 107q8 28 26.5 89t42.5 139.5t50 168.5t50 176q-68 94 -141 193.5t-143.5 196t-135 185t-116 159.5t-87 119.5t-47.5 66.5l266 209zM706 1547l-45 -104l-210 83l129 298h225l157 -290
l-204 -94z" />
    <glyph glyph-name="ydieresis" unicode="&#xff;" horiz-adv-x="1449" 
d="M863 638q34 124 65.5 239.5l57 209t43.5 157.5t24 86l330 -77l-467 -1723l-339 107q8 28 26.5 89t42.5 139.5t50 168.5t50 176q-68 94 -141 193.5t-143.5 196t-135 185t-116 159.5t-87 119.5t-47.5 66.5l266 209zM584 1500q-42 -1 -70.5 16t-42.5 44t-14 58.5t13.5 59
t41 46t68.5 18.5q37 0 63 -17.5t40 -44t15 -57.5t-11 -58t-37.5 -45.5t-65.5 -19.5zM876 1495q-42 -1 -70.5 16.5t-43 44t-15 58.5t13 59t41 45.5t68.5 18.5q38 0 64 -17.5t40 -44t15 -57.5t-11 -58t-37.5 -45.5t-64.5 -19.5z" />
    <glyph glyph-name="ygrave" unicode="&#x1ef3;" horiz-adv-x="1449" 
d="M863 638q34 124 65.5 239.5l57 209t43.5 157.5t24 86l330 -77l-467 -1723l-339 107q8 28 26.5 89t42.5 139.5t50 168.5t50 176q-68 94 -141 193.5t-143.5 196t-135 185t-116 159.5t-87 119.5t-47.5 66.5l266 209zM869 1539l-138 -109l-156 207l138 102z" />
    <glyph glyph-name="zacute" unicode="&#x17a;" 
d="M663 1015h-581v317l973 -5v-312l-577 -692h577v-324l-973 8v316zM578 1761l138 -102l-166 -210l-128 112z" />
    <glyph glyph-name="zcaron" unicode="&#x17e;" 
d="M663 1015h-581v317l973 -5v-312l-577 -692h577v-324l-973 8v316zM568 1736l35 68l163 -55l-101 -195l-174 -2l-122 192l158 62z" />
    <glyph glyph-name="zdotaccent" unicode="&#x17c;" 
d="M663 1015h-581v317l973 -5v-312l-577 -692h577v-324l-973 8v316zM572 1492q-44 -2 -73.5 16t-44.5 45.5t-15.5 60t14 60.5t43 46.5t71.5 18.5q39 0 66 -18t41.5 -45t15.5 -58.5t-11.5 -59t-39 -46.5t-67.5 -20z" />
    <glyph glyph-name="Eth" unicode="&#xd0;" horiz-adv-x="1404" 
d="M11 1000h86v785q170 16 325.5 4.5t290 -53t245 -113t190.5 -176t125.5 -241.5t51.5 -309q4 -150 -35 -280t-115 -236t-186.5 -185t-248 -128t-300 -65t-343.5 5v807h-86v185zM1015 825q2 122 -29.5 234.5t-103 201t-187 145.5t-281.5 69l3 -473l187 1v-188h-186l3 -533
q133 9 242 54.5t186.5 118.5t120.5 167.5t45 202.5z" />
    <glyph glyph-name="eth" unicode="&#xf0;" horiz-adv-x="1388" 
d="M622 1477q-76 23 -154 29t-152 1l32 281q156 11 291.5 -17.5t247.5 -89.5l95 73l101 -159l-36 -28q94 -86 154.5 -195t83.5 -234q23 -124 25.5 -258.5t-19.5 -264t-70.5 -246t-126.5 -205t-187.5 -141t-254.5 -53.5q-108 -1 -210 36t-181.5 112t-129.5 190t-53 270
q-2 85 22.5 161.5t69 140.5t106 113.5t133 79.5t151 38.5t160 -9t159 -63t149.5 -124.5q1 78 -14.5 146.5t-45.5 127t-72 107t-92 86.5l-122 -93l-115 145zM378 528q4 -50 32 -97.5t71 -83.5t97.5 -57.5t112.5 -20.5q65 1 114.5 25t82.5 62t50.5 86t19.5 98
q-37 100 -96.5 158.5t-126 82t-133.5 14.5t-119 -43.5t-82 -92t-23 -131.5z" />
    <glyph glyph-name="Thorn" unicode="&#xde;" horiz-adv-x="1368" 
d="M742 1341q116 -1 209.5 -39.5t163.5 -103.5t117 -151t70.5 -183t23.5 -199.5t-23.5 -199t-70.5 -182.5t-118 -150.5t-165.5 -102.5t-213.5 -38q-94 0 -173 22t-145 60l-3 -466h-338v131v211t0.5 266t1 296.5t0.5 301t0.5 281.5t0.5 237.5v168.5h353l-7 -235
q66 36 144.5 56t172.5 19zM696 331q74 -4 130 23t94 74t58 108.5t22 126t-15 126.5t-52.5 111t-90 78.5t-127.5 29.5q-69 0 -121.5 -25t-89 -66t-57.5 -94.5t-26 -111.5v-72q4 -57 23.5 -111t54 -96.5t83.5 -69.5t114 -31z" />
    <glyph glyph-name="thorn" unicode="&#xfe;" horiz-adv-x="1441" 
d="M772 1534q116 -1 209.5 -39.5t163.5 -103.5t117 -151t70.5 -183t23.5 -199.5t-23.5 -199t-70.5 -182.5t-118 -150.5t-165.5 -102.5t-213.5 -38q-94 0 -173 22t-145 60l-5 -275h-339q-1 48 -1 136.5v203v248v271.5v273.5v253.5t-0.5 212t-0.5 149h354v-280q66 36 144.5 56
t172.5 19zM726 524q74 -4 130 23t94 74t58 108.5t22 126t-15 126.5t-52.5 111t-90 78.5t-127.5 29.5q-69 0 -121.5 -25t-89 -66t-57.5 -94.5t-26 -111.5v-72q4 -57 23.5 -111t54 -96.5t83.5 -69.5t114 -31z" />
    <glyph glyph-name="divide" unicode="&#xf7;" horiz-adv-x="1041" 
d="M499 1102q-69 -2 -114.5 25.5t-69 69.5t-24 92t21.5 93t66.5 72t111.5 29q61 0 103 -27.5t64.5 -69.5t24 -90.5t-18 -91t-60.5 -71.5t-105 -31zM518 213q-69 -2 -114.5 25.5t-69 69.5t-24 92t21.5 93t66.5 72t111.5 29q61 0 103 -27.5t64.5 -69.5t24 -90.5t-18 -91
t-60.5 -71.5t-105 -31zM902 1025v-349l-816 1v341z" />
    <glyph glyph-name="multiply" unicode="&#xd7;" horiz-adv-x="987" 
d="M484 604l-125 -133l-249 233l125 135l-130 123l-2 2l235 251l132 -120l123 135l255 -239l-8 -8l-121 -130l137 -130l-233 -249z" />
    <glyph glyph-name="germandbls" unicode="&#xdf;" horiz-adv-x="1392" 
d="M98 -108l7 1291q1 190 50 314t131 194t188 93t222 12q123 -12 228.5 -46t182 -96t119 -156t38.5 -227q-4 -125 -55 -213.5t-132 -147.5q47 -31 89.5 -69t74 -85t49.5 -103t17 -122q-2 -130 -47.5 -223.5t-116 -156.5t-158 -99t-175.5 -52.5t-167 -17.5t-133 7l3 303
q39 -7 87.5 -6t98.5 10.5t97 29t82 49t54.5 70t15.5 93.5q-6 64 -40.5 102.5t-91 61t-131 33t-159.5 16.5l-2 309q43 8 91.5 16t95.5 18t90 24.5t75 35.5t49.5 51.5t15.5 72.5q-3 42 -23.5 80.5t-54 68.5t-76.5 49.5t-90 24.5q-70 8 -119 -8.5t-81.5 -49.5t-50.5 -78.5
t-27.5 -96.5t-12.5 -102.5t-4 -96.5q-4 -90 -6.5 -194t-4 -213t-1.5 -218v-209.5t0.5 -188.5t0.5 -154h-293z" />
    <glyph glyph-name="Eng" unicode="&#x14a;" horiz-adv-x="1619" 
d="M1545 41q1 -95 -24 -173.5t-72.5 -141.5t-116 -111t-155.5 -82l-172 247q64 25 105 50.5t65 51.5t35.5 51.5t16.5 50.5q-26 33 -76 102.5t-116 163t-144 205.5t-160 230t-164.5 236.5t-157.5 225.5l7 -1149h-355l6 1722l328 35l797 -1116q0 113 0.5 235.5t1 241.5
t0.5 228.5t0.5 197.5t1 148.5t0.5 81.5h338z" />
    <glyph glyph-name="eng" unicode="&#x14b;" horiz-adv-x="1274" 
d="M559 914q-76 -29 -132 -72l5 -850h-355q1 44 1 116t0.5 161.5t0.5 191v204t0.5 200t0.5 179.5t0.5 142.5t1.5 88.5h339l3 -82q16 8 32 15t33 14q166 67 292 70t214.5 -61t139 -198t64.5 -342q10 -143 13 -300.5t-9 -346.5q-5 -77 -32 -142.5t-64.5 -118.5t-79.5 -93.5
t-77 -65.5l-228 197q24 15 49.5 39t48 51.5t39 54t22.5 46.5q11 36 16.5 86.5t6 107.5t-1.5 118t-5.5 118.5t-7.5 108t-6 87.5q-6 97 -23.5 165t-54.5 104.5t-96.5 39t-149.5 -32.5z" />
    <glyph glyph-name="uni1E02" unicode="&#x1e02;" horiz-adv-x="1399" 
d="M1307 531q-5 -119 -47 -206t-110.5 -147.5t-156.5 -98.5t-185 -59t-197 -28t-191.5 -6t-169.5 6.5t-131 10.5l-4 1751q144 23 286 35t271 4.5t239.5 -38t190 -91.5t123 -157.5t39.5 -235.5q-4 -125 -55 -213.5t-132 -147.5q47 -31 90 -69t75 -85t50 -103t15 -122z
M430 298q23 -4 71.5 -5.5t108 3.5t122 19.5t112.5 42.5t79.5 71.5t24.5 108.5q-4 52 -31 89.5t-69 62.5t-95 39t-109 19t-111.5 2t-102.5 -10v-442zM430 1064q40 -5 94 -4.5t112 7t114 21.5t99.5 40.5t69 62t22.5 87.5q-3 49 -28 85.5t-65 62t-91 40.5t-107 22t-112.5 5.5
t-107.5 -8.5v-421zM705 1875q-44 -2 -73.5 16t-44.5 45.5t-15.5 60t14 60.5t43 46.5t71.5 18.5q39 0 66 -18t41.5 -45t15.5 -58.5t-11.5 -59t-39 -46.5t-67.5 -20z" />
    <glyph glyph-name="uni1E03" unicode="&#x1e03;" horiz-adv-x="1388" 
d="M742 1341q116 -1 209.5 -39.5t163.5 -103.5t117 -151t70.5 -183t23.5 -199.5t-23.5 -199t-70.5 -182.5t-118 -150.5t-165.5 -102.5t-213.5 -38q-94 0 -173 22t-145 60v-92h-336q-1 19 -1.5 76t-1 140.5t-0.5 189t-0.5 223t-1 241.5t-0.5 244t-0.5 232t-1 204.5t-1 161.5
t-0.5 104h355l-3 -532q66 36 144.5 56t172.5 19zM696 331q74 -4 130 23t94 74t58 108.5t22 126t-15 126.5t-52.5 111t-90 78.5t-127.5 29.5q-69 0 -121.5 -25t-89 -66t-57.5 -94.5t-26 -111.5v-72q4 -57 23.5 -111t54 -96.5t83.5 -69.5t114 -31zM316 1908q-44 -2 -73.5 16
t-44.5 45.5t-15.5 60t14 60.5t43 46.5t71.5 18.5q39 0 66 -18t41.5 -45t15.5 -58.5t-11.5 -59t-39 -46.5t-67.5 -20z" />
    <glyph glyph-name="uni1E0A" unicode="&#x1e0a;" horiz-adv-x="1404" 
d="M1325 897q4 -150 -35 -280t-115 -236t-186.5 -185t-248 -128t-300 -65t-343.5 5v1777q170 16 325.5 4.5t290 -53t245 -113t190.5 -176t125.5 -241.5t51.5 -309zM1015 825q2 122 -29.5 234.5t-103 201t-187 145.5t-281.5 69l7 -1193q133 9 242 54.5t186.5 118.5
t120.5 167.5t45 202.5zM708 1875q-44 -2 -73.5 16t-44.5 45.5t-15.5 60t14 60.5t43 46.5t71.5 18.5q39 0 66 -18t41.5 -45t15.5 -58.5t-11.5 -59t-39 -46.5t-67.5 -20z" />
    <glyph glyph-name="uni1E0B" unicode="&#x1e0b;" horiz-adv-x="1386" 
d="M651 1338q94 1 172.5 -19t144.5 -56l-3 534h355q0 -35 -0.5 -104t-1 -161.5t-1 -204t-0.5 -232t-0.5 -244.5t-1 -241t-0.5 -222.5t-0.5 -189t-1 -140.5t-1.5 -76h-336v89q-66 -38 -145 -60t-173 -22q-119 0 -213.5 38t-165.5 102.5t-118 150.5t-70.5 182.5t-23.5 199
t23.5 199.5t70.5 183t117 151t163.5 103.5t209.5 39.5zM697 328q64 4 113.5 31t84 69.5t54 96.5t23.5 111v72q-5 58 -26 111.5t-57.5 94.5t-89 66t-121.5 25q-74 0 -128 -29.5t-89.5 -78.5t-52.5 -111t-15 -126.5t22 -126t58 -108.5t94 -74t130 -23zM699 1492
q-44 -2 -73.5 16t-44.5 45.5t-15.5 60t14 60.5t43 46.5t71.5 18.5q39 0 66 -18t41.5 -45t15.5 -58.5t-11.5 -59t-39 -46.5t-67.5 -20z" />
    <glyph glyph-name="uni1E1E" unicode="&#x1e1e;" horiz-adv-x="1220" 
d="M412 1033l566 2v-355l-565 6l1 -709h-349l5 1804h1056v-343h-715zM616 1875q-44 -2 -73.5 16t-44.5 45.5t-15.5 60t14 60.5t43 46.5t71.5 18.5q39 0 66 -18t41.5 -45t15.5 -58.5t-11.5 -59t-39 -46.5t-67.5 -20z" />
    <glyph glyph-name="uni1E1F" unicode="&#x1e1f;" horiz-adv-x="1227" 
d="M222 1026q3 121 13.5 205t26.5 143t36 99.5t43 73.5q62 89 142 138.5t166 69.5t172.5 15t160.5 -25.5t129.5 -50.5t81.5 -60l-171 -258q-51 33 -108 51.5t-111 15t-100.5 -32t-76.5 -89.5q-26 -53 -39.5 -126.5t-18.5 -168.5h417v-337l-415 -1l8 -709h-355l-2 709h-155
v338h156zM759 1826q-44 -2 -73.5 16t-44.5 45.5t-15.5 60t14 60.5t43 46.5t71.5 18.5q39 0 66 -18t41.5 -45t15.5 -58.5t-11.5 -59t-39 -46.5t-67.5 -20z" />
    <glyph glyph-name="uni1E40" unicode="&#x1e40;" horiz-adv-x="2135" 
d="M624 1800l1.5 -6t7 -24.5t17 -54t32.5 -94.5t53 -144.5t78.5 -205.5t109 -278t144.5 -360q111 272 186.5 464.5t125 322t76 205t39 114.5t15 50l2.5 11h334q3 -19 10 -74.5t16.5 -137.5t22 -185t25.5 -217.5t27.5 -235.5t28.5 -238.5t26.5 -226.5t23.5 -200t19.5 -159
t13.5 -102l-350 -63l-115 1119q-37 -94 -74.5 -196.5t-74.5 -205t-71 -198.5t-63 -177.5t-51.5 -142t-35.5 -91.5h-311q-13 31 -35.5 91.5t-51.5 142t-63 177.5t-71 198.5t-75 205t-74 196.5l-115 -1119l-350 63q5 34 13.5 102t19.5 159t23.5 200t26.5 226.5t28.5 238.5
t27.5 235.5t25.5 217.5t22 185t16.5 137.5t10 74.5h334zM1073 1875q-44 -2 -73.5 16t-44.5 45.5t-15.5 60t14 60.5t43 46.5t71.5 18.5q39 0 66 -18t41.5 -45t15.5 -58.5t-11.5 -59t-39 -46.5t-67.5 -20z" />
    <glyph glyph-name="uni1E41" unicode="&#x1e41;" horiz-adv-x="2116" 
d="M424 1213q16 8 32 15t33 14q207 83 363 42t260 -217q55 64 117 110.5t126.5 75.5t130.5 39t128 1q92 -14 161 -64.5t117 -128.5t75 -180.5t35 -219.5q5 -72 7.5 -154.5t3.5 -172.5t-1 -184.5t-6 -188.5h-331q4 92 7.5 184t6 176.5t2 157.5t-4.5 129q-5 54 -15.5 110
t-29.5 102t-46 76t-64 32q-71 4 -122 -23t-87 -77.5t-58.5 -119t-35.5 -146.5t-18 -161t-6 -162.5t-0.5 -151t-0.5 -126.5h-331q4 92 7.5 182.5t5.5 173t1.5 154.5t-3.5 128q-6 97 -23.5 168.5t-54.5 111.5t-96.5 45.5t-149.5 -29.5q-76 -29 -132 -72l5 -862h-355
q1 43 1 116t0.5 164t0.5 193.5t0.5 205.5t0.5 201t0.5 179.5t1 140t1.5 82.5h338zM1064 1492q-44 -2 -73.5 16t-44.5 45.5t-15.5 60t14 60.5t43 46.5t71.5 18.5q39 0 66 -18t41.5 -45t15.5 -58.5t-11.5 -59t-39 -46.5t-67.5 -20z" />
    <glyph glyph-name="uni1E56" unicode="&#x1e56;" horiz-adv-x="1396" 
d="M80 1798q146 11 295.5 13.5t288.5 -13.5t260.5 -55t212 -110t142.5 -179t52 -263q0 -94 -25 -186.5t-72.5 -173.5t-116 -145t-154.5 -100q-125 -51 -261 -71t-270 -6l3 -515h-355v1804zM441 863q139 -14 242.5 6t170.5 63t98 104.5t27 131.5q-4 68 -29.5 120t-66 90
t-93 63t-111.5 37.5t-121 13.5t-122 -7zM704 1875q-44 -2 -73.5 16t-44.5 45.5t-15.5 60t14 60.5t43 46.5t71.5 18.5q39 0 66 -18t41.5 -45t15.5 -58.5t-11.5 -59t-39 -46.5t-67.5 -20z" />
    <glyph glyph-name="uni1E60" unicode="&#x1e60;" horiz-adv-x="1194" 
d="M932 819q62 -68 106.5 -147t66 -162.5t16.5 -168.5t-41 -164q-26 -57 -70.5 -97.5t-100 -67t-117.5 -39t-123 -12.5q-84 0 -172.5 24t-171 68t-154 107t-123.5 141l217 209q34 -48 79 -88t94 -70t99 -47.5t95 -20.5q40 -3 68 8.5t44 32t22.5 47.5t5.5 56t-10 57.5
t-22 51.5q-29 49 -80 98t-112.5 98.5t-128 100t-127 103.5t-110 108t-76.5 114q-45 99 -40 200.5t53 189.5q38 70 93 119.5t121 79t139.5 40t148.5 3t147 -32.5t135 -66q28 -18 64.5 -47.5t73 -63t67.5 -66t47 -56.5l-260 -199q-44 62 -93.5 104.5t-99.5 67.5t-97 34
t-85.5 3.5t-65.5 -24.5t-36 -48q-12 -38 5.5 -78.5t56 -84t92.5 -91t115.5 -99t124.5 -107.5t120 -118zM603 1875q-44 -2 -73.5 16t-44.5 45.5t-15.5 60t14 60.5t43 46.5t71.5 18.5q39 0 66 -18t41.5 -45t15.5 -58.5t-11.5 -59t-39 -46.5t-67.5 -20z" />
    <glyph glyph-name="uni1E61" unicode="&#x1e61;" 
d="M1070 319q0 -93 -34 -160.5t-91.5 -111.5t-133.5 -66t-160 -24.5t-170.5 13.5t-166.5 48.5t-147 80t-111 107.5l189 240q34 -35 78.5 -64.5t91 -51t93 -32.5t85 -9t65.5 19t37 52q8 31 -23 63.5t-86 69t-125 78t-138.5 88.5t-128.5 101t-94 117q-33 61 -35.5 125
t20 123.5t66 111t103 88.5t130.5 54.5t148 10.5q72 -7 150.5 -30t149.5 -57.5t129.5 -77t91.5 -88.5l-194 -234q-49 51 -110 88.5t-118.5 54.5t-103.5 12t-64 -39q-10 -19 -3.5 -37.5t23 -36t40 -34t49 -30.5t49 -25.5t39.5 -18.5q84 -33 158.5 -83.5t130.5 -116.5
t88.5 -146t32.5 -172zM572 1492q-44 -2 -73.5 16t-44.5 45.5t-15.5 60t14 60.5t43 46.5t71.5 18.5q39 0 66 -18t41.5 -45t15.5 -58.5t-11.5 -59t-39 -46.5t-67.5 -20z" />
    <glyph glyph-name="uni1E57" unicode="&#x1e57;" horiz-adv-x="1391" 
d="M746 5q-94 -1 -172.5 19t-144.5 56l3 -533h-355q0 35 0.5 103.5t1 160.5t1 203t0.5 230t0.5 242t1 239.5t0.5 221t0.5 187.5t1 139t1.5 76h336v-77q66 38 145 60t173 22q119 0 213.5 -38t165.5 -102.5t118 -150.5t70.5 -182.5t23.5 -199t-23.5 -199.5t-70.5 -183
t-117 -151t-163.5 -103.5t-209.5 -39.5zM700 1015q-65 -4 -114 -31t-83.5 -69.5t-54 -96.5t-23.5 -111v-72q5 -58 26 -111.5t57.5 -94.5t89 -66t121.5 -25q73 0 127.5 29.5t90 78.5t52.5 111t15 126.5t-22 126t-58 108.5t-94 74t-130 23zM701 1492q-44 -2 -73.5 16
t-44.5 45.5t-15.5 60t14 60.5t43 46.5t71.5 18.5q39 0 66 -18t41.5 -45t15.5 -58.5t-11.5 -59t-39 -46.5t-67.5 -20z" />
    <glyph glyph-name="uni1E6A" unicode="&#x1e6a;" horiz-adv-x="1154" 
d="M1092 1762v-336h-344l6 -1438h-355q0 23 0.5 81t0.5 141v185.5t0.5 214t0.5 226v222v202v166.5h-342v333zM583 1875q-44 -2 -73.5 16t-44.5 45.5t-15.5 60t14 60.5t43 46.5t71.5 18.5q39 0 66 -18t41.5 -45t15.5 -58.5t-11.5 -59t-39 -46.5t-67.5 -20z" />
    <glyph glyph-name="uni1E6B" unicode="&#x1e6b;" horiz-adv-x="1003" 
d="M324 1313q0 72 0.5 141t1 125.5t1 96.5t0.5 55h338l2 -418h272v-346h-269l6 -987h-355q0 30 0.5 88.5t0.5 136.5t0.5 171t0.5 192.5v201v197.5h-266v346h267zM502 1865q-44 -2 -73.5 16t-44.5 45.5t-15.5 60t14 60.5t43 46.5t71.5 18.5q39 0 66 -18t41.5 -45t15.5 -58.5
t-11.5 -59t-39 -46.5t-67.5 -20z" />
    <glyph glyph-name="a" unicode="a" horiz-adv-x="1400" 
d="M1321 -15h-355v79q-124 -82 -269 -84q-103 -1 -188 25t-153 72.5t-118.5 110t-84.5 137.5t-52.5 155t-21.5 163q-3 87 12.5 174t49 166t86 147t123.5 118t160 78t196 28q78 -1 145 -17.5t125 -47.5v16t0.5 25t0.5 24v14h338zM667 1015q-60 -2 -108.5 -29.5t-82.5 -75.5
t-51.5 -113t-14.5 -141q1 -35 8.5 -74t22 -77t35.5 -72.5t49.5 -61t64.5 -42.5t80 -16q73 0 129 33t94 86.5t58 120.5t20 134q0 64 -20 124.5t-59 107t-95.5 73.5t-129.5 23z" />
    <glyph glyph-name="k" unicode="k" horiz-adv-x="1373" 
d="M410 958l518 395l198 -296q-25 -18 -68.5 -50.5t-100.5 -75t-125.5 -93.5t-143.5 -106l651 -500l-232 -270q-22 17 -62.5 49t-94 74t-117.5 92.5t-134 105t-142.5 111.5t-143.5 112l3 -530h-355q0 35 0.5 104t1 162t0.5 205v232.5t0.5 244.5t0.5 242t0.5 223.5t0.5 189.5
t0.5 140.5t1.5 76.5h338z" />
    <glyph glyph-name="question" unicode="?" horiz-adv-x="1340" 
d="M444 914q93 -12 178 10.5t151 67t106.5 105t44.5 124.5q3 50 -17 97.5t-57.5 83.5t-88.5 57.5t-109 20.5q-65 -1 -116 -23.5t-87 -59t-55.5 -83.5t-22.5 -96l-311 -12q0 94 22.5 172.5t62.5 142.5t94.5 112.5t119 82t135.5 51t144 19.5q71 2 144.5 -11.5t141.5 -42
t127.5 -72.5t104.5 -104t71.5 -136t28.5 -168q2 -98 -27 -191t-91 -170.5t-157.5 -134.5t-227.5 -83l4 -211h-313v452zM602 363q69 2 114.5 -25.5t69 -69.5t24 -92t-21.5 -93t-66.5 -72t-111.5 -29q-61 0 -103 27.5t-64.5 69.5t-24 90.5t18 91t60.5 71.5t105 31z" />
    <glyph glyph-name="Scedilla" unicode="&#x15e;" horiz-adv-x="1194" 
d="M548 -223q13 -9 33 -18t42.5 -15.5t44.5 -9.5t39.5 0.5t28 14.5t9.5 33q-1 21 -18 34t-41.5 20t-53 10t-53 4t-40.5 2.5t-15 5.5l7 118q-69 15 -138 44.5t-132 71t-117.5 94.5t-95.5 115l217 209q34 -48 79 -88t94 -70t99 -47.5t95 -20.5q40 -3 68 8.5t44 32t22.5 47.5
t5.5 56t-10 57.5t-22 51.5q-29 49 -80 98t-112.5 98.5t-128 100t-127 103.5t-110 108t-76.5 114q-45 99 -40 200.5t53 189.5q38 70 93 119.5t121 79t139.5 40t148.5 3t147 -32.5t135 -66q28 -18 64.5 -47.5t73 -63t67.5 -66t47 -56.5l-260 -199q-44 62 -93.5 104.5
t-99.5 67.5t-97 34t-85.5 3.5t-65.5 -24.5t-36 -48q-12 -38 5.5 -78.5t56 -84t92.5 -91t115.5 -99t124.5 -107.5t120 -118q62 -68 106.5 -147t66 -162.5t16.5 -168.5t-41 -164q-26 -57 -70.5 -97.5t-100 -67t-117.5 -39t-123 -12.5q0 -17 7 -25q107 -6 168 -49t60 -113
q-1 -39 -21 -68.5t-52.5 -50t-73.5 -31t-83.5 -12t-83 7.5t-72.5 28v2z" />
    <glyph glyph-name="Tbar" unicode="&#x166;" horiz-adv-x="1154" 
d="M1092 1762v-336h-344l1 -262l103 1v-188h-102l4 -989h-355v74v128.5t0.5 169t0.5 196t0.5 210t0.5 211.5h-109v185h109v264h-342v333z" />
    <glyph glyph-name="Uogonek" unicode="&#x172;" horiz-adv-x="1369" 
d="M681 -20q-112 0 -197.5 33.5t-149.5 96t-108 152.5t-73 203.5t-45.5 248.5t-23.5 288q-8 170 -9.5 357t-0.5 391h324q1 -218 1.5 -400t4.5 -332q5 -186 19.5 -321.5t46 -223.5t82.5 -130t129 -40q72 2 122.5 43t84 122.5t51.5 203.5t25 285q7 160 6 357t-9 436h328
q2 -209 3.5 -407t-7.5 -380q-8 -159 -27.5 -300t-56 -257.5t-93.5 -205.5t-140 -143q-9 -30 -13 -63t5 -61.5t34.5 -49t75.5 -27.5l-57 -210q-82 13 -135 46t-81.5 78.5t-33.5 101t10 114.5q-44 -6 -92 -6z" />
    <glyph glyph-name="aogonek" unicode="&#x105;" horiz-adv-x="1400" 
d="M1321 -15h-196q-7 -28 -7.5 -56.5t11 -52.5t36.5 -41t69 -23l-57 -210q-96 15 -152.5 57.5t-80.5 100t-17 126t39 136.5v42q-124 -82 -269 -84q-103 -1 -188 25t-153 72.5t-118.5 110t-84.5 137.5t-52.5 155t-21.5 163q-3 87 12.5 174t49 166t86 147t123.5 118t160 78
t196 28q78 -1 145 -17.5t125 -47.5v16t0.5 25t0.5 24v14h338zM667 1015q-60 -2 -108.5 -29.5t-82.5 -75.5t-51.5 -113t-14.5 -141q1 -35 8.5 -74t22 -77t35.5 -72.5t49.5 -61t64.5 -42.5t80 -16q73 0 129 33t94 86.5t58 120.5t20 134q0 64 -20 124.5t-59 107t-95.5 73.5
t-129.5 23z" />
    <glyph glyph-name="dcaron" unicode="&#x10f;" horiz-adv-x="1847" 
d="M651 1338q94 1 172.5 -19t144.5 -56l-3 534h355q0 -35 -0.5 -104t-1 -161.5t-1 -204t-0.5 -232t-0.5 -244.5t-1 -241t-0.5 -222.5t-0.5 -189t-1 -140.5t-1.5 -76h-336v89q-66 -38 -145 -60t-173 -22q-119 0 -213.5 38t-165.5 102.5t-118 150.5t-70.5 182.5t-23.5 199
t23.5 199.5t70.5 183t117 151t163.5 103.5t209.5 39.5zM697 328q64 4 113.5 31t84 69.5t54 96.5t23.5 111v72q-5 58 -26 111.5t-57.5 94.5t-89 66t-121.5 25q-74 0 -128 -29.5t-89.5 -78.5t-52.5 -111t-15 -126.5t22 -126t58 -108.5t94 -74t130 -23zM1698 1454
q45 -78 65 -150.5t17 -144t-29.5 -143.5t-75.5 -149l-284 100q36 55 54 98.5t23.5 78t0.5 61.5t-14 49.5t-20.5 43t-18.5 41.5z" />
    <glyph glyph-name="dcroat" unicode="&#x111;" horiz-adv-x="1386" 
d="M965 1715v82h355q0 -14 -0.5 -34t-0.5 -45l157 2v-349h-159q0 -97 -0.5 -204t-0.5 -217.5v-220t-0.5 -211.5t-1 -192t-0.5 -160.5t-0.5 -118.5t-1.5 -65h-336v89q-66 -38 -145 -60t-173 -22q-119 0 -213.5 38t-165.5 102.5t-118 150.5t-70.5 182.5t-23.5 199t23.5 199.5
t70.5 183t117 151t163.5 103.5t209.5 39.5q94 1 172.5 -19t144.5 -56l-1 108l-227 1v341zM697 328q64 4 113.5 31t84 69.5t54 96.5t23.5 111v72q-5 58 -26 111.5t-57.5 94.5t-89 66t-121.5 25q-74 0 -128 -29.5t-89.5 -78.5t-52.5 -111t-15 -126.5t22 -126t58 -108.5t94 -74
t130 -23z" />
    <glyph glyph-name="eogonek" unicode="&#x119;" horiz-adv-x="1422" 
d="M1368 243q-55 -60 -121.5 -106t-139.5 -78q-9 -30 -11.5 -61.5t7 -58.5t35 -47t73.5 -26l-57 -210q-82 13 -135 46t-81.5 78.5t-33.5 101t10 114.5q-59 -12 -115 -17t-109 -2q-124 6 -237 54t-198 134.5t-134.5 211t-46.5 284.5q1 85 21 170.5t58.5 164.5t95 148
t131.5 120t168.5 81t205.5 32q114 1 205 -33t159.5 -94t115.5 -141t73.5 -173t33.5 -191t-5 -195l-936 -3q16 -66 48 -117.5t74 -87t93 -54.5t107 -20q44 0 96.5 10t106 31.5t103.5 53.5t89 75zM1026 865q-8 47 -30 82.5t-55 60t-73.5 38t-83.5 16.5q-52 4 -105 -7t-99 -35
t-81 -61t-51 -86z" />
    <glyph glyph-name="gcommaaccent" unicode="&#x123;" horiz-adv-x="1399" 
d="M1310 1372q3 -187 8 -368t5 -354t-8 -337.5t-31 -318.5q-17 -114 -69 -201t-131 -145t-180 -86t-216 -25q-116 3 -204 19.5t-152.5 40.5t-107.5 52t-69 55l178 281q43 -41 104.5 -69t128.5 -40t133 -6t119 33.5t87.5 78t37.5 128.5q-51 -23 -108 -35t-122 -13
q-128 -1 -230 34.5t-178.5 97t-127 144.5t-75 176t-24.5 191.5t26 192t76.5 176.5t126 145.5t175.5 98.5t224 36q72 0 134 -14.5t116 -40.5v6v13t0.5 21t1.5 20.5t3 12.5h349zM667 1015q-70 -4 -122 -32.5t-86.5 -73t-51.5 -99.5t-16.5 -112t19.5 -111.5t55.5 -97
t91.5 -68.5t129 -26q73 0 127.5 27t90 72t52.5 102t15 116t-22 115.5t-58 99.5t-94 67.5t-130 20.5zM670.581 1830.08q-6.72363 -16.708 -15.9678 -33.0176t-16.8076 -34.21q-7.56348 -17.9014 -11.7656 -39.3818q-4.20215 -21.4814 0.419922 -48.9287
q4.62207 -27.4482 19.749 -62.0566q15.1279 -34.6084 45.3818 -78.3662l-238.672 -79.5596q-41.1787 61.2607 -63.4492 118.544q-22.2705 57.2822 -24.792 114.167q-2.52148 56.8857 14.2871 114.566q16.8076 57.6797 54.625 119.736z" />
    <glyph glyph-name="hbar" unicode="&#x127;" horiz-adv-x="1263" 
d="M-2 1574h67q0 87 0.5 145t1.5 78h338l1 -221l70 1v-188h-69l1 -196q16 8 32 15t33 14q166 67 292 70t214.5 -61t139 -198t64.5 -342q5 -72 7.5 -155t3.5 -173t-1 -185t-6 -189h-331q4 92 7.5 184t5.5 177t1.5 158.5t-3.5 129.5q-6 97 -23.5 165t-54.5 104.5t-96.5 39
t-149.5 -32.5q-76 -29 -132 -72l5 -853h-355q0 30 0.5 86.5t0.5 132.5t0.5 167.5t0.5 192.5v207.5t0.5 212.5t0.5 208v193h-66v185z" />
    <glyph glyph-name="iogonek" unicode="&#x12f;" horiz-adv-x="520" 
d="M433 -7h-221q-7 -28 -7.5 -56.5t11 -52.5t36.5 -41.5t69 -23.5l-57 -210q-104 16 -162.5 64.5t-78 114t-4 141.5t59.5 148l13 1175h338zM270 1350q-69 -2 -114.5 25.5t-69 69.5t-24 92t21.5 93t66.5 72t111.5 29q61 0 103 -27.5t64.5 -69.5t24 -90.5t-18 -91t-60.5 -71.5
t-105 -31z" />
    <glyph glyph-name="lcaron" unicode="&#x13e;" horiz-adv-x="932" 
d="M416 -13h-355l6 1817h338zM776 1465q45 -78 65 -150.5t17 -144t-29.5 -143.5t-75.5 -149l-284 100q36 55 54 98.5t23.5 78t0.5 61.5t-14 49.5t-20.5 43t-18.5 41.5z" />
    <glyph glyph-name="scedilla" unicode="&#x15f;" 
d="M532 -234q13 -9 33 -18t42.5 -15.5t44.5 -9.5t39.5 0.5t28 14.5t9.5 33q-1 21 -18 34t-41.5 20t-53 10t-53 4t-40.5 2.5t-15 5.5l7 117q-69 10 -136 31t-127 51.5t-110.5 71t-85.5 88.5l189 240q34 -35 78.5 -64.5t91 -51t93 -32.5t85 -9t65.5 19t37 52q8 31 -23 63.5
t-86 69t-125 78t-138.5 88.5t-128.5 101t-94 117q-33 61 -35.5 125t20 123.5t66 111t103 88.5t130.5 54.5t148 10.5q72 -7 150.5 -30t149.5 -57.5t129.5 -77t91.5 -88.5l-194 -234q-49 51 -110 88.5t-118.5 54.5t-103.5 12t-64 -39q-10 -19 -3.5 -37.5t23 -36t40 -34
t49 -30.5t49 -25.5t39.5 -18.5q84 -33 158.5 -83.5t130.5 -116.5t88.5 -146t32.5 -172q0 -93 -34 -160t-91 -111.5t-132.5 -66.5t-159.5 -25q0 -9 1 -17.5t6 -13.5q107 -6 168 -49t60 -113q-1 -39 -21 -68.5t-52.5 -50t-73.5 -31t-83.5 -12t-83 7.5t-72.5 28v2z" />
    <glyph glyph-name="tbar" unicode="&#x167;" horiz-adv-x="1003" 
d="M267 872h56v95h-266v346h267q0 72 0.5 141t1 125.5t1 96.5t0.5 55h338l2 -418h272v-346h-269v-93l65 1v-188h-64l5 -707h-355q0 35 0.5 106t0.5 166t0.5 207t0.5 228h-56v185z" />
    <glyph glyph-name="tcaron" unicode="&#x165;" horiz-adv-x="1455" 
d="M324 1313q0 72 0.5 141t1 125.5t1 96.5t0.5 55h338l2 -418h272v-346h-269l6 -987h-355q0 30 0.5 88.5t0.5 136.5t0.5 171t0.5 192.5v201v197.5h-266v346h267zM1319 1511q45 -78 65 -150.5t17 -144t-29.5 -143.5t-75.5 -149l-284 100q36 55 54 98.5t23.5 78t0.5 61.5
t-14 49.5t-20.5 43t-18.5 41.5z" />
    <glyph glyph-name="uogonek" unicode="&#x173;" horiz-adv-x="1260" 
d="M1010 -15q-5 -27 -3.5 -52.5t13.5 -47.5t36.5 -37t65.5 -21l-57 -210q-95 15 -152 56.5t-81 99.5t-17.5 125.5t37.5 135.5l-1 51q-16 -8 -32 -15t-33 -14q-166 -67 -292 -70t-214.5 61t-139 198t-64.5 342q-5 72 -7.5 166t-3.5 197.5t1 209t6 200.5h331
q-2 -62 -4.5 -128.5t-4.5 -134.5t-3.5 -134t-2 -125.5t0.5 -110t3 -87.5q6 -97 23.5 -165t54.5 -104.5t96.5 -39t149.5 32.5q76 29 132 72l-5 924h355q-1 -44 -1 -120.5t-0.5 -174t-0.5 -208.5t-0.5 -223t-0.5 -218t-0.5 -194t-1 -150.5t-1.5 -86.5h-182z" />
    <glyph glyph-name="braceleft" unicode="{" horiz-adv-x="947" 
d="M65 1026h1q36 8 67.5 17.5t59 28t51 50t43.5 83.5t36.5 128.5t29.5 185.5q13 113 45 191t75.5 128t95 76t105 37.5t104.5 11.5t94 -2l3 -326q-31 1 -67.5 -1t-69 -21t-57.5 -60.5t-33 -117.5q-21 -189 -71 -335t-122 -244q71 -98 121.5 -243.5t70.5 -333.5q8 -77 33 -118
t57.5 -60t69 -21.5t67.5 -0.5l-3 -326q-43 -3 -94 -2.5t-104.5 12t-105 37.5t-95 76t-75.5 127.5t-45 191.5q-13 109 -29.5 185.5t-36.5 128.5t-43.5 83.5t-51 50t-59 28t-67.5 17.5v338z" />
    <glyph glyph-name="braceright" unicode="}" horiz-adv-x="918" 
d="M875 688q-36 -8 -67.5 -17.5t-59 -28t-51 -50t-43.5 -83.5t-36.5 -128.5t-29.5 -185.5q-13 -114 -45 -191.5t-75.5 -127.5t-95 -76t-105 -37.5t-104.5 -12t-94 2.5l-3 326q31 -2 67.5 0.5t69 21.5t57.5 60t33 118q20 188 70.5 333.5t121.5 243.5q-72 98 -122 244t-71 335
q-8 76 -33 117.5t-57.5 60.5t-69 21t-67.5 1l3 326q43 3 94 2.5t104.5 -12t105 -37.5t95 -76t75 -128t45.5 -191q13 -109 29.5 -185.5t36.5 -128.5t43.5 -83.5t51 -50t59 -28t67.5 -17.5h1v-338z" />
    </font>
</defs>
</svg>
